  0
SECTION
  2
HEADER
  9
$ACADVER
  1
AC1014
  9
$HANDSEED
  5
FFFF
  9
$MEASUREMENT
 70
     1
  0
ENDSEC
  0
SECTION
  2
TABLES
  0
TABLE
  2
VPORT
  5
8
330
0
100
AcDbSymbolTable
 70
     4
  0
VPORT
  5
2E
330
8
100
AcDbSymbolTableRecord
100
AcDbViewportTableRecord
  2
*ACTIVE
 70
     0
 10
0.0
 20
0.0
 11
1.0
 21
1.0
 12
210.0
 22
148.5
 13
0.0
 23
0.0
 14
10.0
 24
10.0
 15
10.0
 25
10.0
 16
0.0
 26
0.0
 36
1.0
 17
0.0
 27
0.0
 37
0.0
 40
341.0
 41
1.24
 42
50.0
 43
0.0
 44
0.0
 50
0.0
 51
0.0
 71
     0
 72
   100
 73
     1
 74
     3
 75
     0
 76
     0
 77
     0
 78
     0
  0
ENDTAB
  0
TABLE
  2
LTYPE
  5
5
330
0
100
AcDbSymbolTable
 70
     1
  0
LTYPE
  5
14
330
5
100
AcDbSymbolTableRecord
100
AcDbLinetypeTableRecord
  2
BYBLOCK
 70
     0
  3

 72
    65
 73
     0
 40
0.0
  0
LTYPE
  5
15
330
5
100
AcDbSymbolTableRecord
100
AcDbLinetypeTableRecord
  2
BYLAYER
 70
     0
  3

 72
    65
 73
     0
 40
0.0
  0
LTYPE
  5
16
330
5
100
AcDbSymbolTableRecord
100
AcDbLinetypeTableRecord
  2
CONTINUOUS
 70
     0
  3
Solid line
 72
    65
 73
     0
 40
0.0
  0
ENDTAB
  0
TABLE
  2
LAYER
  5
2
100
AcDbSymbolTable
 70
2
  0
LAYER
  5
50
100
AcDbSymbolTableRecord
100
AcDbLayerTableRecord
  2
0
 70
0
  6
CONTINUOUS
  0
LAYER
  5
51
100
AcDbSymbolTableRecord
100
AcDbLayerTableRecord
  2
Layer_1
 70
0
  6
CONTINUOUS
  0
ENDTAB
  0
TABLE
  2
STYLE
  5
3
330
0
100
AcDbSymbolTable
 70
     1
  0
STYLE
  5
11
330
3
100
AcDbSymbolTableRecord
100
AcDbTextStyleTableRecord
  2
STANDARD
 70
     0
 40
0.0
 41
1.0
 50
0.0
 71
     0
 42
2.5
  3
txt
  4

  0
ENDTAB
  0
TABLE
  2
VIEW
  5
6
330
0
100
AcDbSymbolTable
 70
     0
  0
ENDTAB
  0
TABLE
  2
UCS
  5
7
330
0
100
AcDbSymbolTable
 70
     0
  0
ENDTAB
  0
TABLE
  2
APPID
  5
9
330
0
100
AcDbSymbolTable
 70
     2
  0
APPID
  5
12
330
9
100
AcDbSymbolTableRecord
100
AcDbRegAppTableRecord
  2
ACAD
 70
     0
  0
ENDTAB
  0
TABLE
  2
DIMSTYLE
  5
A
330
0
100
AcDbSymbolTable
 70
     1
  0
DIMSTYLE
105
27
330
A
100
AcDbSymbolTableRecord
100
AcDbDimStyleTableRecord
  2
ISO-25
 70
     0
  3

  4

  5

  6

  7

 40
1.0
 41
2.5
 42
0.625
 43
3.75
 44
1.25
 45
0.0
 46
0.0
 47
0.0
 48
0.0
140
2.5
141
2.5
142
0.0
143
0.03937007874016
144
1.0
145
0.0
146
1.0
147
0.625
 71
     0
 72
     0
 73
     0
 74
     0
 75
     0
 76
     0
 77
     1
 78
     8
170
     0
171
     3
172
     1
173
     0
174
     0
175
     0
176
     0
177
     0
178
     0
270
     2
271
     2
272
     2
273
     2
274
     3
340
11
275
     0
280
     0
281
     0
282
     0
283
     0
284
     8
285
     0
286
     0
287
     3
288
     0
  0
ENDTAB
  0
TABLE
  2
BLOCK_RECORD
  5
1
330
0
100
AcDbSymbolTable
 70
     1
  0
BLOCK_RECORD
  5
1F
330
1
100
AcDbSymbolTableRecord
100
AcDbBlockTableRecord
  2
*MODEL_SPACE
  0
BLOCK_RECORD
  5
1B
330
1
100
AcDbSymbolTableRecord
100
AcDbBlockTableRecord
  2
*PAPER_SPACE
  0
ENDTAB
  0
ENDSEC
  0
SECTION
  2
BLOCKS
  0
BLOCK
  5
20
330
1F
100
AcDbEntity
  8
0
100
AcDbBlockBegin
  2
*MODEL_SPACE
 70
     0
 10
0.0
 20
0.0
 30
0.0
  3
*MODEL_SPACE
  1

  0
ENDBLK
  5
21
330
1F
100
AcDbEntity
  8
0
100
AcDbBlockEnd
  0
BLOCK
  5
1C
330
1B
100
AcDbEntity
 67
     1
  8
0
100
AcDbBlockBegin
  2
*PAPER_SPACE
  1

  0
ENDBLK
  5
1D
330
1B
100
AcDbEntity
 67
     1
  8
0
100
AcDbBlockEnd
  0
ENDSEC
  0
SECTION
  2
ENTITIES
  0
LINE
  5
100
100
AcDbEntity
  8
Layer_1
 62
1
100
AcDbLine
 10
22.000001
 20
90.000002
 30
0.0
 11
78.000000
 21
90.000002
 31
0.0
  0
SPLINE
  5
101
100
AcDbEntity
  8
Layer_1
 62
1
100
AcDbSpline
 70
8
 71
3
 72
8
 73
4
 74
0
 40
0
 40
0
 40
0
 40
0
 40
1
 40
1
 40
1
 40
1
 10
78.000000
 20
90.000002
 30
0.0
 10
79.107999
 20
90.000002
 30
0.0
 10
79.999999
 20
89.108002
 30
0.0
 10
79.999999
 20
88.000000
 30
0.0
  0
LINE
  5
102
100
AcDbEntity
  8
Layer_1
 62
1
100
AcDbLine
 10
79.999999
 20
88.000000
 30
0.0
 11
79.999999
 21
22.000002
 31
0.0
  0
SPLINE
  5
103
100
AcDbEntity
  8
Layer_1
 62
1
100
AcDbSpline
 70
8
 71
3
 72
8
 73
4
 74
0
 40
0
 40
0
 40
0
 40
0
 40
1
 40
1
 40
1
 40
1
 10
79.999999
 20
22.000002
 30
0.0
 10
79.999999
 20
20.891998
 30
0.0
 10
79.107999
 20
20.000006
 30
0.0
 10
78.000000
 20
20.000006
 30
0.0
  0
LINE
  5
104
100
AcDbEntity
  8
Layer_1
 62
1
100
AcDbLine
 10
78.000000
 20
20.000006
 30
0.0
 11
22.000001
 21
20.000006
 31
0.0
  0
SPLINE
  5
105
100
AcDbEntity
  8
Layer_1
 62
1
100
AcDbSpline
 70
8
 71
3
 72
8
 73
4
 74
0
 40
0
 40
0
 40
0
 40
0
 40
1
 40
1
 40
1
 40
1
 10
22.000001
 20
20.000006
 30
0.0
 10
20.892002
 20
20.000006
 30
0.0
 10
20.000001
 20
20.891998
 30
0.0
 10
20.000001
 20
22.000002
 30
0.0
  0
LINE
  5
106
100
AcDbEntity
  8
Layer_1
 62
1
100
AcDbLine
 10
20.000001
 20
22.000002
 30
0.0
 11
20.000001
 21
88.000000
 31
0.0
  0
SPLINE
  5
107
100
AcDbEntity
  8
Layer_1
 62
1
100
AcDbSpline
 70
8
 71
3
 72
8
 73
4
 74
0
 40
0
 40
0
 40
0
 40
0
 40
1
 40
1
 40
1
 40
1
 10
20.000001
 20
88.000000
 30
0.0
 10
20.000001
 20
89.108002
 30
0.0
 10
20.892002
 20
90.000002
 30
0.0
 10
22.000001
 20
90.000002
 30
0.0
  0
LINE
  5
108
100
AcDbEntity
  8
Layer_1
 62
1
100
AcDbLine
 10
22.000001
 20
90.000002
 30
0.0
 11
22.000001
 21
90.000002
 31
0.0
  0
SPLINE
  5
109
100
AcDbEntity
  8
Layer_1
 62
7
100
AcDbSpline
 70
8
 71
3
 72
8
 73
4
 74
0
 40
0
 40
0
 40
0
 40
0
 40
1
 40
1
 40
1
 40
1
 10
28.500000
 20
51.999996
 30
0.0
 10
28.500000
 20
51.171569
 30
0.0
 10
27.828427
 20
50.499996
 30
0.0
 10
27.000000
 20
50.499996
 30
0.0
  0
SPLINE
  5
10a
100
AcDbEntity
  8
Layer_1
 62
7
100
AcDbSpline
 70
8
 71
3
 72
8
 73
4
 74
0
 40
0
 40
0
 40
0
 40
0
 40
1
 40
1
 40
1
 40
1
 10
27.000000
 20
50.499996
 30
0.0
 10
26.171573
 20
50.499996
 30
0.0
 10
25.500000
 20
51.171569
 30
0.0
 10
25.500000
 20
51.999996
 30
0.0
  0
SPLINE
  5
10b
100
AcDbEntity
  8
Layer_1
 62
7
100
AcDbSpline
 70
8
 71
3
 72
8
 73
4
 74
0
 40
0
 40
0
 40
0
 40
0
 40
1
 40
1
 40
1
 40
1
 10
25.500000
 20
51.999996
 30
0.0
 10
25.500000
 20
52.828423
 30
0.0
 10
26.171573
 20
53.499996
 30
0.0
 10
27.000000
 20
53.499996
 30
0.0
  0
SPLINE
  5
10c
100
AcDbEntity
  8
Layer_1
 62
7
100
AcDbSpline
 70
8
 71
3
 72
8
 73
4
 74
0
 40
0
 40
0
 40
0
 40
0
 40
1
 40
1
 40
1
 40
1
 10
27.000000
 20
53.499996
 30
0.0
 10
27.828427
 20
53.499996
 30
0.0
 10
28.500000
 20
52.828423
 30
0.0
 10
28.500000
 20
51.999996
 30
0.0
  0
LINE
  5
10d
100
AcDbEntity
  8
Layer_1
 62
7
100
AcDbLine
 10
28.500000
 20
51.999996
 30
0.0
 11
28.500000
 21
51.999996
 31
0.0
  0
SPLINE
  5
10e
100
AcDbEntity
  8
Layer_1
 62
7
100
AcDbSpline
 70
8
 71
3
 72
8
 73
4
 74
0
 40
0
 40
0
 40
0
 40
0
 40
1
 40
1
 40
1
 40
1
 10
74.499999
 20
83.000016
 30
0.0
 10
74.499999
 20
82.171589
 30
0.0
 10
73.828426
 20
81.500016
 30
0.0
 10
72.999999
 20
81.500016
 30
0.0
  0
SPLINE
  5
10f
100
AcDbEntity
  8
Layer_1
 62
7
100
AcDbSpline
 70
8
 71
3
 72
8
 73
4
 74
0
 40
0
 40
0
 40
0
 40
0
 40
1
 40
1
 40
1
 40
1
 10
72.999999
 20
81.500016
 30
0.0
 10
72.171572
 20
81.500016
 30
0.0
 10
71.499999
 20
82.171589
 30
0.0
 10
71.499999
 20
83.000016
 30
0.0
  0
SPLINE
  5
110
100
AcDbEntity
  8
Layer_1
 62
7
100
AcDbSpline
 70
8
 71
3
 72
8
 73
4
 74
0
 40
0
 40
0
 40
0
 40
0
 40
1
 40
1
 40
1
 40
1
 10
71.499999
 20
83.000016
 30
0.0
 10
71.499999
 20
83.828443
 30
0.0
 10
72.171572
 20
84.500015
 30
0.0
 10
72.999999
 20
84.500015
 30
0.0
  0
SPLINE
  5
111
100
AcDbEntity
  8
Layer_1
 62
7
100
AcDbSpline
 70
8
 71
3
 72
8
 73
4
 74
0
 40
0
 40
0
 40
0
 40
0
 40
1
 40
1
 40
1
 40
1
 10
72.999999
 20
84.500015
 30
0.0
 10
73.828426
 20
84.500015
 30
0.0
 10
74.499999
 20
83.828443
 30
0.0
 10
74.499999
 20
83.000016
 30
0.0
  0
LINE
  5
112
100
AcDbEntity
  8
Layer_1
 62
7
100
AcDbLine
 10
74.499999
 20
83.000016
 30
0.0
 11
74.499999
 21
83.000016
 31
0.0
  0
SPLINE
  5
113
100
AcDbEntity
  8
Layer_1
 62
7
100
AcDbSpline
 70
8
 71
3
 72
8
 73
4
 74
0
 40
0
 40
0
 40
0
 40
0
 40
1
 40
1
 40
1
 40
1
 10
74.499999
 20
51.999996
 30
0.0
 10
74.499999
 20
51.171569
 30
0.0
 10
73.828426
 20
50.499996
 30
0.0
 10
72.999999
 20
50.499996
 30
0.0
  0
SPLINE
  5
114
100
AcDbEntity
  8
Layer_1
 62
7
100
AcDbSpline
 70
8
 71
3
 72
8
 73
4
 74
0
 40
0
 40
0
 40
0
 40
0
 40
1
 40
1
 40
1
 40
1
 10
72.999999
 20
50.499996
 30
0.0
 10
72.171572
 20
50.499996
 30
0.0
 10
71.499999
 20
51.171569
 30
0.0
 10
71.499999
 20
51.999996
 30
0.0
  0
SPLINE
  5
115
100
AcDbEntity
  8
Layer_1
 62
7
100
AcDbSpline
 70
8
 71
3
 72
8
 73
4
 74
0
 40
0
 40
0
 40
0
 40
0
 40
1
 40
1
 40
1
 40
1
 10
71.499999
 20
51.999996
 30
0.0
 10
71.499999
 20
52.828423
 30
0.0
 10
72.171572
 20
53.499996
 30
0.0
 10
72.999999
 20
53.499996
 30
0.0
  0
SPLINE
  5
116
100
AcDbEntity
  8
Layer_1
 62
7
100
AcDbSpline
 70
8
 71
3
 72
8
 73
4
 74
0
 40
0
 40
0
 40
0
 40
0
 40
1
 40
1
 40
1
 40
1
 10
72.999999
 20
53.499996
 30
0.0
 10
73.828426
 20
53.499996
 30
0.0
 10
74.499999
 20
52.828423
 30
0.0
 10
74.499999
 20
51.999996
 30
0.0
  0
LINE
  5
117
100
AcDbEntity
  8
Layer_1
 62
7
100
AcDbLine
 10
74.499999
 20
51.999996
 30
0.0
 11
74.499999
 21
51.999996
 31
0.0
  0
SPLINE
  5
118
100
AcDbEntity
  8
Layer_1
 62
7
100
AcDbSpline
 70
8
 71
3
 72
8
 73
4
 74
0
 40
0
 40
0
 40
0
 40
0
 40
1
 40
1
 40
1
 40
1
 10
28.500000
 20
83.000016
 30
0.0
 10
28.500000
 20
82.171589
 30
0.0
 10
27.828427
 20
81.500016
 30
0.0
 10
27.000000
 20
81.500016
 30
0.0
  0
SPLINE
  5
119
100
AcDbEntity
  8
Layer_1
 62
7
100
AcDbSpline
 70
8
 71
3
 72
8
 73
4
 74
0
 40
0
 40
0
 40
0
 40
0
 40
1
 40
1
 40
1
 40
1
 10
27.000000
 20
81.500016
 30
0.0
 10
26.171573
 20
81.500016
 30
0.0
 10
25.500000
 20
82.171589
 30
0.0
 10
25.500000
 20
83.000016
 30
0.0
  0
SPLINE
  5
11a
100
AcDbEntity
  8
Layer_1
 62
7
100
AcDbSpline
 70
8
 71
3
 72
8
 73
4
 74
0
 40
0
 40
0
 40
0
 40
0
 40
1
 40
1
 40
1
 40
1
 10
25.500000
 20
83.000016
 30
0.0
 10
25.500000
 20
83.828443
 30
0.0
 10
26.171573
 20
84.500015
 30
0.0
 10
27.000000
 20
84.500015
 30
0.0
  0
SPLINE
  5
11b
100
AcDbEntity
  8
Layer_1
 62
7
100
AcDbSpline
 70
8
 71
3
 72
8
 73
4
 74
0
 40
0
 40
0
 40
0
 40
0
 40
1
 40
1
 40
1
 40
1
 10
27.000000
 20
84.500015
 30
0.0
 10
27.828427
 20
84.500016
 30
0.0
 10
28.500000
 20
83.828443
 30
0.0
 10
28.500000
 20
83.000016
 30
0.0
  0
LINE
  5
11c
100
AcDbEntity
  8
Layer_1
 62
7
100
AcDbLine
 10
28.500000
 20
83.000016
 30
0.0
 11
28.500000
 21
83.000016
 31
0.0
  0
SPLINE
  5
11d
100
AcDbEntity
  8
Layer_1
 62
7
100
AcDbSpline
 70
8
 71
3
 72
8
 73
4
 74
0
 40
0
 40
0
 40
0
 40
0
 40
1
 40
1
 40
1
 40
1
 10
31.541373
 20
40.702028
 30
0.0
 10
31.541373
 20
40.404372
 30
0.0
 10
31.480739
 20
40.138410
 30
0.0
 10
31.359472
 20
39.904143
 30
0.0
  0
SPLINE
  5
11e
100
AcDbEntity
  8
Layer_1
 62
7
100
AcDbSpline
 70
8
 71
3
 72
8
 73
4
 74
0
 40
0
 40
0
 40
0
 40
0
 40
1
 40
1
 40
1
 40
1
 10
31.359472
 20
39.904143
 30
0.0
 10
31.240961
 20
39.669878
 30
0.0
 10
31.076974
 20
39.475575
 30
0.0
 10
30.867512
 20
39.321233
 30
0.0
  0
SPLINE
  5
11f
100
AcDbEntity
  8
Layer_1
 62
7
100
AcDbSpline
 70
8
 71
3
 72
8
 73
4
 74
0
 40
0
 40
0
 40
0
 40
0
 40
1
 40
1
 40
1
 40
1
 10
30.867512
 20
39.321233
 30
0.0
 10
30.624977
 20
39.139333
 30
0.0
 10
30.357638
 20
39.009798
 30
0.0
 10
30.065494
 20
38.932627
 30
0.0
  0
SPLINE
  5
120
100
AcDbEntity
  8
Layer_1
 62
7
100
AcDbSpline
 70
8
 71
3
 72
8
 73
4
 74
0
 40
0
 40
0
 40
0
 40
0
 40
1
 40
1
 40
1
 40
1
 10
30.065494
 20
38.932627
 30
0.0
 10
29.776106
 20
38.855456
 30
0.0
 10
29.408170
 20
38.816871
 30
0.0
 10
28.961685
 20
38.816871
 30
0.0
  0
LINE
  5
121
100
AcDbEntity
  8
Layer_1
 62
7
100
AcDbLine
 10
28.961685
 20
38.816871
 30
0.0
 11
26.274511
 21
38.816871
 31
0.0
  0
LINE
  5
122
100
AcDbEntity
  8
Layer_1
 62
7
100
AcDbLine
 10
26.274511
 20
38.816871
 30
0.0
 11
26.274511
 21
44.972569
 31
0.0
  0
LINE
  5
123
100
AcDbEntity
  8
Layer_1
 62
7
100
AcDbLine
 10
26.274511
 20
44.972569
 30
0.0
 11
28.664029
 21
44.972569
 31
0.0
  0
SPLINE
  5
124
100
AcDbEntity
  8
Layer_1
 62
7
100
AcDbSpline
 70
8
 71
3
 72
8
 73
4
 74
0
 40
0
 40
0
 40
0
 40
0
 40
1
 40
1
 40
1
 40
1
 10
28.664029
 20
44.972569
 30
0.0
 10
29.160123
 20
44.972569
 30
0.0
 10
29.522547
 20
44.956033
 30
0.0
 10
29.751301
 20
44.922960
 30
0.0
  0
SPLINE
  5
125
100
AcDbEntity
  8
Layer_1
 62
7
100
AcDbSpline
 70
8
 71
3
 72
8
 73
4
 74
0
 40
0
 40
0
 40
0
 40
0
 40
1
 40
1
 40
1
 40
1
 10
29.751301
 20
44.922960
 30
0.0
 10
29.982812
 20
44.889886
 30
0.0
 10
30.211566
 20
44.816849
 30
0.0
 10
30.437564
 20
44.703851
 30
0.0
  0
SPLINE
  5
126
100
AcDbEntity
  8
Layer_1
 62
7
100
AcDbSpline
 70
8
 71
3
 72
8
 73
4
 74
0
 40
0
 40
0
 40
0
 40
0
 40
1
 40
1
 40
1
 40
1
 10
30.437564
 20
44.703851
 30
0.0
 10
30.671831
 20
44.585341
 30
0.0
 10
30.845463
 20
44.425488
 30
0.0
 10
30.958463
 20
44.224294
 30
0.0
  0
SPLINE
  5
127
100
AcDbEntity
  8
Layer_1
 62
7
100
AcDbSpline
 70
8
 71
3
 72
8
 73
4
 74
0
 40
0
 40
0
 40
0
 40
0
 40
1
 40
1
 40
1
 40
1
 10
30.958463
 20
44.224294
 30
0.0
 10
31.074218
 20
44.025856
 30
0.0
 10
31.132096
 20
43.798480
 30
0.0
 10
31.132096
 20
43.542166
 30
0.0
  0
SPLINE
  5
128
100
AcDbEntity
  8
Layer_1
 62
7
100
AcDbSpline
 70
8
 71
3
 72
8
 73
4
 74
0
 40
0
 40
0
 40
0
 40
0
 40
1
 40
1
 40
1
 40
1
 10
31.132096
 20
43.542166
 30
0.0
 10
31.132096
 20
43.244510
 30
0.0
 10
31.053547
 20
42.981304
 30
0.0
 10
30.896451
 20
42.752550
 30
0.0
  0
SPLINE
  5
129
100
AcDbEntity
  8
Layer_1
 62
7
100
AcDbSpline
 70
8
 71
3
 72
8
 73
4
 74
0
 40
0
 40
0
 40
0
 40
0
 40
1
 40
1
 40
1
 40
1
 10
30.896451
 20
42.752550
 30
0.0
 10
30.739355
 20
42.526550
 30
0.0
 10
30.517490
 20
42.350161
 30
0.0
 10
30.230858
 20
42.223383
 30
0.0
  0
LINE
  5
12a
100
AcDbEntity
  8
Layer_1
 62
7
100
AcDbLine
 10
30.230858
 20
42.223383
 30
0.0
 11
30.230858
 21
42.190310
 31
0.0
  0
SPLINE
  5
12b
100
AcDbEntity
  8
Layer_1
 62
7
100
AcDbSpline
 70
8
 71
3
 72
8
 73
4
 74
0
 40
0
 40
0
 40
0
 40
0
 40
1
 40
1
 40
1
 40
1
 10
30.230858
 20
42.190310
 30
0.0
 10
30.633246
 20
42.110383
 30
0.0
 10
30.951572
 20
41.945018
 30
0.0
 10
31.185839
 20
41.694217
 30
0.0
  0
SPLINE
  5
12c
100
AcDbEntity
  8
Layer_1
 62
7
100
AcDbSpline
 70
8
 71
3
 72
8
 73
4
 74
0
 40
0
 40
0
 40
0
 40
0
 40
1
 40
1
 40
1
 40
1
 10
31.185839
 20
41.694217
 30
0.0
 10
31.422862
 20
41.443413
 30
0.0
 10
31.541373
 20
41.112684
 30
0.0
 10
31.541373
 20
40.702028
 30
0.0
  0
LINE
  5
12d
100
AcDbEntity
  8
Layer_1
 62
7
100
AcDbLine
 10
31.541373
 20
40.702028
 30
0.0
 11
31.541373
 21
40.702028
 31
0.0
  0
SPLINE
  5
12e
100
AcDbEntity
  8
Layer_1
 62
7
100
AcDbSpline
 70
8
 71
3
 72
8
 73
4
 74
0
 40
0
 40
0
 40
0
 40
0
 40
1
 40
1
 40
1
 40
1
 10
29.507389
 20
43.232105
 30
0.0
 10
29.507389
 20
43.334081
 30
0.0
 10
29.481206
 20
43.436057
 30
0.0
 10
29.428840
 20
43.538031
 30
0.0
  0
SPLINE
  5
12f
100
AcDbEntity
  8
Layer_1
 62
7
100
AcDbSpline
 70
8
 71
3
 72
8
 73
4
 74
0
 40
0
 40
0
 40
0
 40
0
 40
1
 40
1
 40
1
 40
1
 10
29.428840
 20
43.538031
 30
0.0
 10
29.379231
 20
43.640005
 30
0.0
 10
29.289658
 20
43.715797
 30
0.0
 10
29.160123
 20
43.765406
 30
0.0
  0
SPLINE
  5
130
100
AcDbEntity
  8
Layer_1
 62
7
100
AcDbSpline
 70
8
 71
3
 72
8
 73
4
 74
0
 40
0
 40
0
 40
0
 40
0
 40
1
 40
1
 40
1
 40
1
 10
29.160123
 20
43.765406
 30
0.0
 10
29.044368
 20
43.809504
 30
0.0
 10
28.899674
 20
43.832932
 30
0.0
 10
28.726041
 20
43.835688
 30
0.0
  0
SPLINE
  5
131
100
AcDbEntity
  8
Layer_1
 62
7
100
AcDbSpline
 70
8
 71
3
 72
8
 73
4
 74
0
 40
0
 40
0
 40
0
 40
0
 40
1
 40
1
 40
1
 40
1
 10
28.726041
 20
43.835688
 30
0.0
 10
28.555164
 20
43.841201
 30
0.0
 10
28.314007
 20
43.843957
 30
0.0
 10
28.002571
 20
43.843957
 30
0.0
  0
LINE
  5
132
100
AcDbEntity
  8
Layer_1
 62
7
100
AcDbLine
 10
28.002571
 20
43.843957
 30
0.0
 11
27.853743
 21
43.843957
 31
0.0
  0
LINE
  5
133
100
AcDbEntity
  8
Layer_1
 62
7
100
AcDbLine
 10
27.853743
 20
43.843957
 30
0.0
 11
27.853743
 21
42.541713
 31
0.0
  0
LINE
  5
134
100
AcDbEntity
  8
Layer_1
 62
7
100
AcDbLine
 10
27.853743
 20
42.541713
 30
0.0
 11
28.101790
 21
42.541713
 31
0.0
  0
SPLINE
  5
135
100
AcDbEntity
  8
Layer_1
 62
7
100
AcDbSpline
 70
8
 71
3
 72
8
 73
4
 74
0
 40
0
 40
0
 40
0
 40
0
 40
1
 40
1
 40
1
 40
1
 10
28.101790
 20
42.541713
 30
0.0
 10
28.352593
 20
42.541713
 30
0.0
 10
28.566188
 20
42.545843
 30
0.0
 10
28.742577
 20
42.554103
 30
0.0
  0
SPLINE
  5
136
100
AcDbEntity
  8
Layer_1
 62
7
100
AcDbSpline
 70
8
 71
3
 72
8
 73
4
 74
0
 40
0
 40
0
 40
0
 40
0
 40
1
 40
1
 40
1
 40
1
 10
28.742577
 20
42.554103
 30
0.0
 10
28.918966
 20
42.562362
 30
0.0
 10
29.058148
 20
42.589923
 30
0.0
 10
29.160123
 20
42.636785
 30
0.0
  0
SPLINE
  5
137
100
AcDbEntity
  8
Layer_1
 62
7
100
AcDbSpline
 70
8
 71
3
 72
8
 73
4
 74
0
 40
0
 40
0
 40
0
 40
0
 40
1
 40
1
 40
1
 40
1
 10
29.160123
 20
42.636785
 30
0.0
 10
29.303439
 20
42.700174
 30
0.0
 10
29.397146
 20
42.781479
 30
0.0
 10
29.441243
 20
42.880699
 30
0.0
  0
SPLINE
  5
138
100
AcDbEntity
  8
Layer_1
 62
7
100
AcDbSpline
 70
8
 71
3
 72
8
 73
4
 74
0
 40
0
 40
0
 40
0
 40
0
 40
1
 40
1
 40
1
 40
1
 10
29.441243
 20
42.880699
 30
0.0
 10
29.485340
 20
42.982673
 30
0.0
 10
29.507389
 20
43.099806
 30
0.0
 10
29.507389
 20
43.232096
 30
0.0
  0
LINE
  5
139
100
AcDbEntity
  8
Layer_1
 62
7
100
AcDbLine
 10
29.507389
 20
43.232096
 30
0.0
 11
29.507389
 21
43.232105
 31
0.0
  0
SPLINE
  5
13a
100
AcDbEntity
  8
Layer_1
 62
7
100
AcDbSpline
 70
8
 71
3
 72
8
 73
4
 74
0
 40
0
 40
0
 40
0
 40
0
 40
1
 40
1
 40
1
 40
1
 10
29.895995
 20
40.726832
 30
0.0
 10
29.895995
 20
40.922514
 30
0.0
 10
29.857410
 20
41.072720
 30
0.0
 10
29.780240
 20
41.177451
 30
0.0
  0
SPLINE
  5
13b
100
AcDbEntity
  8
Layer_1
 62
7
100
AcDbSpline
 70
8
 71
3
 72
8
 73
4
 74
0
 40
0
 40
0
 40
0
 40
0
 40
1
 40
1
 40
1
 40
1
 10
29.780240
 20
41.177451
 30
0.0
 10
29.705826
 20
41.284938
 30
0.0
 10
29.577668
 20
41.364864
 30
0.0
 10
29.395767
 20
41.417230
 30
0.0
  0
SPLINE
  5
13c
100
AcDbEntity
  8
Layer_1
 62
7
100
AcDbSpline
 70
8
 71
3
 72
8
 73
4
 74
0
 40
0
 40
0
 40
0
 40
0
 40
1
 40
1
 40
1
 40
1
 10
29.395767
 20
41.417230
 30
0.0
 10
29.271744
 20
41.453059
 30
0.0
 10
29.100867
 20
41.472352
 30
0.0
 10
28.883137
 20
41.475108
 30
0.0
  0
SPLINE
  5
13d
100
AcDbEntity
  8
Layer_1
 62
7
100
AcDbSpline
 70
8
 71
3
 72
8
 73
4
 74
0
 40
0
 40
0
 40
0
 40
0
 40
1
 40
1
 40
1
 40
1
 10
28.883137
 20
41.475108
 30
0.0
 10
28.665407
 20
41.477855
 30
0.0
 10
28.438031
 20
41.479228
 30
0.0
 10
28.201008
 20
41.479228
 30
0.0
  0
LINE
  5
13e
100
AcDbEntity
  8
Layer_1
 62
7
100
AcDbLine
 10
28.201008
 20
41.479228
 30
0.0
 11
27.853743
 21
41.479228
 31
0.0
  0
LINE
  5
13f
100
AcDbEntity
  8
Layer_1
 62
7
100
AcDbLine
 10
27.853743
 20
41.479228
 30
0.0
 11
27.853743
 21
39.945472
 31
0.0
  0
LINE
  5
140
100
AcDbEntity
  8
Layer_1
 62
7
100
AcDbLine
 10
27.853743
 20
39.945472
 30
0.0
 11
27.969498
 21
39.945472
 31
0.0
  0
SPLINE
  5
141
100
AcDbEntity
  8
Layer_1
 62
7
100
AcDbSpline
 70
8
 71
3
 72
8
 73
4
 74
0
 40
0
 40
0
 40
0
 40
0
 40
1
 40
1
 40
1
 40
1
 10
27.969498
 20
39.945472
 30
0.0
 10
28.415982
 20
39.945472
 30
0.0
 10
28.735687
 20
39.946845
 30
0.0
 10
28.928612
 20
39.949592
 30
0.0
  0
SPLINE
  5
142
100
AcDbEntity
  8
Layer_1
 62
7
100
AcDbSpline
 70
8
 71
3
 72
8
 73
4
 74
0
 40
0
 40
0
 40
0
 40
0
 40
1
 40
1
 40
1
 40
1
 10
28.928612
 20
39.949592
 30
0.0
 10
29.121538
 20
39.952339
 30
0.0
 10
29.299305
 20
39.988167
 30
0.0
 10
29.461913
 20
40.057077
 30
0.0
  0
SPLINE
  5
143
100
AcDbEntity
  8
Layer_1
 62
7
100
AcDbSpline
 70
8
 71
3
 72
8
 73
4
 74
0
 40
0
 40
0
 40
0
 40
0
 40
1
 40
1
 40
1
 40
1
 10
29.461913
 20
40.057077
 30
0.0
 10
29.627278
 20
40.125980
 30
0.0
 10
29.740277
 20
40.216931
 30
0.0
 10
29.800911
 20
40.329929
 30
0.0
  0
SPLINE
  5
144
100
AcDbEntity
  8
Layer_1
 62
7
100
AcDbSpline
 70
8
 71
3
 72
8
 73
4
 74
0
 40
0
 40
0
 40
0
 40
0
 40
1
 40
1
 40
1
 40
1
 10
29.800911
 20
40.329929
 30
0.0
 10
29.864300
 20
40.445685
 30
0.0
 10
29.895995
 20
40.577977
 30
0.0
 10
29.895995
 20
40.726804
 30
0.0
  0
LINE
  5
145
100
AcDbEntity
  8
Layer_1
 62
7
100
AcDbLine
 10
29.895995
 20
40.726804
 30
0.0
 11
29.895995
 21
40.726832
 31
0.0
  0
LINE
  5
146
100
AcDbEntity
  8
Layer_1
 62
7
100
AcDbLine
 10
34.129329
 20
38.816871
 30
0.0
 11
32.641047
 21
38.816871
 31
0.0
  0
LINE
  5
147
100
AcDbEntity
  8
Layer_1
 62
7
100
AcDbLine
 10
32.641047
 20
38.816871
 30
0.0
 11
32.641047
 21
43.459483
 31
0.0
  0
LINE
  5
148
100
AcDbEntity
  8
Layer_1
 62
7
100
AcDbLine
 10
32.641047
 20
43.459483
 30
0.0
 11
34.129329
 21
43.459483
 31
0.0
  0
LINE
  5
149
100
AcDbEntity
  8
Layer_1
 62
7
100
AcDbLine
 10
34.129329
 20
43.459483
 30
0.0
 11
34.129329
 21
38.816871
 31
0.0
  0
LINE
  5
14a
100
AcDbEntity
  8
Layer_1
 62
7
100
AcDbLine
 10
34.129329
 20
38.816871
 30
0.0
 11
34.129329
 21
38.816871
 31
0.0
  0
LINE
  5
14b
100
AcDbEntity
  8
Layer_1
 62
7
100
AcDbLine
 10
34.170670
 20
44.120941
 30
0.0
 11
32.599706
 21
44.120941
 31
0.0
  0
LINE
  5
14c
100
AcDbEntity
  8
Layer_1
 62
7
100
AcDbLine
 10
32.599706
 20
44.120941
 30
0.0
 11
32.599706
 21
45.249554
 31
0.0
  0
LINE
  5
14d
100
AcDbEntity
  8
Layer_1
 62
7
100
AcDbLine
 10
32.599706
 20
45.249554
 30
0.0
 11
34.170670
 21
45.249554
 31
0.0
  0
LINE
  5
14e
100
AcDbEntity
  8
Layer_1
 62
7
100
AcDbLine
 10
34.170670
 20
45.249554
 30
0.0
 11
34.170670
 21
44.120941
 31
0.0
  0
LINE
  5
14f
100
AcDbEntity
  8
Layer_1
 62
7
100
AcDbLine
 10
34.170670
 20
44.120941
 30
0.0
 11
34.170670
 21
44.120941
 31
0.0
  0
LINE
  5
150
100
AcDbEntity
  8
Layer_1
 62
7
100
AcDbLine
 10
40.198209
 20
38.816871
 30
0.0
 11
38.701659
 21
38.816871
 31
0.0
  0
LINE
  5
151
100
AcDbEntity
  8
Layer_1
 62
7
100
AcDbLine
 10
38.701659
 20
38.816871
 30
0.0
 11
38.701659
 21
41.119573
 31
0.0
  0
SPLINE
  5
152
100
AcDbEntity
  8
Layer_1
 62
7
100
AcDbSpline
 70
8
 71
3
 72
8
 73
4
 74
0
 40
0
 40
0
 40
0
 40
0
 40
1
 40
1
 40
1
 40
1
 10
38.701659
 20
41.119573
 30
0.0
 10
38.701659
 20
41.306987
 30
0.0
 10
38.692013
 20
41.493022
 30
0.0
 10
38.672721
 20
41.677679
 30
0.0
  0
SPLINE
  5
153
100
AcDbEntity
  8
Layer_1
 62
7
100
AcDbSpline
 70
8
 71
3
 72
8
 73
4
 74
0
 40
0
 40
0
 40
0
 40
0
 40
1
 40
1
 40
1
 40
1
 10
38.672721
 20
41.677679
 30
0.0
 10
38.653428
 20
41.865093
 30
0.0
 10
38.620355
 20
42.002897
 30
0.0
 10
38.573502
 20
42.091092
 30
0.0
  0
SPLINE
  5
154
100
AcDbEntity
  8
Layer_1
 62
7
100
AcDbSpline
 70
8
 71
3
 72
8
 73
4
 74
0
 40
0
 40
0
 40
0
 40
0
 40
1
 40
1
 40
1
 40
1
 10
38.573502
 20
42.091092
 30
0.0
 10
38.518380
 20
42.193066
 30
0.0
 10
38.437076
 20
42.267480
 30
0.0
 10
38.329589
 20
42.314332
 30
0.0
  0
SPLINE
  5
155
100
AcDbEntity
  8
Layer_1
 62
7
100
AcDbSpline
 70
8
 71
3
 72
8
 73
4
 74
0
 40
0
 40
0
 40
0
 40
0
 40
1
 40
1
 40
1
 40
1
 10
38.329589
 20
42.314332
 30
0.0
 10
38.224858
 20
42.361185
 30
0.0
 10
38.077408
 20
42.384611
 30
0.0
 10
37.887239
 20
42.384611
 30
0.0
  0
SPLINE
  5
156
100
AcDbEntity
  8
Layer_1
 62
7
100
AcDbSpline
 70
8
 71
3
 72
8
 73
4
 74
0
 40
0
 40
0
 40
0
 40
0
 40
1
 40
1
 40
1
 40
1
 10
37.887239
 20
42.384611
 30
0.0
 10
37.752191
 20
42.384611
 30
0.0
 10
37.614387
 20
42.362563
 30
0.0
 10
37.473827
 20
42.318467
 30
0.0
  0
SPLINE
  5
157
100
AcDbEntity
  8
Layer_1
 62
7
100
AcDbSpline
 70
8
 71
3
 72
8
 73
4
 74
0
 40
0
 40
0
 40
0
 40
0
 40
1
 40
1
 40
1
 40
1
 10
37.473827
 20
42.318467
 30
0.0
 10
37.336024
 20
42.274369
 30
0.0
 10
37.185817
 20
42.204089
 30
0.0
 10
37.023209
 20
42.107627
 30
0.0
  0
LINE
  5
158
100
AcDbEntity
  8
Layer_1
 62
7
100
AcDbLine
 10
37.023209
 20
42.107627
 30
0.0
 11
37.023209
 21
38.816871
 31
0.0
  0
LINE
  5
159
100
AcDbEntity
  8
Layer_1
 62
7
100
AcDbLine
 10
37.023209
 20
38.816871
 30
0.0
 11
35.534927
 21
38.816871
 31
0.0
  0
LINE
  5
15a
100
AcDbEntity
  8
Layer_1
 62
7
100
AcDbLine
 10
35.534927
 20
38.816871
 30
0.0
 11
35.534927
 21
43.459483
 31
0.0
  0
LINE
  5
15b
100
AcDbEntity
  8
Layer_1
 62
7
100
AcDbLine
 10
35.534927
 20
43.459483
 30
0.0
 11
37.023209
 21
43.459483
 31
0.0
  0
LINE
  5
15c
100
AcDbEntity
  8
Layer_1
 62
7
100
AcDbLine
 10
37.023209
 20
43.459483
 30
0.0
 11
37.023209
 21
42.946852
 31
0.0
  0
SPLINE
  5
15d
100
AcDbEntity
  8
Layer_1
 62
7
100
AcDbSpline
 70
8
 71
3
 72
8
 73
4
 74
0
 40
0
 40
0
 40
0
 40
0
 40
1
 40
1
 40
1
 40
1
 10
37.023209
 20
42.946852
 30
0.0
 10
37.287792
 20
43.153559
 30
0.0
 10
37.541351
 20
43.312033
 30
0.0
 10
37.783886
 20
43.422275
 30
0.0
  0
SPLINE
  5
15e
100
AcDbEntity
  8
Layer_1
 62
7
100
AcDbSpline
 70
8
 71
3
 72
8
 73
4
 74
0
 40
0
 40
0
 40
0
 40
0
 40
1
 40
1
 40
1
 40
1
 10
37.783886
 20
43.422275
 30
0.0
 10
38.029177
 20
43.532518
 30
0.0
 10
38.300650
 20
43.587640
 30
0.0
 10
38.598307
 20
43.587640
 30
0.0
  0
SPLINE
  5
15f
100
AcDbEntity
  8
Layer_1
 62
7
100
AcDbSpline
 70
8
 71
3
 72
8
 73
4
 74
0
 40
0
 40
0
 40
0
 40
0
 40
1
 40
1
 40
1
 40
1
 10
38.598307
 20
43.587640
 30
0.0
 10
39.099912
 20
43.587640
 30
0.0
 10
39.491275
 20
43.441568
 30
0.0
 10
39.772395
 20
43.149425
 30
0.0
  0
SPLINE
  5
160
100
AcDbEntity
  8
Layer_1
 62
7
100
AcDbSpline
 70
8
 71
3
 72
8
 73
4
 74
0
 40
0
 40
0
 40
0
 40
0
 40
1
 40
1
 40
1
 40
1
 10
39.772395
 20
43.149425
 30
0.0
 10
40.056271
 20
42.857280
 30
0.0
 10
40.198209
 20
42.420441
 30
0.0
 10
40.198209
 20
41.838909
 30
0.0
  0
LINE
  5
161
100
AcDbEntity
  8
Layer_1
 62
7
100
AcDbLine
 10
40.198209
 20
41.838909
 30
0.0
 11
40.198209
 21
38.816871
 31
0.0
  0
LINE
  5
162
100
AcDbEntity
  8
Layer_1
 62
7
100
AcDbLine
 10
40.198209
 20
38.816871
 30
0.0
 11
40.198209
 21
38.816871
 31
0.0
  0
LINE
  5
163
100
AcDbEntity
  8
Layer_1
 62
7
100
AcDbLine
 10
32.727864
 20
27.810196
 30
0.0
 11
31.148632
 21
27.810196
 31
0.0
  0
LINE
  5
164
100
AcDbEntity
  8
Layer_1
 62
7
100
AcDbLine
 10
31.148632
 20
27.810196
 30
0.0
 11
31.148632
 21
31.931910
 31
0.0
  0
LINE
  5
165
100
AcDbEntity
  8
Layer_1
 62
7
100
AcDbLine
 10
31.148632
 20
31.931910
 30
0.0
 11
30.007616
 21
29.257149
 31
0.0
  0
LINE
  5
166
100
AcDbEntity
  8
Layer_1
 62
7
100
AcDbLine
 10
30.007616
 20
29.257149
 30
0.0
 11
28.912076
 21
29.257149
 31
0.0
  0
LINE
  5
167
100
AcDbEntity
  8
Layer_1
 62
7
100
AcDbLine
 10
28.912076
 20
29.257149
 30
0.0
 11
27.771060
 21
31.931910
 31
0.0
  0
LINE
  5
168
100
AcDbEntity
  8
Layer_1
 62
7
100
AcDbLine
 10
27.771060
 20
31.931910
 30
0.0
 11
27.771060
 21
27.810196
 31
0.0
  0
LINE
  5
169
100
AcDbEntity
  8
Layer_1
 62
7
100
AcDbLine
 10
27.771060
 20
27.810196
 30
0.0
 11
26.274511
 21
27.810196
 31
0.0
  0
LINE
  5
16a
100
AcDbEntity
  8
Layer_1
 62
7
100
AcDbLine
 10
26.274511
 20
27.810196
 30
0.0
 11
26.274511
 21
33.965914
 31
0.0
  0
LINE
  5
16b
100
AcDbEntity
  8
Layer_1
 62
7
100
AcDbLine
 10
26.274511
 20
33.965914
 30
0.0
 11
28.118326
 21
33.965914
 31
0.0
  0
LINE
  5
16c
100
AcDbEntity
  8
Layer_1
 62
7
100
AcDbLine
 10
28.118326
 20
33.965914
 30
0.0
 11
29.503254
 21
30.877726
 31
0.0
  0
LINE
  5
16d
100
AcDbEntity
  8
Layer_1
 62
7
100
AcDbLine
 10
29.503254
 20
30.877726
 30
0.0
 11
30.884049
 21
33.965914
 31
0.0
  0
LINE
  5
16e
100
AcDbEntity
  8
Layer_1
 62
7
100
AcDbLine
 10
30.884049
 20
33.965914
 30
0.0
 11
32.727864
 21
33.965914
 31
0.0
  0
LINE
  5
16f
100
AcDbEntity
  8
Layer_1
 62
7
100
AcDbLine
 10
32.727864
 20
33.965914
 30
0.0
 11
32.727864
 21
27.810196
 31
0.0
  0
LINE
  5
170
100
AcDbEntity
  8
Layer_1
 62
7
100
AcDbLine
 10
32.727864
 20
27.810196
 30
0.0
 11
32.727864
 21
27.810196
 31
0.0
  0
SPLINE
  5
171
100
AcDbEntity
  8
Layer_1
 62
7
100
AcDbSpline
 70
8
 71
3
 72
8
 73
4
 74
0
 40
0
 40
0
 40
0
 40
0
 40
1
 40
1
 40
1
 40
1
 10
38.957974
 20
30.129442
 30
0.0
 10
38.957974
 20
29.366012
 30
0.0
 10
38.734732
 20
28.763806
 30
0.0
 10
38.288248
 20
28.322824
 30
0.0
  0
SPLINE
  5
172
100
AcDbEntity
  8
Layer_1
 62
7
100
AcDbSpline
 70
8
 71
3
 72
8
 73
4
 74
0
 40
0
 40
0
 40
0
 40
0
 40
1
 40
1
 40
1
 40
1
 10
38.288248
 20
28.322824
 30
0.0
 10
37.844519
 20
27.884608
 30
0.0
 10
37.220268
 20
27.665500
 30
0.0
 10
36.415494
 20
27.665500
 30
0.0
  0
SPLINE
  5
173
100
AcDbEntity
  8
Layer_1
 62
7
100
AcDbSpline
 70
8
 71
3
 72
8
 73
4
 74
0
 40
0
 40
0
 40
0
 40
0
 40
1
 40
1
 40
1
 40
1
 10
36.415494
 20
27.665500
 30
0.0
 10
35.610720
 20
27.665500
 30
0.0
 10
34.985090
 20
27.884608
 30
0.0
 10
34.538606
 20
28.322824
 30
0.0
  0
SPLINE
  5
174
100
AcDbEntity
  8
Layer_1
 62
7
100
AcDbSpline
 70
8
 71
3
 72
8
 73
4
 74
0
 40
0
 40
0
 40
0
 40
0
 40
1
 40
1
 40
1
 40
1
 10
34.538606
 20
28.322824
 30
0.0
 10
34.094878
 20
28.763806
 30
0.0
 10
33.873014
 20
29.366012
 30
0.0
 10
33.873014
 20
30.129442
 30
0.0
  0
SPLINE
  5
175
100
AcDbEntity
  8
Layer_1
 62
7
100
AcDbSpline
 70
8
 71
3
 72
8
 73
4
 74
0
 40
0
 40
0
 40
0
 40
0
 40
1
 40
1
 40
1
 40
1
 10
33.873014
 20
30.129442
 30
0.0
 10
33.873014
 20
30.898384
 30
0.0
 10
34.096256
 20
31.501963
 30
0.0
 10
34.542740
 20
31.940179
 30
0.0
  0
SPLINE
  5
176
100
AcDbEntity
  8
Layer_1
 62
7
100
AcDbSpline
 70
8
 71
3
 72
8
 73
4
 74
0
 40
0
 40
0
 40
0
 40
0
 40
1
 40
1
 40
1
 40
1
 10
34.542740
 20
31.940179
 30
0.0
 10
34.991980
 20
32.378395
 30
0.0
 10
35.616232
 20
32.597503
 30
0.0
 10
36.415494
 20
32.597503
 30
0.0
  0
SPLINE
  5
177
100
AcDbEntity
  8
Layer_1
 62
7
100
AcDbSpline
 70
8
 71
3
 72
8
 73
4
 74
0
 40
0
 40
0
 40
0
 40
0
 40
1
 40
1
 40
1
 40
1
 10
36.415494
 20
32.597503
 30
0.0
 10
37.225780
 20
32.597503
 30
0.0
 10
37.851410
 20
32.377022
 30
0.0
 10
38.292382
 20
31.936059
 30
0.0
  0
SPLINE
  5
178
100
AcDbEntity
  8
Layer_1
 62
7
100
AcDbSpline
 70
8
 71
3
 72
8
 73
4
 74
0
 40
0
 40
0
 40
0
 40
0
 40
1
 40
1
 40
1
 40
1
 10
38.292382
 20
31.936059
 30
0.0
 10
38.736110
 20
31.495077
 30
0.0
 10
38.957974
 20
30.892871
 30
0.0
 10
38.957974
 20
30.129442
 30
0.0
  0
LINE
  5
179
100
AcDbEntity
  8
Layer_1
 62
7
100
AcDbLine
 10
38.957974
 20
30.129442
 30
0.0
 11
38.957974
 21
30.129442
 31
0.0
  0
SPLINE
  5
17a
100
AcDbEntity
  8
Layer_1
 62
7
100
AcDbSpline
 70
8
 71
3
 72
8
 73
4
 74
0
 40
0
 40
0
 40
0
 40
0
 40
1
 40
1
 40
1
 40
1
 10
37.126562
 20
29.000835
 30
0.0
 10
37.223024
 20
29.119349
 30
0.0
 10
37.294682
 20
29.261288
 30
0.0
 10
37.341536
 20
29.426652
 30
0.0
  0
SPLINE
  5
17b
100
AcDbEntity
  8
Layer_1
 62
7
100
AcDbSpline
 70
8
 71
3
 72
8
 73
4
 74
0
 40
0
 40
0
 40
0
 40
0
 40
1
 40
1
 40
1
 40
1
 10
37.341536
 20
29.426652
 30
0.0
 10
37.391145
 20
29.594762
 30
0.0
 10
37.415950
 20
29.826269
 30
0.0
 10
37.415950
 20
30.121172
 30
0.0
  0
SPLINE
  5
17c
100
AcDbEntity
  8
Layer_1
 62
7
100
AcDbSpline
 70
8
 71
3
 72
8
 73
4
 74
0
 40
0
 40
0
 40
0
 40
0
 40
1
 40
1
 40
1
 40
1
 10
37.415950
 20
30.121172
 30
0.0
 10
37.415950
 20
30.394025
 30
0.0
 10
37.391145
 20
30.622785
 30
0.0
 10
37.341536
 20
30.807452
 30
0.0
  0
SPLINE
  5
17d
100
AcDbEntity
  8
Layer_1
 62
7
100
AcDbSpline
 70
8
 71
3
 72
8
 73
4
 74
0
 40
0
 40
0
 40
0
 40
0
 40
1
 40
1
 40
1
 40
1
 10
37.341536
 20
30.807452
 30
0.0
 10
37.291926
 20
30.992101
 30
0.0
 10
37.223024
 20
31.139543
 30
0.0
 10
37.134830
 20
31.249779
 30
0.0
  0
SPLINE
  5
17e
100
AcDbEntity
  8
Layer_1
 62
7
100
AcDbSpline
 70
8
 71
3
 72
8
 73
4
 74
0
 40
0
 40
0
 40
0
 40
0
 40
1
 40
1
 40
1
 40
1
 10
37.134830
 20
31.249779
 30
0.0
 10
37.046635
 20
31.362781
 30
0.0
 10
36.940527
 20
31.442706
 30
0.0
 10
36.816503
 20
31.489555
 30
0.0
  0
SPLINE
  5
17f
100
AcDbEntity
  8
Layer_1
 62
7
100
AcDbSpline
 70
8
 71
3
 72
8
 73
4
 74
0
 40
0
 40
0
 40
0
 40
0
 40
1
 40
1
 40
1
 40
1
 10
36.816503
 20
31.489555
 30
0.0
 10
36.692480
 20
31.536423
 30
0.0
 10
36.558810
 20
31.559857
 30
0.0
 10
36.415494
 20
31.559857
 30
0.0
  0
SPLINE
  5
180
100
AcDbEntity
  8
Layer_1
 62
7
100
AcDbSpline
 70
8
 71
3
 72
8
 73
4
 74
0
 40
0
 40
0
 40
0
 40
0
 40
1
 40
1
 40
1
 40
1
 10
36.415494
 20
31.559857
 30
0.0
 10
36.272178
 20
31.559857
 30
0.0
 10
36.144020
 20
31.540562
 30
0.0
 10
36.031021
 20
31.501973
 30
0.0
  0
SPLINE
  5
181
100
AcDbEntity
  8
Layer_1
 62
7
100
AcDbSpline
 70
8
 71
3
 72
8
 73
4
 74
0
 40
0
 40
0
 40
0
 40
0
 40
1
 40
1
 40
1
 40
1
 10
36.031021
 20
31.501973
 30
0.0
 10
35.920778
 20
31.463384
 30
0.0
 10
35.814669
 20
31.386215
 30
0.0
 10
35.712694
 20
31.270466
 30
0.0
  0
SPLINE
  5
182
100
AcDbEntity
  8
Layer_1
 62
7
100
AcDbSpline
 70
8
 71
3
 72
8
 73
4
 74
0
 40
0
 40
0
 40
0
 40
0
 40
1
 40
1
 40
1
 40
1
 10
35.712694
 20
31.270466
 30
0.0
 10
35.621744
 20
31.162977
 30
0.0
 10
35.548708
 20
31.015525
 30
0.0
 10
35.493586
 20
30.828111
 30
0.0
  0
SPLINE
  5
183
100
AcDbEntity
  8
Layer_1
 62
7
100
AcDbSpline
 70
8
 71
3
 72
8
 73
4
 74
0
 40
0
 40
0
 40
0
 40
0
 40
1
 40
1
 40
1
 40
1
 10
35.493586
 20
30.828111
 30
0.0
 10
35.441221
 20
30.640697
 30
0.0
 10
35.415038
 20
30.405050
 30
0.0
 10
35.415038
 20
30.121172
 30
0.0
  0
SPLINE
  5
184
100
AcDbEntity
  8
Layer_1
 62
7
100
AcDbSpline
 70
8
 71
3
 72
8
 73
4
 74
0
 40
0
 40
0
 40
0
 40
0
 40
1
 40
1
 40
1
 40
1
 10
35.415038
 20
30.121172
 30
0.0
 10
35.415038
 20
29.867624
 30
0.0
 10
35.438465
 20
29.647143
 30
0.0
 10
35.485318
 20
29.459728
 30
0.0
  0
SPLINE
  5
185
100
AcDbEntity
  8
Layer_1
 62
7
100
AcDbSpline
 70
8
 71
3
 72
8
 73
4
 74
0
 40
0
 40
0
 40
0
 40
0
 40
1
 40
1
 40
1
 40
1
 10
35.485318
 20
29.459728
 30
0.0
 10
35.532171
 20
29.275061
 30
0.0
 10
35.601073
 20
29.126226
 30
0.0
 10
35.692024
 20
29.013224
 30
0.0
  0
SPLINE
  5
186
100
AcDbEntity
  8
Layer_1
 62
7
100
AcDbSpline
 70
8
 71
3
 72
8
 73
4
 74
0
 40
0
 40
0
 40
0
 40
0
 40
1
 40
1
 40
1
 40
1
 10
35.692024
 20
29.013224
 30
0.0
 10
35.780218
 20
28.905735
 30
0.0
 10
35.884949
 20
28.827193
 30
0.0
 10
36.006216
 20
28.777597
 30
0.0
  0
SPLINE
  5
187
100
AcDbEntity
  8
Layer_1
 62
7
100
AcDbSpline
 70
8
 71
3
 72
8
 73
4
 74
0
 40
0
 40
0
 40
0
 40
0
 40
1
 40
1
 40
1
 40
1
 10
36.006216
 20
28.777597
 30
0.0
 10
36.130240
 20
28.727982
 30
0.0
 10
36.270800
 20
28.703175
 30
0.0
 10
36.427896
 20
28.703175
 30
0.0
  0
SPLINE
  5
188
100
AcDbEntity
  8
Layer_1
 62
7
100
AcDbSpline
 70
8
 71
3
 72
8
 73
4
 74
0
 40
0
 40
0
 40
0
 40
0
 40
1
 40
1
 40
1
 40
1
 10
36.427896
 20
28.703175
 30
0.0
 10
36.562944
 20
28.703175
 30
0.0
 10
36.691102
 20
28.725226
 30
0.0
 10
36.812369
 20
28.769328
 30
0.0
  0
SPLINE
  5
189
100
AcDbEntity
  8
Layer_1
 62
7
100
AcDbSpline
 70
8
 71
3
 72
8
 73
4
 74
0
 40
0
 40
0
 40
0
 40
0
 40
1
 40
1
 40
1
 40
1
 10
36.812369
 20
28.769328
 30
0.0
 10
36.936392
 20
28.816177
 30
0.0
 10
37.041123
 20
28.893346
 30
0.0
 10
37.126562
 20
29.000835
 30
0.0
  0
LINE
  5
18a
100
AcDbEntity
  8
Layer_1
 62
7
100
AcDbLine
 10
37.126562
 20
29.000835
 30
0.0
 11
37.126562
 21
29.000835
 31
0.0
  0
LINE
  5
18b
100
AcDbEntity
  8
Layer_1
 62
7
100
AcDbLine
 10
44.696125
 20
27.810196
 30
0.0
 11
43.199576
 21
27.810196
 31
0.0
  0
LINE
  5
18c
100
AcDbEntity
  8
Layer_1
 62
7
100
AcDbLine
 10
43.199576
 20
27.810196
 30
0.0
 11
43.199576
 21
30.112903
 31
0.0
  0
SPLINE
  5
18d
100
AcDbEntity
  8
Layer_1
 62
7
100
AcDbSpline
 70
8
 71
3
 72
8
 73
4
 74
0
 40
0
 40
0
 40
0
 40
0
 40
1
 40
1
 40
1
 40
1
 10
43.199576
 20
30.112903
 30
0.0
 10
43.199576
 20
30.300318
 30
0.0
 10
43.189930
 20
30.486359
 30
0.0
 10
43.170637
 20
30.671026
 30
0.0
  0
SPLINE
  5
18e
100
AcDbEntity
  8
Layer_1
 62
7
100
AcDbSpline
 70
8
 71
3
 72
8
 73
4
 74
0
 40
0
 40
0
 40
0
 40
0
 40
1
 40
1
 40
1
 40
1
 10
43.170637
 20
30.671026
 30
0.0
 10
43.151345
 20
30.858422
 30
0.0
 10
43.118272
 20
30.996221
 30
0.0
 10
43.071418
 20
31.084425
 30
0.0
  0
SPLINE
  5
18f
100
AcDbEntity
  8
Layer_1
 62
7
100
AcDbSpline
 70
8
 71
3
 72
8
 73
4
 74
0
 40
0
 40
0
 40
0
 40
0
 40
1
 40
1
 40
1
 40
1
 10
43.071418
 20
31.084425
 30
0.0
 10
43.016297
 20
31.186401
 30
0.0
 10
42.934993
 20
31.260814
 30
0.0
 10
42.827506
 20
31.307663
 30
0.0
  0
SPLINE
  5
190
100
AcDbEntity
  8
Layer_1
 62
7
100
AcDbSpline
 70
8
 71
3
 72
8
 73
4
 74
0
 40
0
 40
0
 40
0
 40
0
 40
1
 40
1
 40
1
 40
1
 10
42.827506
 20
31.307663
 30
0.0
 10
42.722775
 20
31.354512
 30
0.0
 10
42.575325
 20
31.377936
 30
0.0
 10
42.385155
 20
31.377936
 30
0.0
  0
SPLINE
  5
191
100
AcDbEntity
  8
Layer_1
 62
7
100
AcDbSpline
 70
8
 71
3
 72
8
 73
4
 74
0
 40
0
 40
0
 40
0
 40
0
 40
1
 40
1
 40
1
 40
1
 10
42.385155
 20
31.377936
 30
0.0
 10
42.250108
 20
31.377936
 30
0.0
 10
42.112304
 20
31.355895
 30
0.0
 10
41.971744
 20
31.311812
 30
0.0
  0
SPLINE
  5
192
100
AcDbEntity
  8
Layer_1
 62
7
100
AcDbSpline
 70
8
 71
3
 72
8
 73
4
 74
0
 40
0
 40
0
 40
0
 40
0
 40
1
 40
1
 40
1
 40
1
 10
41.971744
 20
31.311812
 30
0.0
 10
41.833940
 20
31.267710
 30
0.0
 10
41.683734
 20
31.197427
 30
0.0
 10
41.521125
 20
31.100963
 30
0.0
  0
LINE
  5
193
100
AcDbEntity
  8
Layer_1
 62
7
100
AcDbLine
 10
41.521125
 20
31.100963
 30
0.0
 11
41.521125
 21
27.810196
 31
0.0
  0
LINE
  5
194
100
AcDbEntity
  8
Layer_1
 62
7
100
AcDbLine
 10
41.521125
 20
27.810196
 30
0.0
 11
40.032844
 21
27.810196
 31
0.0
  0
LINE
  5
195
100
AcDbEntity
  8
Layer_1
 62
7
100
AcDbLine
 10
40.032844
 20
27.810196
 30
0.0
 11
40.032844
 21
32.452808
 31
0.0
  0
LINE
  5
196
100
AcDbEntity
  8
Layer_1
 62
7
100
AcDbLine
 10
40.032844
 20
32.452808
 30
0.0
 11
41.521125
 21
32.452808
 31
0.0
  0
LINE
  5
197
100
AcDbEntity
  8
Layer_1
 62
7
100
AcDbLine
 10
41.521125
 20
32.452808
 30
0.0
 11
41.521125
 21
31.940179
 31
0.0
  0
SPLINE
  5
198
100
AcDbEntity
  8
Layer_1
 62
7
100
AcDbSpline
 70
8
 71
3
 72
8
 73
4
 74
0
 40
0
 40
0
 40
0
 40
0
 40
1
 40
1
 40
1
 40
1
 10
41.521125
 20
31.940179
 30
0.0
 10
41.785709
 20
32.146898
 30
0.0
 10
42.039268
 20
32.305375
 30
0.0
 10
42.281802
 20
32.415611
 30
0.0
  0
SPLINE
  5
199
100
AcDbEntity
  8
Layer_1
 62
7
100
AcDbSpline
 70
8
 71
3
 72
8
 73
4
 74
0
 40
0
 40
0
 40
0
 40
0
 40
1
 40
1
 40
1
 40
1
 10
42.281802
 20
32.415611
 30
0.0
 10
42.527093
 20
32.525847
 30
0.0
 10
42.798567
 20
32.580965
 30
0.0
 10
43.096223
 20
32.580965
 30
0.0
  0
SPLINE
  5
19a
100
AcDbEntity
  8
Layer_1
 62
7
100
AcDbSpline
 70
8
 71
3
 72
8
 73
4
 74
0
 40
0
 40
0
 40
0
 40
0
 40
1
 40
1
 40
1
 40
1
 10
43.096223
 20
32.580965
 30
0.0
 10
43.597829
 20
32.580965
 30
0.0
 10
43.989192
 20
32.434896
 30
0.0
 10
44.270312
 20
32.142758
 30
0.0
  0
SPLINE
  5
19b
100
AcDbEntity
  8
Layer_1
 62
7
100
AcDbSpline
 70
8
 71
3
 72
8
 73
4
 74
0
 40
0
 40
0
 40
0
 40
0
 40
1
 40
1
 40
1
 40
1
 10
44.270312
 20
32.142758
 30
0.0
 10
44.554188
 20
31.850621
 30
0.0
 10
44.696125
 20
31.413778
 30
0.0
 10
44.696125
 20
30.832231
 30
0.0
  0
LINE
  5
19c
100
AcDbEntity
  8
Layer_1
 62
7
100
AcDbLine
 10
44.696125
 20
30.832231
 30
0.0
 11
44.696125
 21
27.810196
 31
0.0
  0
LINE
  5
19d
100
AcDbEntity
  8
Layer_1
 62
7
100
AcDbLine
 10
44.696125
 20
27.810196
 30
0.0
 11
44.696125
 21
27.810196
 31
0.0
  0
LINE
  5
19e
100
AcDbEntity
  8
Layer_1
 62
7
100
AcDbLine
 10
47.556933
 20
27.810196
 30
0.0
 11
46.068651
 21
27.810196
 31
0.0
  0
LINE
  5
19f
100
AcDbEntity
  8
Layer_1
 62
7
100
AcDbLine
 10
46.068651
 20
27.810196
 30
0.0
 11
46.068651
 21
32.452808
 31
0.0
  0
LINE
  5
1a0
100
AcDbEntity
  8
Layer_1
 62
7
100
AcDbLine
 10
46.068651
 20
32.452808
 30
0.0
 11
47.556933
 21
32.452808
 31
0.0
  0
LINE
  5
1a1
100
AcDbEntity
  8
Layer_1
 62
7
100
AcDbLine
 10
47.556933
 20
32.452808
 30
0.0
 11
47.556933
 21
27.810196
 31
0.0
  0
LINE
  5
1a2
100
AcDbEntity
  8
Layer_1
 62
7
100
AcDbLine
 10
47.556933
 20
27.810196
 30
0.0
 11
47.556933
 21
27.810196
 31
0.0
  0
LINE
  5
1a3
100
AcDbEntity
  8
Layer_1
 62
7
100
AcDbLine
 10
47.598274
 20
33.114280
 30
0.0
 11
46.027310
 21
33.114280
 31
0.0
  0
LINE
  5
1a4
100
AcDbEntity
  8
Layer_1
 62
7
100
AcDbLine
 10
46.027310
 20
33.114280
 30
0.0
 11
46.027310
 21
34.242887
 31
0.0
  0
LINE
  5
1a5
100
AcDbEntity
  8
Layer_1
 62
7
100
AcDbLine
 10
46.027310
 20
34.242887
 30
0.0
 11
47.598274
 21
34.242887
 31
0.0
  0
LINE
  5
1a6
100
AcDbEntity
  8
Layer_1
 62
7
100
AcDbLine
 10
47.598274
 20
34.242887
 30
0.0
 11
47.598274
 21
33.114280
 31
0.0
  0
LINE
  5
1a7
100
AcDbEntity
  8
Layer_1
 62
7
100
AcDbLine
 10
47.598274
 20
33.114280
 30
0.0
 11
47.598274
 21
33.114280
 31
0.0
  0
SPLINE
  5
1a8
100
AcDbEntity
  8
Layer_1
 62
7
100
AcDbSpline
 70
8
 71
3
 72
8
 73
4
 74
0
 40
0
 40
0
 40
0
 40
0
 40
1
 40
1
 40
1
 40
1
 10
51.930826
 20
27.851541
 30
0.0
 10
51.770973
 20
27.810205
 30
0.0
 10
51.601474
 20
27.778512
 30
0.0
 10
51.422329
 20
27.756461
 30
0.0
  0
SPLINE
  5
1a9
100
AcDbEntity
  8
Layer_1
 62
7
100
AcDbSpline
 70
8
 71
3
 72
8
 73
4
 74
0
 40
0
 40
0
 40
0
 40
0
 40
1
 40
1
 40
1
 40
1
 10
51.422329
 20
27.756461
 30
0.0
 10
51.243184
 20
27.731663
 30
0.0
 10
51.024076
 20
27.719264
 30
0.0
 10
50.765005
 20
27.719264
 30
0.0
  0
SPLINE
  5
1aa
100
AcDbEntity
  8
Layer_1
 62
7
100
AcDbSpline
 70
8
 71
3
 72
8
 73
4
 74
0
 40
0
 40
0
 40
0
 40
0
 40
1
 40
1
 40
1
 40
1
 10
50.765005
 20
27.719264
 30
0.0
 10
50.186229
 20
27.719264
 30
0.0
 10
49.754904
 20
27.836395
 30
0.0
 10
49.471028
 20
28.070659
 30
0.0
  0
SPLINE
  5
1ab
100
AcDbEntity
  8
Layer_1
 62
7
100
AcDbSpline
 70
8
 71
3
 72
8
 73
4
 74
0
 40
0
 40
0
 40
0
 40
0
 40
1
 40
1
 40
1
 40
1
 10
49.471028
 20
28.070659
 30
0.0
 10
49.189908
 20
28.304922
 30
0.0
 10
49.049348
 20
28.705931
 30
0.0
 10
49.049348
 20
29.273687
 30
0.0
  0
LINE
  5
1ac
100
AcDbEntity
  8
Layer_1
 62
7
100
AcDbLine
 10
49.049348
 20
29.273687
 30
0.0
 11
49.049348
 21
31.444089
 31
0.0
  0
LINE
  5
1ad
100
AcDbEntity
  8
Layer_1
 62
7
100
AcDbLine
 10
49.049348
 20
31.444089
 30
0.0
 11
48.437499
 21
31.444089
 31
0.0
  0
LINE
  5
1ae
100
AcDbEntity
  8
Layer_1
 62
7
100
AcDbLine
 10
48.437499
 20
31.444089
 30
0.0
 11
48.437499
 21
32.452808
 31
0.0
  0
LINE
  5
1af
100
AcDbEntity
  8
Layer_1
 62
7
100
AcDbLine
 10
48.437499
 20
32.452808
 30
0.0
 11
49.049348
 21
32.452808
 31
0.0
  0
LINE
  5
1b0
100
AcDbEntity
  8
Layer_1
 62
7
100
AcDbLine
 10
49.049348
 20
32.452808
 30
0.0
 11
49.049348
 21
33.779873
 31
0.0
  0
LINE
  5
1b1
100
AcDbEntity
  8
Layer_1
 62
7
100
AcDbLine
 10
49.049348
 20
33.779873
 30
0.0
 11
50.537630
 21
33.779873
 31
0.0
  0
LINE
  5
1b2
100
AcDbEntity
  8
Layer_1
 62
7
100
AcDbLine
 10
50.537630
 20
33.779873
 30
0.0
 11
50.537630
 21
32.452808
 31
0.0
  0
LINE
  5
1b3
100
AcDbEntity
  8
Layer_1
 62
7
100
AcDbLine
 10
50.537630
 20
32.452808
 30
0.0
 11
51.930826
 21
32.452808
 31
0.0
  0
LINE
  5
1b4
100
AcDbEntity
  8
Layer_1
 62
7
100
AcDbLine
 10
51.930826
 20
32.452808
 30
0.0
 11
51.930826
 21
31.444089
 31
0.0
  0
LINE
  5
1b5
100
AcDbEntity
  8
Layer_1
 62
7
100
AcDbLine
 10
51.930826
 20
31.444089
 30
0.0
 11
50.537630
 21
31.444089
 31
0.0
  0
LINE
  5
1b6
100
AcDbEntity
  8
Layer_1
 62
7
100
AcDbLine
 10
50.537630
 20
31.444089
 30
0.0
 11
50.537630
 21
29.798705
 31
0.0
  0
SPLINE
  5
1b7
100
AcDbEntity
  8
Layer_1
 62
7
100
AcDbSpline
 70
8
 71
3
 72
8
 73
4
 74
0
 40
0
 40
0
 40
0
 40
0
 40
1
 40
1
 40
1
 40
1
 10
50.537630
 20
29.798705
 30
0.0
 10
50.537630
 20
29.636108
 30
0.0
 10
50.539013
 20
29.494169
 30
0.0
 10
50.541779
 20
29.372888
 30
0.0
  0
SPLINE
  5
1b8
100
AcDbEntity
  8
Layer_1
 62
7
100
AcDbSpline
 70
8
 71
3
 72
8
 73
4
 74
0
 40
0
 40
0
 40
0
 40
0
 40
1
 40
1
 40
1
 40
1
 10
50.541779
 20
29.372888
 30
0.0
 10
50.544526
 20
29.251627
 30
0.0
 10
50.566574
 20
29.142764
 30
0.0
 10
50.607923
 20
29.046301
 30
0.0
  0
SPLINE
  5
1b9
100
AcDbEntity
  8
Layer_1
 62
7
100
AcDbSpline
 70
8
 71
3
 72
8
 73
4
 74
0
 40
0
 40
0
 40
0
 40
0
 40
1
 40
1
 40
1
 40
1
 10
50.607923
 20
29.046301
 30
0.0
 10
50.646509
 20
28.949837
 30
0.0
 10
50.714032
 20
28.872668
 30
0.0
 10
50.810494
 20
28.814794
 30
0.0
  0
SPLINE
  5
1ba
100
AcDbEntity
  8
Layer_1
 62
7
100
AcDbSpline
 70
8
 71
3
 72
8
 73
4
 74
0
 40
0
 40
0
 40
0
 40
0
 40
1
 40
1
 40
1
 40
1
 10
50.810494
 20
28.814794
 30
0.0
 10
50.909714
 20
28.759667
 30
0.0
 10
51.053030
 20
28.732103
 30
0.0
 10
51.240442
 20
28.732103
 30
0.0
  0
SPLINE
  5
1bb
100
AcDbEntity
  8
Layer_1
 62
7
100
AcDbSpline
 70
8
 71
3
 72
8
 73
4
 74
0
 40
0
 40
0
 40
0
 40
0
 40
1
 40
1
 40
1
 40
1
 10
51.240442
 20
28.732103
 30
0.0
 10
51.317613
 20
28.732103
 30
0.0
 10
51.418211
 20
28.748641
 30
0.0
 10
51.542234
 20
28.781718
 30
0.0
  0
SPLINE
  5
1bc
100
AcDbEntity
  8
Layer_1
 62
7
100
AcDbSpline
 70
8
 71
3
 72
8
 73
4
 74
0
 40
0
 40
0
 40
0
 40
0
 40
1
 40
1
 40
1
 40
1
 10
51.542234
 20
28.781718
 30
0.0
 10
51.669014
 20
28.814794
 30
0.0
 10
51.757208
 20
28.845114
 30
0.0
 10
51.806817
 20
28.872678
 30
0.0
  0
LINE
  5
1bd
100
AcDbEntity
  8
Layer_1
 62
7
100
AcDbLine
 10
51.806817
 20
28.872678
 30
0.0
 11
51.930840
 21
28.872678
 31
0.0
  0
LINE
  5
1be
100
AcDbEntity
  8
Layer_1
 62
7
100
AcDbLine
 10
51.930840
 20
28.872678
 30
0.0
 11
51.930840
 21
27.851541
 31
0.0
  0
LINE
  5
1bf
100
AcDbEntity
  8
Layer_1
 62
7
100
AcDbLine
 10
51.930840
 20
27.851541
 30
0.0
 11
51.930826
 21
27.851541
 31
0.0
  0
SPLINE
  5
1c0
100
AcDbEntity
  8
Layer_1
 62
7
100
AcDbSpline
 70
8
 71
3
 72
8
 73
4
 74
0
 40
0
 40
0
 40
0
 40
0
 40
1
 40
1
 40
1
 40
1
 10
57.561489
 20
30.129442
 30
0.0
 10
57.561489
 20
29.366012
 30
0.0
 10
57.338248
 20
28.763806
 30
0.0
 10
56.891765
 20
28.322824
 30
0.0
  0
SPLINE
  5
1c1
100
AcDbEntity
  8
Layer_1
 62
7
100
AcDbSpline
 70
8
 71
3
 72
8
 73
4
 74
0
 40
0
 40
0
 40
0
 40
0
 40
1
 40
1
 40
1
 40
1
 10
56.891765
 20
28.322824
 30
0.0
 10
56.448036
 20
27.884608
 30
0.0
 10
55.823784
 20
27.665500
 30
0.0
 10
55.019009
 20
27.665500
 30
0.0
  0
SPLINE
  5
1c2
100
AcDbEntity
  8
Layer_1
 62
7
100
AcDbSpline
 70
8
 71
3
 72
8
 73
4
 74
0
 40
0
 40
0
 40
0
 40
0
 40
1
 40
1
 40
1
 40
1
 10
55.019009
 20
27.665500
 30
0.0
 10
54.214235
 20
27.665500
 30
0.0
 10
53.588606
 20
27.884608
 30
0.0
 10
53.142121
 20
28.322824
 30
0.0
  0
SPLINE
  5
1c3
100
AcDbEntity
  8
Layer_1
 62
7
100
AcDbSpline
 70
8
 71
3
 72
8
 73
4
 74
0
 40
0
 40
0
 40
0
 40
0
 40
1
 40
1
 40
1
 40
1
 10
53.142121
 20
28.322824
 30
0.0
 10
52.698392
 20
28.763806
 30
0.0
 10
52.476528
 20
29.366012
 30
0.0
 10
52.476528
 20
30.129442
 30
0.0
  0
SPLINE
  5
1c4
100
AcDbEntity
  8
Layer_1
 62
7
100
AcDbSpline
 70
8
 71
3
 72
8
 73
4
 74
0
 40
0
 40
0
 40
0
 40
0
 40
1
 40
1
 40
1
 40
1
 10
52.476528
 20
30.129442
 30
0.0
 10
52.476528
 20
30.898384
 30
0.0
 10
52.699770
 20
31.501963
 30
0.0
 10
53.146255
 20
31.940179
 30
0.0
  0
SPLINE
  5
1c5
100
AcDbEntity
  8
Layer_1
 62
7
100
AcDbSpline
 70
8
 71
3
 72
8
 73
4
 74
0
 40
0
 40
0
 40
0
 40
0
 40
1
 40
1
 40
1
 40
1
 10
53.146255
 20
31.940179
 30
0.0
 10
53.595497
 20
32.378395
 30
0.0
 10
54.219748
 20
32.597503
 30
0.0
 10
55.019009
 20
32.597503
 30
0.0
  0
SPLINE
  5
1c6
100
AcDbEntity
  8
Layer_1
 62
7
100
AcDbSpline
 70
8
 71
3
 72
8
 73
4
 74
0
 40
0
 40
0
 40
0
 40
0
 40
1
 40
1
 40
1
 40
1
 10
55.019009
 20
32.597503
 30
0.0
 10
55.829295
 20
32.597503
 30
0.0
 10
56.454924
 20
32.377022
 30
0.0
 10
56.895896
 20
31.936059
 30
0.0
  0
SPLINE
  5
1c7
100
AcDbEntity
  8
Layer_1
 62
7
100
AcDbSpline
 70
8
 71
3
 72
8
 73
4
 74
0
 40
0
 40
0
 40
0
 40
0
 40
1
 40
1
 40
1
 40
1
 10
56.895896
 20
31.936059
 30
0.0
 10
57.339625
 20
31.495077
 30
0.0
 10
57.561489
 20
30.892871
 30
0.0
 10
57.561489
 20
30.129442
 30
0.0
  0
LINE
  5
1c8
100
AcDbEntity
  8
Layer_1
 62
7
100
AcDbLine
 10
57.561489
 20
30.129442
 30
0.0
 11
57.561489
 21
30.129442
 31
0.0
  0
SPLINE
  5
1c9
100
AcDbEntity
  8
Layer_1
 62
7
100
AcDbSpline
 70
8
 71
3
 72
8
 73
4
 74
0
 40
0
 40
0
 40
0
 40
0
 40
1
 40
1
 40
1
 40
1
 10
55.730076
 20
29.000835
 30
0.0
 10
55.826539
 20
29.119349
 30
0.0
 10
55.898198
 20
29.261288
 30
0.0
 10
55.945050
 20
29.426652
 30
0.0
  0
SPLINE
  5
1ca
100
AcDbEntity
  8
Layer_1
 62
7
100
AcDbSpline
 70
8
 71
3
 72
8
 73
4
 74
0
 40
0
 40
0
 40
0
 40
0
 40
1
 40
1
 40
1
 40
1
 10
55.945050
 20
29.426652
 30
0.0
 10
55.994661
 20
29.594762
 30
0.0
 10
56.019467
 20
29.826269
 30
0.0
 10
56.019467
 20
30.121172
 30
0.0
  0
SPLINE
  5
1cb
100
AcDbEntity
  8
Layer_1
 62
7
100
AcDbSpline
 70
8
 71
3
 72
8
 73
4
 74
0
 40
0
 40
0
 40
0
 40
0
 40
1
 40
1
 40
1
 40
1
 10
56.019467
 20
30.121172
 30
0.0
 10
56.019467
 20
30.394025
 30
0.0
 10
55.994661
 20
30.622785
 30
0.0
 10
55.945050
 20
30.807452
 30
0.0
  0
SPLINE
  5
1cc
100
AcDbEntity
  8
Layer_1
 62
7
100
AcDbSpline
 70
8
 71
3
 72
8
 73
4
 74
0
 40
0
 40
0
 40
0
 40
0
 40
1
 40
1
 40
1
 40
1
 10
55.945050
 20
30.807452
 30
0.0
 10
55.895441
 20
30.992101
 30
0.0
 10
55.826539
 20
31.139543
 30
0.0
 10
55.738345
 20
31.249779
 30
0.0
  0
SPLINE
  5
1cd
100
AcDbEntity
  8
Layer_1
 62
7
100
AcDbSpline
 70
8
 71
3
 72
8
 73
4
 74
0
 40
0
 40
0
 40
0
 40
0
 40
1
 40
1
 40
1
 40
1
 10
55.738345
 20
31.249779
 30
0.0
 10
55.650151
 20
31.362781
 30
0.0
 10
55.544042
 20
31.442706
 30
0.0
 10
55.420018
 20
31.489555
 30
0.0
  0
SPLINE
  5
1ce
100
AcDbEntity
  8
Layer_1
 62
7
100
AcDbSpline
 70
8
 71
3
 72
8
 73
4
 74
0
 40
0
 40
0
 40
0
 40
0
 40
1
 40
1
 40
1
 40
1
 10
55.420018
 20
31.489555
 30
0.0
 10
55.295995
 20
31.536423
 30
0.0
 10
55.162325
 20
31.559857
 30
0.0
 10
55.019009
 20
31.559857
 30
0.0
  0
SPLINE
  5
1cf
100
AcDbEntity
  8
Layer_1
 62
7
100
AcDbSpline
 70
8
 71
3
 72
8
 73
4
 74
0
 40
0
 40
0
 40
0
 40
0
 40
1
 40
1
 40
1
 40
1
 10
55.019009
 20
31.559857
 30
0.0
 10
54.875692
 20
31.559857
 30
0.0
 10
54.747535
 20
31.540562
 30
0.0
 10
54.634537
 20
31.501973
 30
0.0
  0
SPLINE
  5
1d0
100
AcDbEntity
  8
Layer_1
 62
7
100
AcDbSpline
 70
8
 71
3
 72
8
 73
4
 74
0
 40
0
 40
0
 40
0
 40
0
 40
1
 40
1
 40
1
 40
1
 10
54.634537
 20
31.501973
 30
0.0
 10
54.524294
 20
31.463384
 30
0.0
 10
54.418185
 20
31.386215
 30
0.0
 10
54.316210
 20
31.270466
 30
0.0
  0
SPLINE
  5
1d1
100
AcDbEntity
  8
Layer_1
 62
7
100
AcDbSpline
 70
8
 71
3
 72
8
 73
4
 74
0
 40
0
 40
0
 40
0
 40
0
 40
1
 40
1
 40
1
 40
1
 10
54.316210
 20
31.270466
 30
0.0
 10
54.225260
 20
31.162977
 30
0.0
 10
54.152223
 20
31.015525
 30
0.0
 10
54.097101
 20
30.828111
 30
0.0
  0
SPLINE
  5
1d2
100
AcDbEntity
  8
Layer_1
 62
7
100
AcDbSpline
 70
8
 71
3
 72
8
 73
4
 74
0
 40
0
 40
0
 40
0
 40
0
 40
1
 40
1
 40
1
 40
1
 10
54.097101
 20
30.828111
 30
0.0
 10
54.044736
 20
30.640697
 30
0.0
 10
54.018553
 20
30.405050
 30
0.0
 10
54.018553
 20
30.121172
 30
0.0
  0
SPLINE
  5
1d3
100
AcDbEntity
  8
Layer_1
 62
7
100
AcDbSpline
 70
8
 71
3
 72
8
 73
4
 74
0
 40
0
 40
0
 40
0
 40
0
 40
1
 40
1
 40
1
 40
1
 10
54.018553
 20
30.121172
 30
0.0
 10
54.018553
 20
29.867624
 30
0.0
 10
54.041980
 20
29.647143
 30
0.0
 10
54.088832
 20
29.459728
 30
0.0
  0
SPLINE
  5
1d4
100
AcDbEntity
  8
Layer_1
 62
7
100
AcDbSpline
 70
8
 71
3
 72
8
 73
4
 74
0
 40
0
 40
0
 40
0
 40
0
 40
1
 40
1
 40
1
 40
1
 10
54.088832
 20
29.459728
 30
0.0
 10
54.135687
 20
29.275061
 30
0.0
 10
54.204590
 20
29.126226
 30
0.0
 10
54.295540
 20
29.013224
 30
0.0
  0
SPLINE
  5
1d5
100
AcDbEntity
  8
Layer_1
 62
7
100
AcDbSpline
 70
8
 71
3
 72
8
 73
4
 74
0
 40
0
 40
0
 40
0
 40
0
 40
1
 40
1
 40
1
 40
1
 10
54.295540
 20
29.013224
 30
0.0
 10
54.383735
 20
28.905735
 30
0.0
 10
54.488466
 20
28.827193
 30
0.0
 10
54.609733
 20
28.777597
 30
0.0
  0
SPLINE
  5
1d6
100
AcDbEntity
  8
Layer_1
 62
7
100
AcDbSpline
 70
8
 71
3
 72
8
 73
4
 74
0
 40
0
 40
0
 40
0
 40
0
 40
1
 40
1
 40
1
 40
1
 10
54.609733
 20
28.777597
 30
0.0
 10
54.733756
 20
28.727982
 30
0.0
 10
54.874316
 20
28.703175
 30
0.0
 10
55.031412
 20
28.703175
 30
0.0
  0
SPLINE
  5
1d7
100
AcDbEntity
  8
Layer_1
 62
7
100
AcDbSpline
 70
8
 71
3
 72
8
 73
4
 74
0
 40
0
 40
0
 40
0
 40
0
 40
1
 40
1
 40
1
 40
1
 10
55.031412
 20
28.703175
 30
0.0
 10
55.166459
 20
28.703175
 30
0.0
 10
55.294616
 20
28.725226
 30
0.0
 10
55.415884
 20
28.769328
 30
0.0
  0
SPLINE
  5
1d8
100
AcDbEntity
  8
Layer_1
 62
7
100
AcDbSpline
 70
8
 71
3
 72
8
 73
4
 74
0
 40
0
 40
0
 40
0
 40
0
 40
1
 40
1
 40
1
 40
1
 10
55.415884
 20
28.769328
 30
0.0
 10
55.539907
 20
28.816177
 30
0.0
 10
55.644638
 20
28.893346
 30
0.0
 10
55.730076
 20
29.000835
 30
0.0
  0
LINE
  5
1d9
100
AcDbEntity
  8
Layer_1
 62
7
100
AcDbLine
 10
55.730076
 20
29.000835
 30
0.0
 11
55.730076
 21
29.000835
 31
0.0
  0
LINE
  5
1da
100
AcDbEntity
  8
Layer_1
 62
7
100
AcDbLine
 10
62.001528
 20
31.034810
 30
0.0
 11
61.869236
 21
31.034810
 31
0.0
  0
SPLINE
  5
1db
100
AcDbEntity
  8
Layer_1
 62
7
100
AcDbSpline
 70
8
 71
3
 72
8
 73
4
 74
0
 40
0
 40
0
 40
0
 40
0
 40
1
 40
1
 40
1
 40
1
 10
61.869236
 20
31.034810
 30
0.0
 10
61.805847
 20
31.056861
 30
0.0
 10
61.703873
 20
31.073400
 30
0.0
 10
61.563313
 20
31.084425
 30
0.0
  0
SPLINE
  5
1dc
100
AcDbEntity
  8
Layer_1
 62
7
100
AcDbSpline
 70
8
 71
3
 72
8
 73
4
 74
0
 40
0
 40
0
 40
0
 40
0
 40
1
 40
1
 40
1
 40
1
 10
61.563313
 20
31.084425
 30
0.0
 10
61.422753
 20
31.095526
 30
0.0
 10
61.305620
 20
31.101076
 30
0.0
 10
61.211912
 20
31.101076
 30
0.0
  0
SPLINE
  5
1dd
100
AcDbEntity
  8
Layer_1
 62
7
100
AcDbSpline
 70
8
 71
3
 72
8
 73
4
 74
0
 40
0
 40
0
 40
0
 40
0
 40
1
 40
1
 40
1
 40
1
 10
61.211912
 20
31.101076
 30
0.0
 10
60.999694
 20
31.101076
 30
0.0
 10
60.812282
 20
31.087294
 30
0.0
 10
60.649675
 20
31.059731
 30
0.0
  0
SPLINE
  5
1de
100
AcDbEntity
  8
Layer_1
 62
7
100
AcDbSpline
 70
8
 71
3
 72
8
 73
4
 74
0
 40
0
 40
0
 40
0
 40
0
 40
1
 40
1
 40
1
 40
1
 10
60.649675
 20
31.059731
 30
0.0
 10
60.487066
 20
31.032167
 30
0.0
 10
60.312054
 20
30.985318
 30
0.0
 10
60.124640
 20
30.919184
 30
0.0
  0
LINE
  5
1df
100
AcDbEntity
  8
Layer_1
 62
7
100
AcDbLine
 10
60.124640
 20
30.919184
 30
0.0
 11
60.124640
 21
27.810309
 31
0.0
  0
LINE
  5
1e0
100
AcDbEntity
  8
Layer_1
 62
7
100
AcDbLine
 10
60.124640
 20
27.810309
 30
0.0
 11
58.636361
 21
27.810309
 31
0.0
  0
LINE
  5
1e1
100
AcDbEntity
  8
Layer_1
 62
7
100
AcDbLine
 10
58.636361
 20
27.810309
 30
0.0
 11
58.636361
 21
32.452921
 31
0.0
  0
LINE
  5
1e2
100
AcDbEntity
  8
Layer_1
 62
7
100
AcDbLine
 10
58.636361
 20
32.452921
 30
0.0
 11
60.124640
 21
32.452921
 31
0.0
  0
LINE
  5
1e3
100
AcDbEntity
  8
Layer_1
 62
7
100
AcDbLine
 10
60.124640
 20
32.452921
 30
0.0
 11
60.124640
 21
31.770790
 31
0.0
  0
SPLINE
  5
1e4
100
AcDbEntity
  8
Layer_1
 62
7
100
AcDbSpline
 70
8
 71
3
 72
8
 73
4
 74
0
 40
0
 40
0
 40
0
 40
0
 40
1
 40
1
 40
1
 40
1
 10
60.124640
 20
31.770790
 30
0.0
 10
60.452614
 20
32.051921
 30
0.0
 10
60.737868
 20
32.237961
 30
0.0
 10
60.980403
 20
32.328912
 30
0.0
  0
SPLINE
  5
1e5
100
AcDbEntity
  8
Layer_1
 62
7
100
AcDbSpline
 70
8
 71
3
 72
8
 73
4
 74
0
 40
0
 40
0
 40
0
 40
0
 40
1
 40
1
 40
1
 40
1
 10
60.980403
 20
32.328912
 30
0.0
 10
61.222937
 20
32.422610
 30
0.0
 10
61.446179
 20
32.469459
 30
0.0
 10
61.650130
 20
32.469459
 30
0.0
  0
SPLINE
  5
1e6
100
AcDbEntity
  8
Layer_1
 62
7
100
AcDbSpline
 70
8
 71
3
 72
8
 73
4
 74
0
 40
0
 40
0
 40
0
 40
0
 40
1
 40
1
 40
1
 40
1
 10
61.650130
 20
32.469459
 30
0.0
 10
61.702496
 20
32.469459
 30
0.0
 10
61.761751
 20
32.468048
 30
0.0
 10
61.827896
 20
32.465226
 30
0.0
  0
SPLINE
  5
1e7
100
AcDbEntity
  8
Layer_1
 62
7
100
AcDbSpline
 70
8
 71
3
 72
8
 73
4
 74
0
 40
0
 40
0
 40
0
 40
0
 40
1
 40
1
 40
1
 40
1
 10
61.827896
 20
32.465226
 30
0.0
 10
61.894042
 20
32.462403
 30
0.0
 10
61.951919
 20
32.458264
 30
0.0
 10
62.001528
 20
32.452808
 30
0.0
  0
LINE
  5
1e8
100
AcDbEntity
  8
Layer_1
 62
7
100
AcDbLine
 10
62.001528
 20
32.452808
 30
0.0
 11
62.001528
 21
31.034810
 31
0.0
  0
LINE
  5
1e9
100
AcDbEntity
  8
Layer_1
 62
7
100
AcDbLine
 10
62.001528
 20
31.034810
 30
0.0
 11
62.001528
 21
31.034810
 31
0.0
  0
LINE
  5
1ea
100
AcDbEntity
  8
Layer_1
 62
7
100
AcDbLine
 10
67.425486
 20
29.856589
 30
0.0
 11
64.018976
 21
29.856589
 31
0.0
  0
SPLINE
  5
1eb
100
AcDbEntity
  8
Layer_1
 62
7
100
AcDbSpline
 70
8
 71
3
 72
8
 73
4
 74
0
 40
0
 40
0
 40
0
 40
0
 40
1
 40
1
 40
1
 40
1
 10
64.018976
 20
29.856589
 30
0.0
 10
64.041026
 20
29.492786
 30
0.0
 10
64.178830
 20
29.214421
 30
0.0
 10
64.432390
 20
29.021494
 30
0.0
  0
SPLINE
  5
1ec
100
AcDbEntity
  8
Layer_1
 62
7
100
AcDbSpline
 70
8
 71
3
 72
8
 73
4
 74
0
 40
0
 40
0
 40
0
 40
0
 40
1
 40
1
 40
1
 40
1
 10
64.432390
 20
29.021494
 30
0.0
 10
64.688704
 20
28.828566
 30
0.0
 10
65.064908
 20
28.732103
 30
0.0
 10
65.561002
 20
28.732103
 30
0.0
  0
SPLINE
  5
1ed
100
AcDbEntity
  8
Layer_1
 62
7
100
AcDbSpline
 70
8
 71
3
 72
8
 73
4
 74
0
 40
0
 40
0
 40
0
 40
0
 40
1
 40
1
 40
1
 40
1
 10
65.561002
 20
28.732103
 30
0.0
 10
65.875194
 20
28.732103
 30
0.0
 10
66.179740
 20
28.788604
 30
0.0
 10
66.474640
 20
28.901606
 30
0.0
  0
SPLINE
  5
1ee
100
AcDbEntity
  8
Layer_1
 62
7
100
AcDbSpline
 70
8
 71
3
 72
8
 73
4
 74
0
 40
0
 40
0
 40
0
 40
0
 40
1
 40
1
 40
1
 40
1
 10
66.474640
 20
28.901606
 30
0.0
 10
66.769542
 20
29.014607
 30
0.0
 10
67.002430
 20
29.135878
 30
0.0
 10
67.173307
 20
29.265418
 30
0.0
  0
LINE
  5
1ef
100
AcDbEntity
  8
Layer_1
 62
7
100
AcDbLine
 10
67.173307
 20
29.265418
 30
0.0
 11
67.338672
 21
29.265418
 31
0.0
  0
LINE
  5
1f0
100
AcDbEntity
  8
Layer_1
 62
7
100
AcDbLine
 10
67.338672
 20
29.265418
 30
0.0
 11
67.338672
 21
28.070659
 31
0.0
  0
SPLINE
  5
1f1
100
AcDbEntity
  8
Layer_1
 62
7
100
AcDbSpline
 70
8
 71
3
 72
8
 73
4
 74
0
 40
0
 40
0
 40
0
 40
0
 40
1
 40
1
 40
1
 40
1
 10
67.338672
 20
28.070659
 30
0.0
 10
67.002430
 20
27.935606
 30
0.0
 10
66.685482
 20
27.837759
 30
0.0
 10
66.387826
 20
27.777119
 30
0.0
  0
SPLINE
  5
1f2
100
AcDbEntity
  8
Layer_1
 62
7
100
AcDbSpline
 70
8
 71
3
 72
8
 73
4
 74
0
 40
0
 40
0
 40
0
 40
0
 40
1
 40
1
 40
1
 40
1
 10
66.387826
 20
27.777119
 30
0.0
 10
66.090170
 20
27.716498
 30
0.0
 10
65.760818
 20
27.686187
 30
0.0
 10
65.399771
 20
27.686187
 30
0.0
  0
SPLINE
  5
1f3
100
AcDbEntity
  8
Layer_1
 62
7
100
AcDbSpline
 70
8
 71
3
 72
8
 73
4
 74
0
 40
0
 40
0
 40
0
 40
0
 40
1
 40
1
 40
1
 40
1
 10
65.399771
 20
27.686187
 30
0.0
 10
64.468218
 20
27.686187
 30
0.0
 10
63.754394
 20
27.895643
 30
0.0
 10
63.258300
 20
28.314555
 30
0.0
  0
SPLINE
  5
1f4
100
AcDbEntity
  8
Layer_1
 62
7
100
AcDbSpline
 70
8
 71
3
 72
8
 73
4
 74
0
 40
0
 40
0
 40
0
 40
0
 40
1
 40
1
 40
1
 40
1
 10
63.258300
 20
28.314555
 30
0.0
 10
62.762206
 20
28.733486
 30
0.0
 10
62.514159
 20
29.330179
 30
0.0
 10
62.514159
 20
30.104634
 30
0.0
  0
SPLINE
  5
1f5
100
AcDbEntity
  8
Layer_1
 62
7
100
AcDbSpline
 70
8
 71
3
 72
8
 73
4
 74
0
 40
0
 40
0
 40
0
 40
0
 40
1
 40
1
 40
1
 40
1
 10
62.514159
 20
30.104634
 30
0.0
 10
62.514159
 20
30.870830
 30
0.0
 10
62.748425
 20
31.477166
 30
0.0
 10
63.216957
 20
31.923641
 30
0.0
  0
SPLINE
  5
1f6
100
AcDbEntity
  8
Layer_1
 62
7
100
AcDbSpline
 70
8
 71
3
 72
8
 73
4
 74
0
 40
0
 40
0
 40
0
 40
0
 40
1
 40
1
 40
1
 40
1
 10
63.216957
 20
31.923641
 30
0.0
 10
63.688248
 20
32.372882
 30
0.0
 10
64.333170
 20
32.597503
 30
0.0
 10
65.151723
 20
32.597503
 30
0.0
  0
SPLINE
  5
1f7
100
AcDbEntity
  8
Layer_1
 62
7
100
AcDbSpline
 70
8
 71
3
 72
8
 73
4
 74
0
 40
0
 40
0
 40
0
 40
0
 40
1
 40
1
 40
1
 40
1
 10
65.151723
 20
32.597503
 30
0.0
 10
65.906890
 20
32.597503
 30
0.0
 10
66.474642
 20
32.405959
 30
0.0
 10
66.854980
 20
32.022870
 30
0.0
  0
SPLINE
  5
1f8
100
AcDbEntity
  8
Layer_1
 62
7
100
AcDbSpline
 70
8
 71
3
 72
8
 73
4
 74
0
 40
0
 40
0
 40
0
 40
0
 40
1
 40
1
 40
1
 40
1
 10
66.854980
 20
32.022870
 30
0.0
 10
67.235317
 20
31.642529
 30
0.0
 10
67.425486
 20
31.094068
 30
0.0
 10
67.425486
 20
30.377487
 30
0.0
  0
LINE
  5
1f9
100
AcDbEntity
  8
Layer_1
 62
7
100
AcDbLine
 10
67.425486
 20
30.377487
 30
0.0
 11
67.425486
 21
29.856589
 31
0.0
  0
LINE
  5
1fa
100
AcDbEntity
  8
Layer_1
 62
7
100
AcDbLine
 10
67.425486
 20
29.856589
 30
0.0
 11
67.425486
 21
29.856589
 31
0.0
  0
SPLINE
  5
1fb
100
AcDbEntity
  8
Layer_1
 62
7
100
AcDbSpline
 70
8
 71
3
 72
8
 73
4
 74
0
 40
0
 40
0
 40
0
 40
0
 40
1
 40
1
 40
1
 40
1
 10
65.945473
 20
30.728882
 30
0.0
 10
65.937214
 20
31.040323
 30
0.0
 10
65.860044
 20
31.274596
 30
0.0
 10
65.713964
 20
31.431700
 30
0.0
  0
SPLINE
  5
1fc
100
AcDbEntity
  8
Layer_1
 62
7
100
AcDbSpline
 70
8
 71
3
 72
8
 73
4
 74
0
 40
0
 40
0
 40
0
 40
0
 40
1
 40
1
 40
1
 40
1
 10
65.713964
 20
31.431700
 30
0.0
 10
65.567891
 20
31.588784
 30
0.0
 10
65.340515
 20
31.667327
 30
0.0
 10
65.031835
 20
31.667327
 30
0.0
  0
SPLINE
  5
1fd
100
AcDbEntity
  8
Layer_1
 62
7
100
AcDbSpline
 70
8
 71
3
 72
8
 73
4
 74
0
 40
0
 40
0
 40
0
 40
0
 40
1
 40
1
 40
1
 40
1
 10
65.031835
 20
31.667327
 30
0.0
 10
64.745203
 20
31.667327
 30
0.0
 10
64.509559
 20
31.592914
 30
0.0
 10
64.324903
 20
31.444089
 30
0.0
  0
SPLINE
  5
1fe
100
AcDbEntity
  8
Layer_1
 62
7
100
AcDbSpline
 70
8
 71
3
 72
8
 73
4
 74
0
 40
0
 40
0
 40
0
 40
0
 40
1
 40
1
 40
1
 40
1
 10
64.324903
 20
31.444089
 30
0.0
 10
64.140245
 20
31.295264
 30
0.0
 10
64.036891
 20
31.056861
 30
0.0
 10
64.014842
 20
30.728882
 30
0.0
  0
LINE
  5
1ff
100
AcDbEntity
  8
Layer_1
 62
7
100
AcDbLine
 10
64.014842
 20
30.728882
 30
0.0
 11
65.945473
 21
30.728882
 31
0.0
  0
LINE
  5
200
100
AcDbEntity
  8
Layer_1
 62
7
100
AcDbLine
 10
65.945473
 20
30.728882
 30
0.0
 11
65.945473
 21
30.728882
 31
0.0
  0
LINE
  5
201
100
AcDbEntity
  8
Layer_1
 62
7
100
AcDbLine
 10
72.990005
 20
27.810196
 30
0.0
 11
71.501723
 21
27.810196
 31
0.0
  0
LINE
  5
202
100
AcDbEntity
  8
Layer_1
 62
7
100
AcDbLine
 10
71.501723
 20
27.810196
 30
0.0
 11
71.501723
 21
28.293896
 31
0.0
  0
SPLINE
  5
203
100
AcDbEntity
  8
Layer_1
 62
7
100
AcDbSpline
 70
8
 71
3
 72
8
 73
4
 74
0
 40
0
 40
0
 40
0
 40
0
 40
1
 40
1
 40
1
 40
1
 10
71.501723
 20
28.293896
 30
0.0
 10
71.245409
 20
28.084431
 30
0.0
 10
71.005631
 20
27.930093
 30
0.0
 10
70.782390
 20
27.830883
 30
0.0
  0
SPLINE
  5
204
100
AcDbEntity
  8
Layer_1
 62
7
100
AcDbSpline
 70
8
 71
3
 72
8
 73
4
 74
0
 40
0
 40
0
 40
0
 40
0
 40
1
 40
1
 40
1
 40
1
 10
70.782390
 20
27.830883
 30
0.0
 10
70.559146
 20
27.731653
 30
0.0
 10
70.301453
 20
27.682039
 30
0.0
 10
70.009310
 20
27.682039
 30
0.0
  0
SPLINE
  5
205
100
AcDbEntity
  8
Layer_1
 62
7
100
AcDbSpline
 70
8
 71
3
 72
8
 73
4
 74
0
 40
0
 40
0
 40
0
 40
0
 40
1
 40
1
 40
1
 40
1
 10
70.009310
 20
27.682039
 30
0.0
 10
69.444314
 20
27.682039
 30
0.0
 10
68.992317
 20
27.899773
 30
0.0
 10
68.653319
 20
28.335242
 30
0.0
  0
SPLINE
  5
206
100
AcDbEntity
  8
Layer_1
 62
7
100
AcDbSpline
 70
8
 71
3
 72
8
 73
4
 74
0
 40
0
 40
0
 40
0
 40
0
 40
1
 40
1
 40
1
 40
1
 10
68.653319
 20
28.335242
 30
0.0
 10
68.314322
 20
28.770692
 30
0.0
 10
68.144823
 20
29.357733
 30
0.0
 10
68.144823
 20
30.096365
 30
0.0
  0
SPLINE
  5
207
100
AcDbEntity
  8
Layer_1
 62
7
100
AcDbSpline
 70
8
 71
3
 72
8
 73
4
 74
0
 40
0
 40
0
 40
0
 40
0
 40
1
 40
1
 40
1
 40
1
 10
68.144823
 20
30.096365
 30
0.0
 10
68.144823
 20
30.490479
 30
0.0
 10
68.201323
 20
30.839127
 30
0.0
 10
68.314322
 20
31.142309
 30
0.0
  0
SPLINE
  5
208
100
AcDbEntity
  8
Layer_1
 62
7
100
AcDbSpline
 70
8
 71
3
 72
8
 73
4
 74
0
 40
0
 40
0
 40
0
 40
0
 40
1
 40
1
 40
1
 40
1
 10
68.314322
 20
31.142309
 30
0.0
 10
68.430077
 20
31.448238
 30
0.0
 10
68.587173
 20
31.710065
 30
0.0
 10
68.785611
 20
31.927790
 30
0.0
  0
SPLINE
  5
209
100
AcDbEntity
  8
Layer_1
 62
7
100
AcDbSpline
 70
8
 71
3
 72
8
 73
4
 74
0
 40
0
 40
0
 40
0
 40
0
 40
1
 40
1
 40
1
 40
1
 10
68.785611
 20
31.927790
 30
0.0
 10
68.973024
 20
32.134489
 30
0.0
 10
69.200400
 20
32.294340
 30
0.0
 10
69.467739
 20
32.407342
 30
0.0
  0
SPLINE
  5
20a
100
AcDbEntity
  8
Layer_1
 62
7
100
AcDbSpline
 70
8
 71
3
 72
8
 73
4
 74
0
 40
0
 40
0
 40
0
 40
0
 40
1
 40
1
 40
1
 40
1
 10
69.467739
 20
32.407342
 30
0.0
 10
69.735079
 20
32.523091
 30
0.0
 10
70.002419
 20
32.580965
 30
0.0
 10
70.269758
 20
32.580965
 30
0.0
  0
SPLINE
  5
20b
100
AcDbEntity
  8
Layer_1
 62
7
100
AcDbSpline
 70
8
 71
3
 72
8
 73
4
 74
0
 40
0
 40
0
 40
0
 40
0
 40
1
 40
1
 40
1
 40
1
 10
70.269758
 20
32.580965
 30
0.0
 10
70.548122
 20
32.580965
 30
0.0
 10
70.775498
 20
32.550654
 30
0.0
 10
70.951887
 20
32.490033
 30
0.0
  0
SPLINE
  5
20c
100
AcDbEntity
  8
Layer_1
 62
7
100
AcDbSpline
 70
8
 71
3
 72
8
 73
4
 74
0
 40
0
 40
0
 40
0
 40
0
 40
1
 40
1
 40
1
 40
1
 10
70.951887
 20
32.490033
 30
0.0
 10
71.131032
 20
32.432140
 30
0.0
 10
71.314311
 20
32.357727
 30
0.0
 10
71.501723
 20
32.266795
 30
0.0
  0
LINE
  5
20d
100
AcDbEntity
  8
Layer_1
 62
7
100
AcDbLine
 10
71.501723
 20
32.266795
 30
0.0
 11
71.501723
 21
34.242887
 31
0.0
  0
LINE
  5
20e
100
AcDbEntity
  8
Layer_1
 62
7
100
AcDbLine
 10
71.501723
 20
34.242887
 30
0.0
 11
72.990005
 21
34.242887
 31
0.0
  0
LINE
  5
20f
100
AcDbEntity
  8
Layer_1
 62
7
100
AcDbLine
 10
72.990005
 20
34.242887
 30
0.0
 11
72.990005
 21
27.810196
 31
0.0
  0
LINE
  5
210
100
AcDbEntity
  8
Layer_1
 62
7
100
AcDbLine
 10
72.990005
 20
27.810196
 30
0.0
 11
72.990005
 21
27.810196
 31
0.0
  0
LINE
  5
211
100
AcDbEntity
  8
Layer_1
 62
7
100
AcDbLine
 10
71.501723
 20
29.091795
 30
0.0
 11
71.501723
 21
31.369667
 31
0.0
  0
SPLINE
  5
212
100
AcDbEntity
  8
Layer_1
 62
7
100
AcDbSpline
 70
8
 71
3
 72
8
 73
4
 74
0
 40
0
 40
0
 40
0
 40
0
 40
1
 40
1
 40
1
 40
1
 10
71.501723
 20
31.369667
 30
0.0
 10
71.396993
 20
31.413769
 30
0.0
 10
71.286750
 20
31.445472
 30
0.0
 10
71.170996
 20
31.464776
 30
0.0
  0
SPLINE
  5
213
100
AcDbEntity
  8
Layer_1
 62
7
100
AcDbSpline
 70
8
 71
3
 72
8
 73
4
 74
0
 40
0
 40
0
 40
0
 40
0
 40
1
 40
1
 40
1
 40
1
 10
71.170996
 20
31.464776
 30
0.0
 10
71.055239
 20
31.484061
 30
0.0
 10
70.949130
 20
31.493704
 30
0.0
 10
70.852669
 20
31.493704
 30
0.0
  0
SPLINE
  5
214
100
AcDbEntity
  8
Layer_1
 62
7
100
AcDbSpline
 70
8
 71
3
 72
8
 73
4
 74
0
 40
0
 40
0
 40
0
 40
0
 40
1
 40
1
 40
1
 40
1
 10
70.852669
 20
31.493704
 30
0.0
 10
70.461305
 20
31.493704
 30
0.0
 10
70.167783
 20
31.371059
 30
0.0
 10
69.972101
 20
31.125771
 30
0.0
  0
SPLINE
  5
215
100
AcDbEntity
  8
Layer_1
 62
7
100
AcDbSpline
 70
8
 71
3
 72
8
 73
4
 74
0
 40
0
 40
0
 40
0
 40
0
 40
1
 40
1
 40
1
 40
1
 10
69.972101
 20
31.125771
 30
0.0
 10
69.776420
 20
30.883229
 30
0.0
 10
69.678579
 20
30.545606
 30
0.0
 10
69.678579
 20
30.112903
 30
0.0
  0
SPLINE
  5
216
100
AcDbEntity
  8
Layer_1
 62
7
100
AcDbSpline
 70
8
 71
3
 72
8
 73
4
 74
0
 40
0
 40
0
 40
0
 40
0
 40
1
 40
1
 40
1
 40
1
 10
69.678579
 20
30.112903
 30
0.0
 10
69.678579
 20
29.658149
 30
0.0
 10
69.757127
 20
29.327422
 30
0.0
 10
69.914223
 20
29.120723
 30
0.0
  0
SPLINE
  5
217
100
AcDbEntity
  8
Layer_1
 62
7
100
AcDbSpline
 70
8
 71
3
 72
8
 73
4
 74
0
 40
0
 40
0
 40
0
 40
0
 40
1
 40
1
 40
1
 40
1
 10
69.914223
 20
29.120723
 30
0.0
 10
70.071320
 20
28.916770
 30
0.0
 10
70.323501
 20
28.814794
 30
0.0
 10
70.670768
 20
28.814794
 30
0.0
  0
SPLINE
  5
218
100
AcDbEntity
  8
Layer_1
 62
7
100
AcDbSpline
 70
8
 71
3
 72
8
 73
4
 74
0
 40
0
 40
0
 40
0
 40
0
 40
1
 40
1
 40
1
 40
1
 10
70.670768
 20
28.814794
 30
0.0
 10
70.805815
 20
28.814794
 30
0.0
 10
70.949131
 20
28.839601
 30
0.0
 10
71.100717
 20
28.889216
 30
0.0
  0
SPLINE
  5
219
100
AcDbEntity
  8
Layer_1
 62
7
100
AcDbSpline
 70
8
 71
3
 72
8
 73
4
 74
0
 40
0
 40
0
 40
0
 40
0
 40
1
 40
1
 40
1
 40
1
 10
71.100717
 20
28.889216
 30
0.0
 10
71.252300
 20
28.941578
 30
0.0
 10
71.385969
 20
29.009104
 30
0.0
 10
71.501723
 20
29.091795
 30
0.0
  0
LINE
  5
21a
100
AcDbEntity
  8
Layer_1
 62
7
100
AcDbLine
 10
71.501723
 20
29.091795
 30
0.0
 11
71.501723
 21
29.091795
 31
0.0
  0
ENDSEC
  0
SECTION
  2
OBJECTS
  0
DICTIONARY
  5
C
330
0
100
AcDbDictionary
  3
ACAD_GROUP
350
D
  3
ACAD_MLINESTYLE
350
17
  0
DICTIONARY
  5
D
330
C
100
AcDbDictionary
  0
DICTIONARY
  5
1A
330
C
100
AcDbDictionary
  0
DICTIONARY
  5
17
330
C
100
AcDbDictionary
  3
STANDARD
350
18
  0
DICTIONARY
  5
19
330
C
100
AcDbDictionary
  0
ENDSEC
  0
EOF
