  0
SECTION
  2
HEADER
  9
$ACADVER
  1
AC1014
  9
$HANDSEED
  5
FFFF
  9
$MEASUREMENT
 70
     1
  0
ENDSEC
  0
SECTION
  2
TABLES
  0
TABLE
  2
VPORT
  5
8
330
0
100
AcDbSymbolTable
 70
     4
  0
VPORT
  5
2E
330
8
100
AcDbSymbolTableRecord
100
AcDbViewportTableRecord
  2
*ACTIVE
 70
     0
 10
0.0
 20
0.0
 11
1.0
 21
1.0
 12
210.0
 22
148.5
 13
0.0
 23
0.0
 14
10.0
 24
10.0
 15
10.0
 25
10.0
 16
0.0
 26
0.0
 36
1.0
 17
0.0
 27
0.0
 37
0.0
 40
341.0
 41
1.24
 42
50.0
 43
0.0
 44
0.0
 50
0.0
 51
0.0
 71
     0
 72
   100
 73
     1
 74
     3
 75
     0
 76
     0
 77
     0
 78
     0
  0
ENDTAB
  0
TABLE
  2
LTYPE
  5
5
330
0
100
AcDbSymbolTable
 70
     1
  0
LTYPE
  5
14
330
5
100
AcDbSymbolTableRecord
100
AcDbLinetypeTableRecord
  2
BYBLOCK
 70
     0
  3

 72
    65
 73
     0
 40
0.0
  0
LTYPE
  5
15
330
5
100
AcDbSymbolTableRecord
100
AcDbLinetypeTableRecord
  2
BYLAYER
 70
     0
  3

 72
    65
 73
     0
 40
0.0
  0
LTYPE
  5
16
330
5
100
AcDbSymbolTableRecord
100
AcDbLinetypeTableRecord
  2
CONTINUOUS
 70
     0
  3
Solid line
 72
    65
 73
     0
 40
0.0
  0
ENDTAB
  0
TABLE
  2
LAYER
  5
2
100
AcDbSymbolTable
 70
2
  0
LAYER
  5
50
100
AcDbSymbolTableRecord
100
AcDbLayerTableRecord
  2
0
 70
0
  6
CONTINUOUS
  0
LAYER
  5
51
100
AcDbSymbolTableRecord
100
AcDbLayerTableRecord
  2
Layer_1
 70
0
  6
CONTINUOUS
  0
ENDTAB
  0
TABLE
  2
STYLE
  5
3
330
0
100
AcDbSymbolTable
 70
     1
  0
STYLE
  5
11
330
3
100
AcDbSymbolTableRecord
100
AcDbTextStyleTableRecord
  2
STANDARD
 70
     0
 40
0.0
 41
1.0
 50
0.0
 71
     0
 42
2.5
  3
txt
  4

  0
ENDTAB
  0
TABLE
  2
VIEW
  5
6
330
0
100
AcDbSymbolTable
 70
     0
  0
ENDTAB
  0
TABLE
  2
UCS
  5
7
330
0
100
AcDbSymbolTable
 70
     0
  0
ENDTAB
  0
TABLE
  2
APPID
  5
9
330
0
100
AcDbSymbolTable
 70
     2
  0
APPID
  5
12
330
9
100
AcDbSymbolTableRecord
100
AcDbRegAppTableRecord
  2
ACAD
 70
     0
  0
ENDTAB
  0
TABLE
  2
DIMSTYLE
  5
A
330
0
100
AcDbSymbolTable
 70
     1
  0
DIMSTYLE
105
27
330
A
100
AcDbSymbolTableRecord
100
AcDbDimStyleTableRecord
  2
ISO-25
 70
     0
  3

  4

  5

  6

  7

 40
1.0
 41
2.5
 42
0.625
 43
3.75
 44
1.25
 45
0.0
 46
0.0
 47
0.0
 48
0.0
140
2.5
141
2.5
142
0.0
143
0.03937007874016
144
1.0
145
0.0
146
1.0
147
0.625
 71
     0
 72
     0
 73
     0
 74
     0
 75
     0
 76
     0
 77
     1
 78
     8
170
     0
171
     3
172
     1
173
     0
174
     0
175
     0
176
     0
177
     0
178
     0
270
     2
271
     2
272
     2
273
     2
274
     3
340
11
275
     0
280
     0
281
     0
282
     0
283
     0
284
     8
285
     0
286
     0
287
     3
288
     0
  0
ENDTAB
  0
TABLE
  2
BLOCK_RECORD
  5
1
330
0
100
AcDbSymbolTable
 70
     1
  0
BLOCK_RECORD
  5
1F
330
1
100
AcDbSymbolTableRecord
100
AcDbBlockTableRecord
  2
*MODEL_SPACE
  0
BLOCK_RECORD
  5
1B
330
1
100
AcDbSymbolTableRecord
100
AcDbBlockTableRecord
  2
*PAPER_SPACE
  0
ENDTAB
  0
ENDSEC
  0
SECTION
  2
BLOCKS
  0
BLOCK
  5
20
330
1F
100
AcDbEntity
  8
0
100
AcDbBlockBegin
  2
*MODEL_SPACE
 70
     0
 10
0.0
 20
0.0
 30
0.0
  3
*MODEL_SPACE
  1

  0
ENDBLK
  5
21
330
1F
100
AcDbEntity
  8
0
100
AcDbBlockEnd
  0
BLOCK
  5
1C
330
1B
100
AcDbEntity
 67
     1
  8
0
100
AcDbBlockBegin
  2
*PAPER_SPACE
  1

  0
ENDBLK
  5
1D
330
1B
100
AcDbEntity
 67
     1
  8
0
100
AcDbBlockEnd
  0
ENDSEC
  0
SECTION
  2
ENTITIES
  0
LINE
  5
100
100
AcDbEntity
  8
Layer_1
 62
1
100
AcDbLine
 10
22.250002
 20
85.750001
 30
0.0
 11
73.750001
 21
85.750001
 31
0.0
  0
SPLINE
  5
101
100
AcDbEntity
  8
Layer_1
 62
1
100
AcDbSpline
 70
8
 71
3
 72
8
 73
4
 74
0
 40
0
 40
0
 40
0
 40
0
 40
1
 40
1
 40
1
 40
1
 10
73.750001
 20
85.750001
 30
0.0
 10
74.857999
 20
85.750001
 30
0.0
 10
75.749999
 20
84.858001
 30
0.0
 10
75.749999
 20
83.750002
 30
0.0
  0
LINE
  5
102
100
AcDbEntity
  8
Layer_1
 62
1
100
AcDbLine
 10
75.749999
 20
83.750002
 30
0.0
 11
75.749999
 21
22.250001
 31
0.0
  0
SPLINE
  5
103
100
AcDbEntity
  8
Layer_1
 62
1
100
AcDbSpline
 70
8
 71
3
 72
8
 73
4
 74
0
 40
0
 40
0
 40
0
 40
0
 40
1
 40
1
 40
1
 40
1
 10
75.749999
 20
22.250001
 30
0.0
 10
75.749999
 20
21.142002
 30
0.0
 10
74.857999
 20
20.250002
 30
0.0
 10
73.750001
 20
20.250002
 30
0.0
  0
LINE
  5
104
100
AcDbEntity
  8
Layer_1
 62
1
100
AcDbLine
 10
73.750001
 20
20.250002
 30
0.0
 11
22.250002
 21
20.250002
 31
0.0
  0
SPLINE
  5
105
100
AcDbEntity
  8
Layer_1
 62
1
100
AcDbSpline
 70
8
 71
3
 72
8
 73
4
 74
0
 40
0
 40
0
 40
0
 40
0
 40
1
 40
1
 40
1
 40
1
 10
22.250002
 20
20.250002
 30
0.0
 10
21.142002
 20
20.250002
 30
0.0
 10
20.250002
 20
21.142002
 30
0.0
 10
20.250002
 20
22.250001
 30
0.0
  0
LINE
  5
106
100
AcDbEntity
  8
Layer_1
 62
1
100
AcDbLine
 10
20.250002
 20
22.250001
 30
0.0
 11
20.250002
 21
83.750002
 31
0.0
  0
SPLINE
  5
107
100
AcDbEntity
  8
Layer_1
 62
1
100
AcDbSpline
 70
8
 71
3
 72
8
 73
4
 74
0
 40
0
 40
0
 40
0
 40
0
 40
1
 40
1
 40
1
 40
1
 10
20.250002
 20
83.750002
 30
0.0
 10
20.250002
 20
84.858001
 30
0.0
 10
21.142002
 20
85.750001
 30
0.0
 10
22.250002
 20
85.750001
 30
0.0
  0
LINE
  5
108
100
AcDbEntity
  8
Layer_1
 62
1
100
AcDbLine
 10
22.250002
 20
85.750001
 30
0.0
 11
22.250002
 21
85.750001
 31
0.0
  0
SPLINE
  5
109
100
AcDbEntity
  8
Layer_1
 62
7
100
AcDbSpline
 70
8
 71
3
 72
8
 73
4
 74
0
 40
0
 40
0
 40
0
 40
0
 40
1
 40
1
 40
1
 40
1
 10
26.500001
 20
49.999986
 30
0.0
 10
26.500001
 20
49.171559
 30
0.0
 10
25.828428
 20
48.499986
 30
0.0
 10
25.000001
 20
48.499986
 30
0.0
  0
SPLINE
  5
10a
100
AcDbEntity
  8
Layer_1
 62
7
100
AcDbSpline
 70
8
 71
3
 72
8
 73
4
 74
0
 40
0
 40
0
 40
0
 40
0
 40
1
 40
1
 40
1
 40
1
 10
25.000001
 20
48.499986
 30
0.0
 10
24.171574
 20
48.499986
 30
0.0
 10
23.500001
 20
49.171559
 30
0.0
 10
23.500001
 20
49.999986
 30
0.0
  0
SPLINE
  5
10b
100
AcDbEntity
  8
Layer_1
 62
7
100
AcDbSpline
 70
8
 71
3
 72
8
 73
4
 74
0
 40
0
 40
0
 40
0
 40
0
 40
1
 40
1
 40
1
 40
1
 10
23.500001
 20
49.999986
 30
0.0
 10
23.500001
 20
50.828413
 30
0.0
 10
24.171574
 20
51.499986
 30
0.0
 10
25.000001
 20
51.499986
 30
0.0
  0
SPLINE
  5
10c
100
AcDbEntity
  8
Layer_1
 62
7
100
AcDbSpline
 70
8
 71
3
 72
8
 73
4
 74
0
 40
0
 40
0
 40
0
 40
0
 40
1
 40
1
 40
1
 40
1
 10
25.000001
 20
51.499986
 30
0.0
 10
25.828428
 20
51.499986
 30
0.0
 10
26.500001
 20
50.828413
 30
0.0
 10
26.500001
 20
49.999986
 30
0.0
  0
LINE
  5
10d
100
AcDbEntity
  8
Layer_1
 62
7
100
AcDbLine
 10
26.500001
 20
49.999986
 30
0.0
 11
26.500001
 21
49.999986
 31
0.0
  0
SPLINE
  5
10e
100
AcDbEntity
  8
Layer_1
 62
7
100
AcDbSpline
 70
8
 71
3
 72
8
 73
4
 74
0
 40
0
 40
0
 40
0
 40
0
 40
1
 40
1
 40
1
 40
1
 10
72.499999
 20
80.999989
 30
0.0
 10
72.499999
 20
80.171562
 30
0.0
 10
71.828426
 20
79.499989
 30
0.0
 10
70.999999
 20
79.499989
 30
0.0
  0
SPLINE
  5
10f
100
AcDbEntity
  8
Layer_1
 62
7
100
AcDbSpline
 70
8
 71
3
 72
8
 73
4
 74
0
 40
0
 40
0
 40
0
 40
0
 40
1
 40
1
 40
1
 40
1
 10
70.999999
 20
79.499989
 30
0.0
 10
70.171572
 20
79.499989
 30
0.0
 10
69.499999
 20
80.171562
 30
0.0
 10
69.499999
 20
80.999989
 30
0.0
  0
SPLINE
  5
110
100
AcDbEntity
  8
Layer_1
 62
7
100
AcDbSpline
 70
8
 71
3
 72
8
 73
4
 74
0
 40
0
 40
0
 40
0
 40
0
 40
1
 40
1
 40
1
 40
1
 10
69.499999
 20
80.999989
 30
0.0
 10
69.499999
 20
81.828416
 30
0.0
 10
70.171572
 20
82.499989
 30
0.0
 10
70.999999
 20
82.499989
 30
0.0
  0
SPLINE
  5
111
100
AcDbEntity
  8
Layer_1
 62
7
100
AcDbSpline
 70
8
 71
3
 72
8
 73
4
 74
0
 40
0
 40
0
 40
0
 40
0
 40
1
 40
1
 40
1
 40
1
 10
70.999999
 20
82.499989
 30
0.0
 10
71.828426
 20
82.499989
 30
0.0
 10
72.499999
 20
81.828416
 30
0.0
 10
72.499999
 20
80.999989
 30
0.0
  0
LINE
  5
112
100
AcDbEntity
  8
Layer_1
 62
7
100
AcDbLine
 10
72.499999
 20
80.999989
 30
0.0
 11
72.499999
 21
80.999989
 31
0.0
  0
SPLINE
  5
113
100
AcDbEntity
  8
Layer_1
 62
7
100
AcDbSpline
 70
8
 71
3
 72
8
 73
4
 74
0
 40
0
 40
0
 40
0
 40
0
 40
1
 40
1
 40
1
 40
1
 10
72.499999
 20
49.999986
 30
0.0
 10
72.499999
 20
49.171559
 30
0.0
 10
71.828426
 20
48.499986
 30
0.0
 10
70.999999
 20
48.499986
 30
0.0
  0
SPLINE
  5
114
100
AcDbEntity
  8
Layer_1
 62
7
100
AcDbSpline
 70
8
 71
3
 72
8
 73
4
 74
0
 40
0
 40
0
 40
0
 40
0
 40
1
 40
1
 40
1
 40
1
 10
70.999999
 20
48.499986
 30
0.0
 10
70.171572
 20
48.499986
 30
0.0
 10
69.499999
 20
49.171559
 30
0.0
 10
69.499999
 20
49.999986
 30
0.0
  0
SPLINE
  5
115
100
AcDbEntity
  8
Layer_1
 62
7
100
AcDbSpline
 70
8
 71
3
 72
8
 73
4
 74
0
 40
0
 40
0
 40
0
 40
0
 40
1
 40
1
 40
1
 40
1
 10
69.499999
 20
49.999986
 30
0.0
 10
69.499999
 20
50.828413
 30
0.0
 10
70.171572
 20
51.499986
 30
0.0
 10
70.999999
 20
51.499986
 30
0.0
  0
SPLINE
  5
116
100
AcDbEntity
  8
Layer_1
 62
7
100
AcDbSpline
 70
8
 71
3
 72
8
 73
4
 74
0
 40
0
 40
0
 40
0
 40
0
 40
1
 40
1
 40
1
 40
1
 10
70.999999
 20
51.499986
 30
0.0
 10
71.828426
 20
51.499986
 30
0.0
 10
72.499999
 20
50.828413
 30
0.0
 10
72.499999
 20
49.999986
 30
0.0
  0
LINE
  5
117
100
AcDbEntity
  8
Layer_1
 62
7
100
AcDbLine
 10
72.499999
 20
49.999986
 30
0.0
 11
72.499999
 21
49.999986
 31
0.0
  0
SPLINE
  5
118
100
AcDbEntity
  8
Layer_1
 62
7
100
AcDbSpline
 70
8
 71
3
 72
8
 73
4
 74
0
 40
0
 40
0
 40
0
 40
0
 40
1
 40
1
 40
1
 40
1
 10
26.500001
 20
80.999989
 30
0.0
 10
26.500001
 20
80.171562
 30
0.0
 10
25.828428
 20
79.499989
 30
0.0
 10
25.000001
 20
79.499989
 30
0.0
  0
SPLINE
  5
119
100
AcDbEntity
  8
Layer_1
 62
7
100
AcDbSpline
 70
8
 71
3
 72
8
 73
4
 74
0
 40
0
 40
0
 40
0
 40
0
 40
1
 40
1
 40
1
 40
1
 10
25.000001
 20
79.499989
 30
0.0
 10
24.171574
 20
79.499989
 30
0.0
 10
23.500001
 20
80.171562
 30
0.0
 10
23.500001
 20
80.999989
 30
0.0
  0
SPLINE
  5
11a
100
AcDbEntity
  8
Layer_1
 62
7
100
AcDbSpline
 70
8
 71
3
 72
8
 73
4
 74
0
 40
0
 40
0
 40
0
 40
0
 40
1
 40
1
 40
1
 40
1
 10
23.500001
 20
80.999989
 30
0.0
 10
23.500001
 20
81.397814
 30
0.0
 10
23.658036
 20
81.779344
 30
0.0
 10
23.939341
 20
82.060649
 30
0.0
  0
SPLINE
  5
11b
100
AcDbEntity
  8
Layer_1
 62
7
100
AcDbSpline
 70
8
 71
3
 72
8
 73
4
 74
0
 40
0
 40
0
 40
0
 40
0
 40
1
 40
1
 40
1
 40
1
 10
23.939341
 20
82.060649
 30
0.0
 10
24.220645
 20
82.341954
 30
0.0
 10
24.602176
 20
82.499989
 30
0.0
 10
25.000001
 20
82.499989
 30
0.0
  0
SPLINE
  5
11c
100
AcDbEntity
  8
Layer_1
 62
7
100
AcDbSpline
 70
8
 71
3
 72
8
 73
4
 74
0
 40
0
 40
0
 40
0
 40
0
 40
1
 40
1
 40
1
 40
1
 10
25.000001
 20
82.499989
 30
0.0
 10
25.828428
 20
82.499989
 30
0.0
 10
26.500001
 20
81.828416
 30
0.0
 10
26.500001
 20
80.999989
 30
0.0
  0
LINE
  5
11d
100
AcDbEntity
  8
Layer_1
 62
7
100
AcDbLine
 10
26.500001
 20
80.999989
 30
0.0
 11
26.500001
 21
80.999989
 31
0.0
  0
SPLINE
  5
11e
100
AcDbEntity
  8
Layer_1
 62
7
100
AcDbSpline
 70
8
 71
3
 72
8
 73
4
 74
0
 40
0
 40
0
 40
0
 40
0
 40
1
 40
1
 40
1
 40
1
 10
29.541374
 20
38.702021
 30
0.0
 10
29.541374
 20
38.404363
 30
0.0
 10
29.480740
 20
38.138401
 30
0.0
 10
29.359473
 20
37.904136
 30
0.0
  0
SPLINE
  5
11f
100
AcDbEntity
  8
Layer_1
 62
7
100
AcDbSpline
 70
8
 71
3
 72
8
 73
4
 74
0
 40
0
 40
0
 40
0
 40
0
 40
1
 40
1
 40
1
 40
1
 10
29.359473
 20
37.904136
 30
0.0
 10
29.240963
 20
37.669869
 30
0.0
 10
29.076976
 20
37.475566
 30
0.0
 10
28.867515
 20
37.321226
 30
0.0
  0
SPLINE
  5
120
100
AcDbEntity
  8
Layer_1
 62
7
100
AcDbSpline
 70
8
 71
3
 72
8
 73
4
 74
0
 40
0
 40
0
 40
0
 40
0
 40
1
 40
1
 40
1
 40
1
 10
28.867515
 20
37.321226
 30
0.0
 10
28.624981
 20
37.139324
 30
0.0
 10
28.357641
 20
37.009788
 30
0.0
 10
28.065496
 20
36.932617
 30
0.0
  0
SPLINE
  5
121
100
AcDbEntity
  8
Layer_1
 62
7
100
AcDbSpline
 70
8
 71
3
 72
8
 73
4
 74
0
 40
0
 40
0
 40
0
 40
0
 40
1
 40
1
 40
1
 40
1
 10
28.065496
 20
36.932617
 30
0.0
 10
27.776108
 20
36.855448
 30
0.0
 10
27.408172
 20
36.816864
 30
0.0
 10
26.961688
 20
36.816864
 30
0.0
  0
LINE
  5
122
100
AcDbEntity
  8
Layer_1
 62
7
100
AcDbLine
 10
26.961688
 20
36.816864
 30
0.0
 11
24.274513
 21
36.816864
 31
0.0
  0
LINE
  5
123
100
AcDbEntity
  8
Layer_1
 62
7
100
AcDbLine
 10
24.274513
 20
36.816864
 30
0.0
 11
24.274513
 21
42.972560
 31
0.0
  0
LINE
  5
124
100
AcDbEntity
  8
Layer_1
 62
7
100
AcDbLine
 10
24.274513
 20
42.972560
 30
0.0
 11
26.664031
 21
42.972560
 31
0.0
  0
SPLINE
  5
125
100
AcDbEntity
  8
Layer_1
 62
7
100
AcDbSpline
 70
8
 71
3
 72
8
 73
4
 74
0
 40
0
 40
0
 40
0
 40
0
 40
1
 40
1
 40
1
 40
1
 10
26.664031
 20
42.972560
 30
0.0
 10
27.160125
 20
42.972560
 30
0.0
 10
27.522549
 20
42.956023
 30
0.0
 10
27.751303
 20
42.922951
 30
0.0
  0
SPLINE
  5
126
100
AcDbEntity
  8
Layer_1
 62
7
100
AcDbSpline
 70
8
 71
3
 72
8
 73
4
 74
0
 40
0
 40
0
 40
0
 40
0
 40
1
 40
1
 40
1
 40
1
 10
27.751303
 20
42.922951
 30
0.0
 10
27.982814
 20
42.889878
 30
0.0
 10
28.211568
 20
42.816842
 30
0.0
 10
28.437566
 20
42.703842
 30
0.0
  0
SPLINE
  5
127
100
AcDbEntity
  8
Layer_1
 62
7
100
AcDbSpline
 70
8
 71
3
 72
8
 73
4
 74
0
 40
0
 40
0
 40
0
 40
0
 40
1
 40
1
 40
1
 40
1
 10
28.437566
 20
42.703842
 30
0.0
 10
28.671833
 20
42.585331
 30
0.0
 10
28.845466
 20
42.425478
 30
0.0
 10
28.958464
 20
42.224284
 30
0.0
  0
SPLINE
  5
128
100
AcDbEntity
  8
Layer_1
 62
7
100
AcDbSpline
 70
8
 71
3
 72
8
 73
4
 74
0
 40
0
 40
0
 40
0
 40
0
 40
1
 40
1
 40
1
 40
1
 10
28.958464
 20
42.224284
 30
0.0
 10
29.074220
 20
42.025848
 30
0.0
 10
29.132098
 20
41.798472
 30
0.0
 10
29.132098
 20
41.542156
 30
0.0
  0
SPLINE
  5
129
100
AcDbEntity
  8
Layer_1
 62
7
100
AcDbSpline
 70
8
 71
3
 72
8
 73
4
 74
0
 40
0
 40
0
 40
0
 40
0
 40
1
 40
1
 40
1
 40
1
 10
29.132098
 20
41.542156
 30
0.0
 10
29.132098
 20
41.244500
 30
0.0
 10
29.053550
 20
40.981295
 30
0.0
 10
28.896454
 20
40.752540
 30
0.0
  0
SPLINE
  5
12a
100
AcDbEntity
  8
Layer_1
 62
7
100
AcDbSpline
 70
8
 71
3
 72
8
 73
4
 74
0
 40
0
 40
0
 40
0
 40
0
 40
1
 40
1
 40
1
 40
1
 10
28.896454
 20
40.752540
 30
0.0
 10
28.739358
 20
40.526542
 30
0.0
 10
28.517493
 20
40.350153
 30
0.0
 10
28.230861
 20
40.223374
 30
0.0
  0
LINE
  5
12b
100
AcDbEntity
  8
Layer_1
 62
7
100
AcDbLine
 10
28.230861
 20
40.223374
 30
0.0
 11
28.230861
 21
40.190300
 31
0.0
  0
SPLINE
  5
12c
100
AcDbEntity
  8
Layer_1
 62
7
100
AcDbSpline
 70
8
 71
3
 72
8
 73
4
 74
0
 40
0
 40
0
 40
0
 40
0
 40
1
 40
1
 40
1
 40
1
 10
28.230861
 20
40.190300
 30
0.0
 10
28.633248
 20
40.110375
 30
0.0
 10
28.951575
 20
39.945010
 30
0.0
 10
29.185842
 20
39.694207
 30
0.0
  0
SPLINE
  5
12d
100
AcDbEntity
  8
Layer_1
 62
7
100
AcDbSpline
 70
8
 71
3
 72
8
 73
4
 74
0
 40
0
 40
0
 40
0
 40
0
 40
1
 40
1
 40
1
 40
1
 10
29.185842
 20
39.694207
 30
0.0
 10
29.422863
 20
39.443404
 30
0.0
 10
29.541374
 20
39.112675
 30
0.0
 10
29.541374
 20
38.702021
 30
0.0
  0
LINE
  5
12e
100
AcDbEntity
  8
Layer_1
 62
7
100
AcDbLine
 10
29.541374
 20
38.702021
 30
0.0
 11
29.541374
 21
38.702021
 31
0.0
  0
SPLINE
  5
12f
100
AcDbEntity
  8
Layer_1
 62
7
100
AcDbSpline
 70
8
 71
3
 72
8
 73
4
 74
0
 40
0
 40
0
 40
0
 40
0
 40
1
 40
1
 40
1
 40
1
 10
27.507391
 20
41.232098
 30
0.0
 10
27.507391
 20
41.334072
 30
0.0
 10
27.481208
 20
41.436047
 30
0.0
 10
27.428842
 20
41.538021
 30
0.0
  0
SPLINE
  5
130
100
AcDbEntity
  8
Layer_1
 62
7
100
AcDbSpline
 70
8
 71
3
 72
8
 73
4
 74
0
 40
0
 40
0
 40
0
 40
0
 40
1
 40
1
 40
1
 40
1
 10
27.428842
 20
41.538021
 30
0.0
 10
27.379233
 20
41.639997
 30
0.0
 10
27.289661
 20
41.715790
 30
0.0
 10
27.160125
 20
41.765399
 30
0.0
  0
SPLINE
  5
131
100
AcDbEntity
  8
Layer_1
 62
7
100
AcDbSpline
 70
8
 71
3
 72
8
 73
4
 74
0
 40
0
 40
0
 40
0
 40
0
 40
1
 40
1
 40
1
 40
1
 10
27.160125
 20
41.765399
 30
0.0
 10
27.044370
 20
41.809495
 30
0.0
 10
26.899676
 20
41.832922
 30
0.0
 10
26.726043
 20
41.835678
 30
0.0
  0
SPLINE
  5
132
100
AcDbEntity
  8
Layer_1
 62
7
100
AcDbSpline
 70
8
 71
3
 72
8
 73
4
 74
0
 40
0
 40
0
 40
0
 40
0
 40
1
 40
1
 40
1
 40
1
 10
26.726043
 20
41.835678
 30
0.0
 10
26.555166
 20
41.841191
 30
0.0
 10
26.314010
 20
41.843947
 30
0.0
 10
26.002573
 20
41.843947
 30
0.0
  0
LINE
  5
133
100
AcDbEntity
  8
Layer_1
 62
7
100
AcDbLine
 10
26.002573
 20
41.843947
 30
0.0
 11
25.853745
 21
41.843947
 31
0.0
  0
LINE
  5
134
100
AcDbEntity
  8
Layer_1
 62
7
100
AcDbLine
 10
25.853745
 20
41.843947
 30
0.0
 11
25.853745
 21
40.541701
 31
0.0
  0
LINE
  5
135
100
AcDbEntity
  8
Layer_1
 62
7
100
AcDbLine
 10
25.853745
 20
40.541701
 30
0.0
 11
26.101792
 21
40.541701
 31
0.0
  0
SPLINE
  5
136
100
AcDbEntity
  8
Layer_1
 62
7
100
AcDbSpline
 70
8
 71
3
 72
8
 73
4
 74
0
 40
0
 40
0
 40
0
 40
0
 40
1
 40
1
 40
1
 40
1
 10
26.101792
 20
40.541701
 30
0.0
 10
26.352595
 20
40.541701
 30
0.0
 10
26.566191
 20
40.545830
 30
0.0
 10
26.742580
 20
40.554090
 30
0.0
  0
SPLINE
  5
137
100
AcDbEntity
  8
Layer_1
 62
7
100
AcDbSpline
 70
8
 71
3
 72
8
 73
4
 74
0
 40
0
 40
0
 40
0
 40
0
 40
1
 40
1
 40
1
 40
1
 10
26.742580
 20
40.554090
 30
0.0
 10
26.918969
 20
40.562350
 30
0.0
 10
27.058150
 20
40.589910
 30
0.0
 10
27.160125
 20
40.636770
 30
0.0
  0
SPLINE
  5
138
100
AcDbEntity
  8
Layer_1
 62
7
100
AcDbSpline
 70
8
 71
3
 72
8
 73
4
 74
0
 40
0
 40
0
 40
0
 40
0
 40
1
 40
1
 40
1
 40
1
 10
27.160125
 20
40.636770
 30
0.0
 10
27.303441
 20
40.700161
 30
0.0
 10
27.397148
 20
40.781465
 30
0.0
 10
27.441245
 20
40.880683
 30
0.0
  0
SPLINE
  5
139
100
AcDbEntity
  8
Layer_1
 62
7
100
AcDbSpline
 70
8
 71
3
 72
8
 73
4
 74
0
 40
0
 40
0
 40
0
 40
0
 40
1
 40
1
 40
1
 40
1
 10
27.441245
 20
40.880683
 30
0.0
 10
27.485342
 20
40.982658
 30
0.0
 10
27.507391
 20
41.099791
 30
0.0
 10
27.507391
 20
41.232084
 30
0.0
  0
LINE
  5
13a
100
AcDbEntity
  8
Layer_1
 62
7
100
AcDbLine
 10
27.507391
 20
41.232084
 30
0.0
 11
27.507391
 21
41.232098
 31
0.0
  0
SPLINE
  5
13b
100
AcDbEntity
  8
Layer_1
 62
7
100
AcDbSpline
 70
8
 71
3
 72
8
 73
4
 74
0
 40
0
 40
0
 40
0
 40
0
 40
1
 40
1
 40
1
 40
1
 10
27.895998
 20
38.726825
 30
0.0
 10
27.895998
 20
38.922505
 30
0.0
 10
27.857412
 20
39.072711
 30
0.0
 10
27.780242
 20
39.177444
 30
0.0
  0
SPLINE
  5
13c
100
AcDbEntity
  8
Layer_1
 62
7
100
AcDbSpline
 70
8
 71
3
 72
8
 73
4
 74
0
 40
0
 40
0
 40
0
 40
0
 40
1
 40
1
 40
1
 40
1
 10
27.780242
 20
39.177444
 30
0.0
 10
27.705828
 20
39.284929
 30
0.0
 10
27.577671
 20
39.364855
 30
0.0
 10
27.395770
 20
39.417220
 30
0.0
  0
SPLINE
  5
13d
100
AcDbEntity
  8
Layer_1
 62
7
100
AcDbSpline
 70
8
 71
3
 72
8
 73
4
 74
0
 40
0
 40
0
 40
0
 40
0
 40
1
 40
1
 40
1
 40
1
 10
27.395770
 20
39.417220
 30
0.0
 10
27.271746
 20
39.453049
 30
0.0
 10
27.100870
 20
39.472342
 30
0.0
 10
26.883140
 20
39.475098
 30
0.0
  0
SPLINE
  5
13e
100
AcDbEntity
  8
Layer_1
 62
7
100
AcDbSpline
 70
8
 71
3
 72
8
 73
4
 74
0
 40
0
 40
0
 40
0
 40
0
 40
1
 40
1
 40
1
 40
1
 10
26.883140
 20
39.475098
 30
0.0
 10
26.665409
 20
39.477864
 30
0.0
 10
26.438033
 20
39.479247
 30
0.0
 10
26.201010
 20
39.479247
 30
0.0
  0
LINE
  5
13f
100
AcDbEntity
  8
Layer_1
 62
7
100
AcDbLine
 10
26.201010
 20
39.479247
 30
0.0
 11
25.853745
 21
39.479247
 31
0.0
  0
LINE
  5
140
100
AcDbEntity
  8
Layer_1
 62
7
100
AcDbLine
 10
25.853745
 20
39.479247
 30
0.0
 11
25.853745
 21
37.945490
 31
0.0
  0
LINE
  5
141
100
AcDbEntity
  8
Layer_1
 62
7
100
AcDbLine
 10
25.853745
 20
37.945490
 30
0.0
 11
25.969500
 21
37.945490
 31
0.0
  0
SPLINE
  5
142
100
AcDbEntity
  8
Layer_1
 62
7
100
AcDbSpline
 70
8
 71
3
 72
8
 73
4
 74
0
 40
0
 40
0
 40
0
 40
0
 40
1
 40
1
 40
1
 40
1
 10
25.969500
 20
37.945490
 30
0.0
 10
26.415985
 20
37.945490
 30
0.0
 10
26.735689
 20
37.946864
 30
0.0
 10
26.928615
 20
37.949611
 30
0.0
  0
SPLINE
  5
143
100
AcDbEntity
  8
Layer_1
 62
7
100
AcDbSpline
 70
8
 71
3
 72
8
 73
4
 74
0
 40
0
 40
0
 40
0
 40
0
 40
1
 40
1
 40
1
 40
1
 10
26.928615
 20
37.949611
 30
0.0
 10
27.121540
 20
37.952358
 30
0.0
 10
27.299307
 20
37.988187
 30
0.0
 10
27.461916
 20
38.057098
 30
0.0
  0
SPLINE
  5
144
100
AcDbEntity
  8
Layer_1
 62
7
100
AcDbSpline
 70
8
 71
3
 72
8
 73
4
 74
0
 40
0
 40
0
 40
0
 40
0
 40
1
 40
1
 40
1
 40
1
 10
27.461916
 20
38.057098
 30
0.0
 10
27.627280
 20
38.126000
 30
0.0
 10
27.740279
 20
38.216950
 30
0.0
 10
27.800913
 20
38.329950
 30
0.0
  0
SPLINE
  5
145
100
AcDbEntity
  8
Layer_1
 62
7
100
AcDbSpline
 70
8
 71
3
 72
8
 73
4
 74
0
 40
0
 40
0
 40
0
 40
0
 40
1
 40
1
 40
1
 40
1
 10
27.800913
 20
38.329950
 30
0.0
 10
27.864303
 20
38.445705
 30
0.0
 10
27.895998
 20
38.577996
 30
0.0
 10
27.895998
 20
38.726825
 30
0.0
  0
LINE
  5
146
100
AcDbEntity
  8
Layer_1
 62
7
100
AcDbLine
 10
27.895998
 20
38.726825
 30
0.0
 11
27.895998
 21
38.726825
 31
0.0
  0
LINE
  5
147
100
AcDbEntity
  8
Layer_1
 62
7
100
AcDbLine
 10
32.129332
 20
36.816864
 30
0.0
 11
30.641050
 21
36.816864
 31
0.0
  0
LINE
  5
148
100
AcDbEntity
  8
Layer_1
 62
7
100
AcDbLine
 10
30.641050
 20
36.816864
 30
0.0
 11
30.641050
 21
41.459473
 31
0.0
  0
LINE
  5
149
100
AcDbEntity
  8
Layer_1
 62
7
100
AcDbLine
 10
30.641050
 20
41.459473
 30
0.0
 11
32.129332
 21
41.459473
 31
0.0
  0
LINE
  5
14a
100
AcDbEntity
  8
Layer_1
 62
7
100
AcDbLine
 10
32.129332
 20
41.459473
 30
0.0
 11
32.129332
 21
36.816864
 31
0.0
  0
LINE
  5
14b
100
AcDbEntity
  8
Layer_1
 62
7
100
AcDbLine
 10
32.129332
 20
36.816864
 30
0.0
 11
32.129332
 21
36.816864
 31
0.0
  0
LINE
  5
14c
100
AcDbEntity
  8
Layer_1
 62
7
100
AcDbLine
 10
32.170672
 20
42.120931
 30
0.0
 11
30.599707
 21
42.120931
 31
0.0
  0
LINE
  5
14d
100
AcDbEntity
  8
Layer_1
 62
7
100
AcDbLine
 10
30.599707
 20
42.120931
 30
0.0
 11
30.599707
 21
43.249547
 31
0.0
  0
LINE
  5
14e
100
AcDbEntity
  8
Layer_1
 62
7
100
AcDbLine
 10
30.599707
 20
43.249547
 30
0.0
 11
32.170672
 21
43.249547
 31
0.0
  0
LINE
  5
14f
100
AcDbEntity
  8
Layer_1
 62
7
100
AcDbLine
 10
32.170672
 20
43.249547
 30
0.0
 11
32.170672
 21
42.120931
 31
0.0
  0
LINE
  5
150
100
AcDbEntity
  8
Layer_1
 62
7
100
AcDbLine
 10
32.170672
 20
42.120931
 30
0.0
 11
32.170672
 21
42.120931
 31
0.0
  0
LINE
  5
151
100
AcDbEntity
  8
Layer_1
 62
7
100
AcDbLine
 10
38.198211
 20
36.816864
 30
0.0
 11
36.701662
 21
36.816864
 31
0.0
  0
LINE
  5
152
100
AcDbEntity
  8
Layer_1
 62
7
100
AcDbLine
 10
36.701662
 20
36.816864
 30
0.0
 11
36.701662
 21
39.119566
 31
0.0
  0
SPLINE
  5
153
100
AcDbEntity
  8
Layer_1
 62
7
100
AcDbSpline
 70
8
 71
3
 72
8
 73
4
 74
0
 40
0
 40
0
 40
0
 40
0
 40
1
 40
1
 40
1
 40
1
 10
36.701662
 20
39.119566
 30
0.0
 10
36.701662
 20
39.306978
 30
0.0
 10
36.692016
 20
39.493014
 30
0.0
 10
36.672723
 20
39.677672
 30
0.0
  0
SPLINE
  5
154
100
AcDbEntity
  8
Layer_1
 62
7
100
AcDbSpline
 70
8
 71
3
 72
8
 73
4
 74
0
 40
0
 40
0
 40
0
 40
0
 40
1
 40
1
 40
1
 40
1
 10
36.672723
 20
39.677672
 30
0.0
 10
36.653430
 20
39.865084
 30
0.0
 10
36.620358
 20
40.002887
 30
0.0
 10
36.573505
 20
40.091082
 30
0.0
  0
SPLINE
  5
155
100
AcDbEntity
  8
Layer_1
 62
7
100
AcDbSpline
 70
8
 71
3
 72
8
 73
4
 74
0
 40
0
 40
0
 40
0
 40
0
 40
1
 40
1
 40
1
 40
1
 10
36.573505
 20
40.091082
 30
0.0
 10
36.518383
 20
40.193056
 30
0.0
 10
36.437079
 20
40.267471
 30
0.0
 10
36.329592
 20
40.314325
 30
0.0
  0
SPLINE
  5
156
100
AcDbEntity
  8
Layer_1
 62
7
100
AcDbSpline
 70
8
 71
3
 72
8
 73
4
 74
0
 40
0
 40
0
 40
0
 40
0
 40
1
 40
1
 40
1
 40
1
 10
36.329592
 20
40.314325
 30
0.0
 10
36.224861
 20
40.361178
 30
0.0
 10
36.077411
 20
40.384604
 30
0.0
 10
35.887242
 20
40.384604
 30
0.0
  0
SPLINE
  5
157
100
AcDbEntity
  8
Layer_1
 62
7
100
AcDbSpline
 70
8
 71
3
 72
8
 73
4
 74
0
 40
0
 40
0
 40
0
 40
0
 40
1
 40
1
 40
1
 40
1
 10
35.887242
 20
40.384604
 30
0.0
 10
35.752193
 20
40.384604
 30
0.0
 10
35.614389
 20
40.362555
 30
0.0
 10
35.473829
 20
40.318457
 30
0.0
  0
SPLINE
  5
158
100
AcDbEntity
  8
Layer_1
 62
7
100
AcDbSpline
 70
8
 71
3
 72
8
 73
4
 74
0
 40
0
 40
0
 40
0
 40
0
 40
1
 40
1
 40
1
 40
1
 10
35.473829
 20
40.318457
 30
0.0
 10
35.336026
 20
40.274361
 30
0.0
 10
35.185819
 20
40.204081
 30
0.0
 10
35.023211
 20
40.107617
 30
0.0
  0
LINE
  5
159
100
AcDbEntity
  8
Layer_1
 62
7
100
AcDbLine
 10
35.023211
 20
40.107617
 30
0.0
 11
35.023211
 21
36.816864
 31
0.0
  0
LINE
  5
15a
100
AcDbEntity
  8
Layer_1
 62
7
100
AcDbLine
 10
35.023211
 20
36.816864
 30
0.0
 11
33.534929
 21
36.816864
 31
0.0
  0
LINE
  5
15b
100
AcDbEntity
  8
Layer_1
 62
7
100
AcDbLine
 10
33.534929
 20
36.816864
 30
0.0
 11
33.534929
 21
41.459473
 31
0.0
  0
LINE
  5
15c
100
AcDbEntity
  8
Layer_1
 62
7
100
AcDbLine
 10
33.534929
 20
41.459473
 30
0.0
 11
35.023211
 21
41.459473
 31
0.0
  0
LINE
  5
15d
100
AcDbEntity
  8
Layer_1
 62
7
100
AcDbLine
 10
35.023211
 20
41.459473
 30
0.0
 11
35.023211
 21
40.946845
 31
0.0
  0
SPLINE
  5
15e
100
AcDbEntity
  8
Layer_1
 62
7
100
AcDbSpline
 70
8
 71
3
 72
8
 73
4
 74
0
 40
0
 40
0
 40
0
 40
0
 40
1
 40
1
 40
1
 40
1
 10
35.023211
 20
40.946845
 30
0.0
 10
35.287794
 20
41.153550
 30
0.0
 10
35.541353
 20
41.312024
 30
0.0
 10
35.783887
 20
41.422268
 30
0.0
  0
SPLINE
  5
15f
100
AcDbEntity
  8
Layer_1
 62
7
100
AcDbSpline
 70
8
 71
3
 72
8
 73
4
 74
0
 40
0
 40
0
 40
0
 40
0
 40
1
 40
1
 40
1
 40
1
 10
35.783887
 20
41.422268
 30
0.0
 10
36.029179
 20
41.532509
 30
0.0
 10
36.300654
 20
41.587630
 30
0.0
 10
36.598310
 20
41.587630
 30
0.0
  0
SPLINE
  5
160
100
AcDbEntity
  8
Layer_1
 62
7
100
AcDbSpline
 70
8
 71
3
 72
8
 73
4
 74
0
 40
0
 40
0
 40
0
 40
0
 40
1
 40
1
 40
1
 40
1
 10
36.598310
 20
41.587630
 30
0.0
 10
37.099915
 20
41.587630
 30
0.0
 10
37.491277
 20
41.441559
 30
0.0
 10
37.772396
 20
41.149415
 30
0.0
  0
SPLINE
  5
161
100
AcDbEntity
  8
Layer_1
 62
7
100
AcDbSpline
 70
8
 71
3
 72
8
 73
4
 74
0
 40
0
 40
0
 40
0
 40
0
 40
1
 40
1
 40
1
 40
1
 10
37.772396
 20
41.149415
 30
0.0
 10
38.056272
 20
40.857272
 30
0.0
 10
38.198211
 20
40.420434
 30
0.0
 10
38.198211
 20
39.838902
 30
0.0
  0
LINE
  5
162
100
AcDbEntity
  8
Layer_1
 62
7
100
AcDbLine
 10
38.198211
 20
39.838902
 30
0.0
 11
38.198211
 21
36.816864
 31
0.0
  0
LINE
  5
163
100
AcDbEntity
  8
Layer_1
 62
7
100
AcDbLine
 10
38.198211
 20
36.816864
 30
0.0
 11
38.198211
 21
36.816864
 31
0.0
  0
LINE
  5
164
100
AcDbEntity
  8
Layer_1
 62
7
100
AcDbLine
 10
30.727867
 20
25.810197
 30
0.0
 11
29.148634
 21
25.810197
 31
0.0
  0
LINE
  5
165
100
AcDbEntity
  8
Layer_1
 62
7
100
AcDbLine
 10
29.148634
 20
25.810197
 30
0.0
 11
29.148634
 21
29.931909
 31
0.0
  0
LINE
  5
166
100
AcDbEntity
  8
Layer_1
 62
7
100
AcDbLine
 10
29.148634
 20
29.931909
 30
0.0
 11
28.007619
 21
27.257136
 31
0.0
  0
LINE
  5
167
100
AcDbEntity
  8
Layer_1
 62
7
100
AcDbLine
 10
28.007619
 20
27.257136
 30
0.0
 11
26.912078
 21
27.257136
 31
0.0
  0
LINE
  5
168
100
AcDbEntity
  8
Layer_1
 62
7
100
AcDbLine
 10
26.912078
 20
27.257136
 30
0.0
 11
25.771063
 21
29.931909
 31
0.0
  0
LINE
  5
169
100
AcDbEntity
  8
Layer_1
 62
7
100
AcDbLine
 10
25.771063
 20
29.931909
 30
0.0
 11
25.771063
 21
25.810197
 31
0.0
  0
LINE
  5
16a
100
AcDbEntity
  8
Layer_1
 62
7
100
AcDbLine
 10
25.771063
 20
25.810197
 30
0.0
 11
24.274513
 21
25.810197
 31
0.0
  0
LINE
  5
16b
100
AcDbEntity
  8
Layer_1
 62
7
100
AcDbLine
 10
24.274513
 20
25.810197
 30
0.0
 11
24.274513
 21
31.965893
 31
0.0
  0
LINE
  5
16c
100
AcDbEntity
  8
Layer_1
 62
7
100
AcDbLine
 10
24.274513
 20
31.965893
 30
0.0
 11
26.118328
 21
31.965893
 31
0.0
  0
LINE
  5
16d
100
AcDbEntity
  8
Layer_1
 62
7
100
AcDbLine
 10
26.118328
 20
31.965893
 30
0.0
 11
27.503257
 21
28.877710
 31
0.0
  0
LINE
  5
16e
100
AcDbEntity
  8
Layer_1
 62
7
100
AcDbLine
 10
27.503257
 20
28.877710
 30
0.0
 11
28.884050
 21
31.965893
 31
0.0
  0
LINE
  5
16f
100
AcDbEntity
  8
Layer_1
 62
7
100
AcDbLine
 10
28.884050
 20
31.965893
 30
0.0
 11
30.727867
 21
31.965893
 31
0.0
  0
LINE
  5
170
100
AcDbEntity
  8
Layer_1
 62
7
100
AcDbLine
 10
30.727867
 20
31.965893
 30
0.0
 11
30.727867
 21
25.810197
 31
0.0
  0
LINE
  5
171
100
AcDbEntity
  8
Layer_1
 62
7
100
AcDbLine
 10
30.727867
 20
25.810197
 30
0.0
 11
30.727867
 21
25.810197
 31
0.0
  0
SPLINE
  5
172
100
AcDbEntity
  8
Layer_1
 62
7
100
AcDbSpline
 70
8
 71
3
 72
8
 73
4
 74
0
 40
0
 40
0
 40
0
 40
0
 40
1
 40
1
 40
1
 40
1
 10
36.957976
 20
28.129435
 30
0.0
 10
36.957976
 20
27.366003
 30
0.0
 10
36.734734
 20
26.763801
 30
0.0
 10
36.288249
 20
26.322828
 30
0.0
  0
SPLINE
  5
173
100
AcDbEntity
  8
Layer_1
 62
7
100
AcDbSpline
 70
8
 71
3
 72
8
 73
4
 74
0
 40
0
 40
0
 40
0
 40
0
 40
1
 40
1
 40
1
 40
1
 10
36.288249
 20
26.322828
 30
0.0
 10
35.844522
 20
25.884611
 30
0.0
 10
35.220271
 20
25.665502
 30
0.0
 10
34.415496
 20
25.665502
 30
0.0
  0
SPLINE
  5
174
100
AcDbEntity
  8
Layer_1
 62
7
100
AcDbSpline
 70
8
 71
3
 72
8
 73
4
 74
0
 40
0
 40
0
 40
0
 40
0
 40
1
 40
1
 40
1
 40
1
 10
34.415496
 20
25.665502
 30
0.0
 10
33.610722
 20
25.665502
 30
0.0
 10
32.985093
 20
25.884611
 30
0.0
 10
32.538608
 20
26.322828
 30
0.0
  0
SPLINE
  5
175
100
AcDbEntity
  8
Layer_1
 62
7
100
AcDbSpline
 70
8
 71
3
 72
8
 73
4
 74
0
 40
0
 40
0
 40
0
 40
0
 40
1
 40
1
 40
1
 40
1
 10
32.538608
 20
26.322828
 30
0.0
 10
32.094879
 20
26.763801
 30
0.0
 10
31.873015
 20
27.366003
 30
0.0
 10
31.873015
 20
28.129435
 30
0.0
  0
SPLINE
  5
176
100
AcDbEntity
  8
Layer_1
 62
7
100
AcDbSpline
 70
8
 71
3
 72
8
 73
4
 74
0
 40
0
 40
0
 40
0
 40
0
 40
1
 40
1
 40
1
 40
1
 10
31.873015
 20
28.129435
 30
0.0
 10
31.873015
 20
28.898381
 30
0.0
 10
32.096258
 20
29.501962
 30
0.0
 10
32.542742
 20
29.940178
 30
0.0
  0
SPLINE
  5
177
100
AcDbEntity
  8
Layer_1
 62
7
100
AcDbSpline
 70
8
 71
3
 72
8
 73
4
 74
0
 40
0
 40
0
 40
0
 40
0
 40
1
 40
1
 40
1
 40
1
 10
32.542742
 20
29.940178
 30
0.0
 10
32.991982
 20
30.378394
 30
0.0
 10
33.616233
 20
30.597502
 30
0.0
 10
34.415496
 20
30.597502
 30
0.0
  0
SPLINE
  5
178
100
AcDbEntity
  8
Layer_1
 62
7
100
AcDbSpline
 70
8
 71
3
 72
8
 73
4
 74
0
 40
0
 40
0
 40
0
 40
0
 40
1
 40
1
 40
1
 40
1
 10
34.415496
 20
30.597502
 30
0.0
 10
35.225782
 20
30.597502
 30
0.0
 10
35.851411
 20
30.377016
 30
0.0
 10
36.292384
 20
29.936043
 30
0.0
  0
SPLINE
  5
179
100
AcDbEntity
  8
Layer_1
 62
7
100
AcDbSpline
 70
8
 71
3
 72
8
 73
4
 74
0
 40
0
 40
0
 40
0
 40
0
 40
1
 40
1
 40
1
 40
1
 10
36.292384
 20
29.936043
 30
0.0
 10
36.736112
 20
29.495071
 30
0.0
 10
36.957976
 20
28.892868
 30
0.0
 10
36.957976
 20
28.129435
 30
0.0
  0
LINE
  5
17a
100
AcDbEntity
  8
Layer_1
 62
7
100
AcDbLine
 10
36.957976
 20
28.129435
 30
0.0
 11
36.957976
 21
28.129435
 31
0.0
  0
SPLINE
  5
17b
100
AcDbEntity
  8
Layer_1
 62
7
100
AcDbSpline
 70
8
 71
3
 72
8
 73
4
 74
0
 40
0
 40
0
 40
0
 40
0
 40
1
 40
1
 40
1
 40
1
 10
35.126563
 20
27.000822
 30
0.0
 10
35.223027
 20
27.119333
 30
0.0
 10
35.294685
 20
27.261271
 30
0.0
 10
35.341537
 20
27.426636
 30
0.0
  0
SPLINE
  5
17c
100
AcDbEntity
  8
Layer_1
 62
7
100
AcDbSpline
 70
8
 71
3
 72
8
 73
4
 74
0
 40
0
 40
0
 40
0
 40
0
 40
1
 40
1
 40
1
 40
1
 10
35.341537
 20
27.426636
 30
0.0
 10
35.391146
 20
27.594756
 30
0.0
 10
35.415951
 20
27.826267
 30
0.0
 10
35.415951
 20
28.121168
 30
0.0
  0
SPLINE
  5
17d
100
AcDbEntity
  8
Layer_1
 62
7
100
AcDbSpline
 70
8
 71
3
 72
8
 73
4
 74
0
 40
0
 40
0
 40
0
 40
0
 40
1
 40
1
 40
1
 40
1
 10
35.415951
 20
28.121168
 30
0.0
 10
35.415951
 20
28.394019
 30
0.0
 10
35.391146
 20
28.622773
 30
0.0
 10
35.341537
 20
28.807431
 30
0.0
  0
SPLINE
  5
17e
100
AcDbEntity
  8
Layer_1
 62
7
100
AcDbSpline
 70
8
 71
3
 72
8
 73
4
 74
0
 40
0
 40
0
 40
0
 40
0
 40
1
 40
1
 40
1
 40
1
 10
35.341537
 20
28.807431
 30
0.0
 10
35.291928
 20
28.992087
 30
0.0
 10
35.223027
 20
29.139537
 30
0.0
 10
35.134832
 20
29.249781
 30
0.0
  0
SPLINE
  5
17f
100
AcDbEntity
  8
Layer_1
 62
7
100
AcDbSpline
 70
8
 71
3
 72
8
 73
4
 74
0
 40
0
 40
0
 40
0
 40
0
 40
1
 40
1
 40
1
 40
1
 10
35.134832
 20
29.249781
 30
0.0
 10
35.046638
 20
29.362779
 30
0.0
 10
34.940529
 20
29.442705
 30
0.0
 10
34.816505
 20
29.489559
 30
0.0
  0
SPLINE
  5
180
100
AcDbEntity
  8
Layer_1
 62
7
100
AcDbSpline
 70
8
 71
3
 72
8
 73
4
 74
0
 40
0
 40
0
 40
0
 40
0
 40
1
 40
1
 40
1
 40
1
 10
34.816505
 20
29.489559
 30
0.0
 10
34.692482
 20
29.536412
 30
0.0
 10
34.558812
 20
29.559838
 30
0.0
 10
34.415496
 20
29.559838
 30
0.0
  0
SPLINE
  5
181
100
AcDbEntity
  8
Layer_1
 62
7
100
AcDbSpline
 70
8
 71
3
 72
8
 73
4
 74
0
 40
0
 40
0
 40
0
 40
0
 40
1
 40
1
 40
1
 40
1
 10
34.415496
 20
29.559838
 30
0.0
 10
34.272180
 20
29.559838
 30
0.0
 10
34.144022
 20
29.540546
 30
0.0
 10
34.031024
 20
29.501960
 30
0.0
  0
SPLINE
  5
182
100
AcDbEntity
  8
Layer_1
 62
7
100
AcDbSpline
 70
8
 71
3
 72
8
 73
4
 74
0
 40
0
 40
0
 40
0
 40
0
 40
1
 40
1
 40
1
 40
1
 10
34.031024
 20
29.501960
 30
0.0
 10
33.920781
 20
29.463377
 30
0.0
 10
33.814672
 20
29.386207
 30
0.0
 10
33.712698
 20
29.270451
 30
0.0
  0
SPLINE
  5
183
100
AcDbEntity
  8
Layer_1
 62
7
100
AcDbSpline
 70
8
 71
3
 72
8
 73
4
 74
0
 40
0
 40
0
 40
0
 40
0
 40
1
 40
1
 40
1
 40
1
 10
33.712698
 20
29.270451
 30
0.0
 10
33.621747
 20
29.162963
 30
0.0
 10
33.548710
 20
29.015514
 30
0.0
 10
33.493589
 20
28.828101
 30
0.0
  0
SPLINE
  5
184
100
AcDbEntity
  8
Layer_1
 62
7
100
AcDbSpline
 70
8
 71
3
 72
8
 73
4
 74
0
 40
0
 40
0
 40
0
 40
0
 40
1
 40
1
 40
1
 40
1
 10
33.493589
 20
28.828101
 30
0.0
 10
33.441223
 20
28.640687
 30
0.0
 10
33.415041
 20
28.405042
 30
0.0
 10
33.415041
 20
28.121168
 30
0.0
  0
SPLINE
  5
185
100
AcDbEntity
  8
Layer_1
 62
7
100
AcDbSpline
 70
8
 71
3
 72
8
 73
4
 74
0
 40
0
 40
0
 40
0
 40
0
 40
1
 40
1
 40
1
 40
1
 10
33.415041
 20
28.121168
 30
0.0
 10
33.415041
 20
27.867609
 30
0.0
 10
33.438467
 20
27.647122
 30
0.0
 10
33.485320
 20
27.459710
 30
0.0
  0
SPLINE
  5
186
100
AcDbEntity
  8
Layer_1
 62
7
100
AcDbSpline
 70
8
 71
3
 72
8
 73
4
 74
0
 40
0
 40
0
 40
0
 40
0
 40
1
 40
1
 40
1
 40
1
 10
33.485320
 20
27.459710
 30
0.0
 10
33.532174
 20
27.275052
 30
0.0
 10
33.601077
 20
27.126223
 30
0.0
 10
33.692028
 20
27.013223
 30
0.0
  0
SPLINE
  5
187
100
AcDbEntity
  8
Layer_1
 62
7
100
AcDbSpline
 70
8
 71
3
 72
8
 73
4
 74
0
 40
0
 40
0
 40
0
 40
0
 40
1
 40
1
 40
1
 40
1
 10
33.692028
 20
27.013223
 30
0.0
 10
33.780222
 20
26.905738
 30
0.0
 10
33.884953
 20
26.827190
 30
0.0
 10
34.006220
 20
26.777579
 30
0.0
  0
SPLINE
  5
188
100
AcDbEntity
  8
Layer_1
 62
7
100
AcDbSpline
 70
8
 71
3
 72
8
 73
4
 74
0
 40
0
 40
0
 40
0
 40
0
 40
1
 40
1
 40
1
 40
1
 10
34.006220
 20
26.777579
 30
0.0
 10
34.130243
 20
26.727970
 30
0.0
 10
34.270803
 20
26.703165
 30
0.0
 10
34.427899
 20
26.703165
 30
0.0
  0
SPLINE
  5
189
100
AcDbEntity
  8
Layer_1
 62
7
100
AcDbSpline
 70
8
 71
3
 72
8
 73
4
 74
0
 40
0
 40
0
 40
0
 40
0
 40
1
 40
1
 40
1
 40
1
 10
34.427899
 20
26.703165
 30
0.0
 10
34.562947
 20
26.703165
 30
0.0
 10
34.691104
 20
26.725214
 30
0.0
 10
34.812371
 20
26.769313
 30
0.0
  0
SPLINE
  5
18a
100
AcDbEntity
  8
Layer_1
 62
7
100
AcDbSpline
 70
8
 71
3
 72
8
 73
4
 74
0
 40
0
 40
0
 40
0
 40
0
 40
1
 40
1
 40
1
 40
1
 10
34.812371
 20
26.769313
 30
0.0
 10
34.936394
 20
26.816165
 30
0.0
 10
35.041125
 20
26.893335
 30
0.0
 10
35.126563
 20
27.000822
 30
0.0
  0
LINE
  5
18b
100
AcDbEntity
  8
Layer_1
 62
7
100
AcDbLine
 10
35.126563
 20
27.000822
 30
0.0
 11
35.126563
 21
27.000822
 31
0.0
  0
LINE
  5
18c
100
AcDbEntity
  8
Layer_1
 62
7
100
AcDbLine
 10
42.696127
 20
25.810197
 30
0.0
 11
41.199579
 21
25.810197
 31
0.0
  0
LINE
  5
18d
100
AcDbEntity
  8
Layer_1
 62
7
100
AcDbLine
 10
41.199579
 20
25.810197
 30
0.0
 11
41.199579
 21
28.112899
 31
0.0
  0
SPLINE
  5
18e
100
AcDbEntity
  8
Layer_1
 62
7
100
AcDbSpline
 70
8
 71
3
 72
8
 73
4
 74
0
 40
0
 40
0
 40
0
 40
0
 40
1
 40
1
 40
1
 40
1
 10
41.199579
 20
28.112899
 30
0.0
 10
41.199579
 20
28.300312
 30
0.0
 10
41.189933
 20
28.486347
 30
0.0
 10
41.170640
 20
28.671005
 30
0.0
  0
SPLINE
  5
18f
100
AcDbEntity
  8
Layer_1
 62
7
100
AcDbSpline
 70
8
 71
3
 72
8
 73
4
 74
0
 40
0
 40
0
 40
0
 40
0
 40
1
 40
1
 40
1
 40
1
 10
41.170640
 20
28.671005
 30
0.0
 10
41.151347
 20
28.858417
 30
0.0
 10
41.118274
 20
28.996221
 30
0.0
 10
41.071422
 20
29.084415
 30
0.0
  0
SPLINE
  5
190
100
AcDbEntity
  8
Layer_1
 62
7
100
AcDbSpline
 70
8
 71
3
 72
8
 73
4
 74
0
 40
0
 40
0
 40
0
 40
0
 40
1
 40
1
 40
1
 40
1
 10
41.071422
 20
29.084415
 30
0.0
 10
41.016300
 20
29.186390
 30
0.0
 10
40.934996
 20
29.260804
 30
0.0
 10
40.827508
 20
29.307659
 30
0.0
  0
SPLINE
  5
191
100
AcDbEntity
  8
Layer_1
 62
7
100
AcDbSpline
 70
8
 71
3
 72
8
 73
4
 74
0
 40
0
 40
0
 40
0
 40
0
 40
1
 40
1
 40
1
 40
1
 10
40.827508
 20
29.307659
 30
0.0
 10
40.722778
 20
29.354511
 30
0.0
 10
40.575328
 20
29.377938
 30
0.0
 10
40.385159
 20
29.377938
 30
0.0
  0
SPLINE
  5
192
100
AcDbEntity
  8
Layer_1
 62
7
100
AcDbSpline
 70
8
 71
3
 72
8
 73
4
 74
0
 40
0
 40
0
 40
0
 40
0
 40
1
 40
1
 40
1
 40
1
 10
40.385159
 20
29.377938
 30
0.0
 10
40.250110
 20
29.377938
 30
0.0
 10
40.112306
 20
29.355890
 30
0.0
 10
39.971746
 20
29.311793
 30
0.0
  0
SPLINE
  5
193
100
AcDbEntity
  8
Layer_1
 62
7
100
AcDbSpline
 70
8
 71
3
 72
8
 73
4
 74
0
 40
0
 40
0
 40
0
 40
0
 40
1
 40
1
 40
1
 40
1
 10
39.971746
 20
29.311793
 30
0.0
 10
39.833942
 20
29.267695
 30
0.0
 10
39.683736
 20
29.197415
 30
0.0
 10
39.521127
 20
29.100953
 30
0.0
  0
LINE
  5
194
100
AcDbEntity
  8
Layer_1
 62
7
100
AcDbLine
 10
39.521127
 20
29.100953
 30
0.0
 11
39.521127
 21
25.810197
 31
0.0
  0
LINE
  5
195
100
AcDbEntity
  8
Layer_1
 62
7
100
AcDbLine
 10
39.521127
 20
25.810197
 30
0.0
 11
38.032845
 21
25.810197
 31
0.0
  0
LINE
  5
196
100
AcDbEntity
  8
Layer_1
 62
7
100
AcDbLine
 10
38.032845
 20
25.810197
 30
0.0
 11
38.032845
 21
30.452806
 31
0.0
  0
LINE
  5
197
100
AcDbEntity
  8
Layer_1
 62
7
100
AcDbLine
 10
38.032845
 20
30.452806
 30
0.0
 11
39.521127
 21
30.452806
 31
0.0
  0
LINE
  5
198
100
AcDbEntity
  8
Layer_1
 62
7
100
AcDbLine
 10
39.521127
 20
30.452806
 30
0.0
 11
39.521127
 21
29.940178
 31
0.0
  0
SPLINE
  5
199
100
AcDbEntity
  8
Layer_1
 62
7
100
AcDbSpline
 70
8
 71
3
 72
8
 73
4
 74
0
 40
0
 40
0
 40
0
 40
0
 40
1
 40
1
 40
1
 40
1
 10
39.521127
 20
29.940178
 30
0.0
 10
39.785711
 20
30.146883
 30
0.0
 10
40.039269
 20
30.305358
 30
0.0
 10
40.281804
 20
30.415601
 30
0.0
  0
SPLINE
  5
19a
100
AcDbEntity
  8
Layer_1
 62
7
100
AcDbSpline
 70
8
 71
3
 72
8
 73
4
 74
0
 40
0
 40
0
 40
0
 40
0
 40
1
 40
1
 40
1
 40
1
 10
40.281804
 20
30.415601
 30
0.0
 10
40.527096
 20
30.525845
 30
0.0
 10
40.798570
 20
30.580966
 30
0.0
 10
41.096226
 20
30.580966
 30
0.0
  0
SPLINE
  5
19b
100
AcDbEntity
  8
Layer_1
 62
7
100
AcDbSpline
 70
8
 71
3
 72
8
 73
4
 74
0
 40
0
 40
0
 40
0
 40
0
 40
1
 40
1
 40
1
 40
1
 10
41.096226
 20
30.580966
 30
0.0
 10
41.597831
 20
30.580966
 30
0.0
 10
41.989193
 20
30.434894
 30
0.0
 10
42.270313
 20
30.142749
 30
0.0
  0
SPLINE
  5
19c
100
AcDbEntity
  8
Layer_1
 62
7
100
AcDbSpline
 70
8
 71
3
 72
8
 73
4
 74
0
 40
0
 40
0
 40
0
 40
0
 40
1
 40
1
 40
1
 40
1
 10
42.270313
 20
30.142749
 30
0.0
 10
42.554189
 20
29.850605
 30
0.0
 10
42.696127
 20
29.413768
 30
0.0
 10
42.696127
 20
28.832236
 30
0.0
  0
LINE
  5
19d
100
AcDbEntity
  8
Layer_1
 62
7
100
AcDbLine
 10
42.696127
 20
28.832236
 30
0.0
 11
42.696127
 21
25.810197
 31
0.0
  0
LINE
  5
19e
100
AcDbEntity
  8
Layer_1
 62
7
100
AcDbLine
 10
42.696127
 20
25.810197
 30
0.0
 11
42.696127
 21
25.810197
 31
0.0
  0
LINE
  5
19f
100
AcDbEntity
  8
Layer_1
 62
7
100
AcDbLine
 10
45.556935
 20
25.810197
 30
0.0
 11
44.068653
 21
25.810197
 31
0.0
  0
LINE
  5
1a0
100
AcDbEntity
  8
Layer_1
 62
7
100
AcDbLine
 10
44.068653
 20
25.810197
 30
0.0
 11
44.068653
 21
30.452806
 31
0.0
  0
LINE
  5
1a1
100
AcDbEntity
  8
Layer_1
 62
7
100
AcDbLine
 10
44.068653
 20
30.452806
 30
0.0
 11
45.556935
 21
30.452806
 31
0.0
  0
LINE
  5
1a2
100
AcDbEntity
  8
Layer_1
 62
7
100
AcDbLine
 10
45.556935
 20
30.452806
 30
0.0
 11
45.556935
 21
25.810197
 31
0.0
  0
LINE
  5
1a3
100
AcDbEntity
  8
Layer_1
 62
7
100
AcDbLine
 10
45.556935
 20
25.810197
 30
0.0
 11
45.556935
 21
25.810197
 31
0.0
  0
LINE
  5
1a4
100
AcDbEntity
  8
Layer_1
 62
7
100
AcDbLine
 10
45.598278
 20
31.114265
 30
0.0
 11
44.027313
 21
31.114265
 31
0.0
  0
LINE
  5
1a5
100
AcDbEntity
  8
Layer_1
 62
7
100
AcDbLine
 10
44.027313
 20
31.114265
 30
0.0
 11
44.027313
 21
32.242880
 31
0.0
  0
LINE
  5
1a6
100
AcDbEntity
  8
Layer_1
 62
7
100
AcDbLine
 10
44.027313
 20
32.242880
 30
0.0
 11
45.598278
 21
32.242880
 31
0.0
  0
LINE
  5
1a7
100
AcDbEntity
  8
Layer_1
 62
7
100
AcDbLine
 10
45.598278
 20
32.242880
 30
0.0
 11
45.598278
 21
31.114265
 31
0.0
  0
LINE
  5
1a8
100
AcDbEntity
  8
Layer_1
 62
7
100
AcDbLine
 10
45.598278
 20
31.114265
 30
0.0
 11
45.598278
 21
31.114265
 31
0.0
  0
SPLINE
  5
1a9
100
AcDbEntity
  8
Layer_1
 62
7
100
AcDbSpline
 70
8
 71
3
 72
8
 73
4
 74
0
 40
0
 40
0
 40
0
 40
0
 40
1
 40
1
 40
1
 40
1
 10
49.930829
 20
25.851537
 30
0.0
 10
49.770976
 20
25.810197
 30
0.0
 10
49.601477
 20
25.778503
 30
0.0
 10
49.422332
 20
25.756454
 30
0.0
  0
SPLINE
  5
1aa
100
AcDbEntity
  8
Layer_1
 62
7
100
AcDbSpline
 70
8
 71
3
 72
8
 73
4
 74
0
 40
0
 40
0
 40
0
 40
0
 40
1
 40
1
 40
1
 40
1
 10
49.422332
 20
25.756454
 30
0.0
 10
49.243187
 20
25.731648
 30
0.0
 10
49.024079
 20
25.719245
 30
0.0
 10
48.765008
 20
25.719245
 30
0.0
  0
SPLINE
  5
1ab
100
AcDbEntity
  8
Layer_1
 62
7
100
AcDbSpline
 70
8
 71
3
 72
8
 73
4
 74
0
 40
0
 40
0
 40
0
 40
0
 40
1
 40
1
 40
1
 40
1
 10
48.765008
 20
25.719245
 30
0.0
 10
48.186233
 20
25.719245
 30
0.0
 10
47.754907
 20
25.836379
 30
0.0
 10
47.471031
 20
26.070646
 30
0.0
  0
SPLINE
  5
1ac
100
AcDbEntity
  8
Layer_1
 62
7
100
AcDbSpline
 70
8
 71
3
 72
8
 73
4
 74
0
 40
0
 40
0
 40
0
 40
0
 40
1
 40
1
 40
1
 40
1
 10
47.471031
 20
26.070646
 30
0.0
 10
47.189911
 20
26.304913
 30
0.0
 10
47.049351
 20
26.705923
 30
0.0
 10
47.049351
 20
27.273675
 30
0.0
  0
LINE
  5
1ad
100
AcDbEntity
  8
Layer_1
 62
7
100
AcDbLine
 10
47.049351
 20
27.273675
 30
0.0
 11
47.049351
 21
29.444085
 31
0.0
  0
LINE
  5
1ae
100
AcDbEntity
  8
Layer_1
 62
7
100
AcDbLine
 10
47.049351
 20
29.444085
 30
0.0
 11
46.437502
 21
29.444085
 31
0.0
  0
LINE
  5
1af
100
AcDbEntity
  8
Layer_1
 62
7
100
AcDbLine
 10
46.437502
 20
29.444085
 30
0.0
 11
46.437502
 21
30.452806
 31
0.0
  0
LINE
  5
1b0
100
AcDbEntity
  8
Layer_1
 62
7
100
AcDbLine
 10
46.437502
 20
30.452806
 30
0.0
 11
47.049351
 21
30.452806
 31
0.0
  0
LINE
  5
1b1
100
AcDbEntity
  8
Layer_1
 62
7
100
AcDbLine
 10
47.049351
 20
30.452806
 30
0.0
 11
47.049351
 21
31.779858
 31
0.0
  0
LINE
  5
1b2
100
AcDbEntity
  8
Layer_1
 62
7
100
AcDbLine
 10
47.049351
 20
31.779858
 30
0.0
 11
48.537630
 21
31.779858
 31
0.0
  0
LINE
  5
1b3
100
AcDbEntity
  8
Layer_1
 62
7
100
AcDbLine
 10
48.537630
 20
31.779858
 30
0.0
 11
48.537630
 21
30.452806
 31
0.0
  0
LINE
  5
1b4
100
AcDbEntity
  8
Layer_1
 62
7
100
AcDbLine
 10
48.537630
 20
30.452806
 30
0.0
 11
49.930829
 21
30.452806
 31
0.0
  0
LINE
  5
1b5
100
AcDbEntity
  8
Layer_1
 62
7
100
AcDbLine
 10
49.930829
 20
30.452806
 30
0.0
 11
49.930829
 21
29.444085
 31
0.0
  0
LINE
  5
1b6
100
AcDbEntity
  8
Layer_1
 62
7
100
AcDbLine
 10
49.930829
 20
29.444085
 30
0.0
 11
48.537630
 21
29.444085
 31
0.0
  0
LINE
  5
1b7
100
AcDbEntity
  8
Layer_1
 62
7
100
AcDbLine
 10
48.537630
 20
29.444085
 30
0.0
 11
48.537630
 21
27.798707
 31
0.0
  0
SPLINE
  5
1b8
100
AcDbEntity
  8
Layer_1
 62
7
100
AcDbSpline
 70
8
 71
3
 72
8
 73
4
 74
0
 40
0
 40
0
 40
0
 40
0
 40
1
 40
1
 40
1
 40
1
 10
48.537630
 20
27.798707
 30
0.0
 10
48.537630
 20
27.636098
 30
0.0
 10
48.539004
 20
27.494160
 30
0.0
 10
48.541751
 20
27.372893
 30
0.0
  0
SPLINE
  5
1b9
100
AcDbEntity
  8
Layer_1
 62
7
100
AcDbSpline
 70
8
 71
3
 72
8
 73
4
 74
0
 40
0
 40
0
 40
0
 40
0
 40
1
 40
1
 40
1
 40
1
 10
48.541751
 20
27.372893
 30
0.0
 10
48.544498
 20
27.251626
 30
0.0
 10
48.566547
 20
27.142760
 30
0.0
 10
48.607898
 20
27.046297
 30
0.0
  0
SPLINE
  5
1ba
100
AcDbEntity
  8
Layer_1
 62
7
100
AcDbSpline
 70
8
 71
3
 72
8
 73
4
 74
0
 40
0
 40
0
 40
0
 40
0
 40
1
 40
1
 40
1
 40
1
 10
48.607898
 20
27.046297
 30
0.0
 10
48.646484
 20
26.949835
 30
0.0
 10
48.714007
 20
26.872665
 30
0.0
 10
48.810469
 20
26.814787
 30
0.0
  0
SPLINE
  5
1bb
100
AcDbEntity
  8
Layer_1
 62
7
100
AcDbSpline
 70
8
 71
3
 72
8
 73
4
 74
0
 40
0
 40
0
 40
0
 40
0
 40
1
 40
1
 40
1
 40
1
 10
48.810469
 20
26.814787
 30
0.0
 10
48.909687
 20
26.759665
 30
0.0
 10
49.053003
 20
26.732104
 30
0.0
 10
49.240417
 20
26.732104
 30
0.0
  0
SPLINE
  5
1bc
100
AcDbEntity
  8
Layer_1
 62
7
100
AcDbSpline
 70
8
 71
3
 72
8
 73
4
 74
0
 40
0
 40
0
 40
0
 40
0
 40
1
 40
1
 40
1
 40
1
 10
49.240417
 20
26.732104
 30
0.0
 10
49.317586
 20
26.732104
 30
0.0
 10
49.418183
 20
26.748641
 30
0.0
 10
49.542206
 20
26.781713
 30
0.0
  0
SPLINE
  5
1bd
100
AcDbEntity
  8
Layer_1
 62
7
100
AcDbSpline
 70
8
 71
3
 72
8
 73
4
 74
0
 40
0
 40
0
 40
0
 40
0
 40
1
 40
1
 40
1
 40
1
 10
49.542206
 20
26.781713
 30
0.0
 10
49.668986
 20
26.814786
 30
0.0
 10
49.757180
 20
26.845103
 30
0.0
 10
49.806789
 20
26.872665
 30
0.0
  0
LINE
  5
1be
100
AcDbEntity
  8
Layer_1
 62
7
100
AcDbLine
 10
49.806789
 20
26.872665
 30
0.0
 11
49.930815
 21
26.872665
 31
0.0
  0
LINE
  5
1bf
100
AcDbEntity
  8
Layer_1
 62
7
100
AcDbLine
 10
49.930815
 20
26.872665
 30
0.0
 11
49.930815
 21
25.851537
 31
0.0
  0
LINE
  5
1c0
100
AcDbEntity
  8
Layer_1
 62
7
100
AcDbLine
 10
49.930815
 20
25.851537
 30
0.0
 11
49.930829
 21
25.851537
 31
0.0
  0
SPLINE
  5
1c1
100
AcDbEntity
  8
Layer_1
 62
7
100
AcDbSpline
 70
8
 71
3
 72
8
 73
4
 74
0
 40
0
 40
0
 40
0
 40
0
 40
1
 40
1
 40
1
 40
1
 10
55.561492
 20
28.129435
 30
0.0
 10
55.561492
 20
27.366003
 30
0.0
 10
55.338250
 20
26.763801
 30
0.0
 10
54.891765
 20
26.322828
 30
0.0
  0
SPLINE
  5
1c2
100
AcDbEntity
  8
Layer_1
 62
7
100
AcDbSpline
 70
8
 71
3
 72
8
 73
4
 74
0
 40
0
 40
0
 40
0
 40
0
 40
1
 40
1
 40
1
 40
1
 10
54.891765
 20
26.322828
 30
0.0
 10
54.448036
 20
25.884611
 30
0.0
 10
53.823785
 20
25.665502
 30
0.0
 10
53.019012
 20
25.665502
 30
0.0
  0
SPLINE
  5
1c3
100
AcDbEntity
  8
Layer_1
 62
7
100
AcDbSpline
 70
8
 71
3
 72
8
 73
4
 74
0
 40
0
 40
0
 40
0
 40
0
 40
1
 40
1
 40
1
 40
1
 10
53.019012
 20
25.665502
 30
0.0
 10
52.214238
 20
25.665502
 30
0.0
 10
51.588609
 20
25.884611
 30
0.0
 10
51.142124
 20
26.322828
 30
0.0
  0
SPLINE
  5
1c4
100
AcDbEntity
  8
Layer_1
 62
7
100
AcDbSpline
 70
8
 71
3
 72
8
 73
4
 74
0
 40
0
 40
0
 40
0
 40
0
 40
1
 40
1
 40
1
 40
1
 10
51.142124
 20
26.322828
 30
0.0
 10
50.698395
 20
26.763801
 30
0.0
 10
50.476531
 20
27.366003
 30
0.0
 10
50.476531
 20
28.129435
 30
0.0
  0
SPLINE
  5
1c5
100
AcDbEntity
  8
Layer_1
 62
7
100
AcDbSpline
 70
8
 71
3
 72
8
 73
4
 74
0
 40
0
 40
0
 40
0
 40
0
 40
1
 40
1
 40
1
 40
1
 10
50.476531
 20
28.129435
 30
0.0
 10
50.476531
 20
28.898381
 30
0.0
 10
50.699773
 20
29.501962
 30
0.0
 10
51.146258
 20
29.940178
 30
0.0
  0
SPLINE
  5
1c6
100
AcDbEntity
  8
Layer_1
 62
7
100
AcDbSpline
 70
8
 71
3
 72
8
 73
4
 74
0
 40
0
 40
0
 40
0
 40
0
 40
1
 40
1
 40
1
 40
1
 10
51.146258
 20
29.940178
 30
0.0
 10
51.595498
 20
30.378394
 30
0.0
 10
52.219749
 20
30.597502
 30
0.0
 10
53.019012
 20
30.597502
 30
0.0
  0
SPLINE
  5
1c7
100
AcDbEntity
  8
Layer_1
 62
7
100
AcDbSpline
 70
8
 71
3
 72
8
 73
4
 74
0
 40
0
 40
0
 40
0
 40
0
 40
1
 40
1
 40
1
 40
1
 10
53.019012
 20
30.597502
 30
0.0
 10
53.829298
 20
30.597502
 30
0.0
 10
54.454927
 20
30.377016
 30
0.0
 10
54.895900
 20
29.936043
 30
0.0
  0
SPLINE
  5
1c8
100
AcDbEntity
  8
Layer_1
 62
7
100
AcDbSpline
 70
8
 71
3
 72
8
 73
4
 74
0
 40
0
 40
0
 40
0
 40
0
 40
1
 40
1
 40
1
 40
1
 10
54.895900
 20
29.936043
 30
0.0
 10
55.339628
 20
29.495071
 30
0.0
 10
55.561492
 20
28.892868
 30
0.0
 10
55.561492
 20
28.129435
 30
0.0
  0
LINE
  5
1c9
100
AcDbEntity
  8
Layer_1
 62
7
100
AcDbLine
 10
55.561492
 20
28.129435
 30
0.0
 11
55.561492
 21
28.129435
 31
0.0
  0
SPLINE
  5
1ca
100
AcDbEntity
  8
Layer_1
 62
7
100
AcDbSpline
 70
8
 71
3
 72
8
 73
4
 74
0
 40
0
 40
0
 40
0
 40
0
 40
1
 40
1
 40
1
 40
1
 10
53.730079
 20
27.000822
 30
0.0
 10
53.826543
 20
27.119333
 30
0.0
 10
53.898201
 20
27.261271
 30
0.0
 10
53.945053
 20
27.426636
 30
0.0
  0
SPLINE
  5
1cb
100
AcDbEntity
  8
Layer_1
 62
7
100
AcDbSpline
 70
8
 71
3
 72
8
 73
4
 74
0
 40
0
 40
0
 40
0
 40
0
 40
1
 40
1
 40
1
 40
1
 10
53.945053
 20
27.426636
 30
0.0
 10
53.994662
 20
27.594756
 30
0.0
 10
54.019467
 20
27.826267
 30
0.0
 10
54.019467
 20
28.121168
 30
0.0
  0
SPLINE
  5
1cc
100
AcDbEntity
  8
Layer_1
 62
7
100
AcDbSpline
 70
8
 71
3
 72
8
 73
4
 74
0
 40
0
 40
0
 40
0
 40
0
 40
1
 40
1
 40
1
 40
1
 10
54.019467
 20
28.121168
 30
0.0
 10
54.019467
 20
28.394019
 30
0.0
 10
53.994662
 20
28.622773
 30
0.0
 10
53.945053
 20
28.807431
 30
0.0
  0
SPLINE
  5
1cd
100
AcDbEntity
  8
Layer_1
 62
7
100
AcDbSpline
 70
8
 71
3
 72
8
 73
4
 74
0
 40
0
 40
0
 40
0
 40
0
 40
1
 40
1
 40
1
 40
1
 10
53.945053
 20
28.807431
 30
0.0
 10
53.895444
 20
28.992087
 30
0.0
 10
53.826543
 20
29.139537
 30
0.0
 10
53.738348
 20
29.249781
 30
0.0
  0
SPLINE
  5
1ce
100
AcDbEntity
  8
Layer_1
 62
7
100
AcDbSpline
 70
8
 71
3
 72
8
 73
4
 74
0
 40
0
 40
0
 40
0
 40
0
 40
1
 40
1
 40
1
 40
1
 10
53.738348
 20
29.249781
 30
0.0
 10
53.650154
 20
29.362779
 30
0.0
 10
53.544045
 20
29.442705
 30
0.0
 10
53.420021
 20
29.489559
 30
0.0
  0
SPLINE
  5
1cf
100
AcDbEntity
  8
Layer_1
 62
7
100
AcDbSpline
 70
8
 71
3
 72
8
 73
4
 74
0
 40
0
 40
0
 40
0
 40
0
 40
1
 40
1
 40
1
 40
1
 10
53.420021
 20
29.489559
 30
0.0
 10
53.295998
 20
29.536412
 30
0.0
 10
53.162328
 20
29.559838
 30
0.0
 10
53.019012
 20
29.559838
 30
0.0
  0
SPLINE
  5
1d0
100
AcDbEntity
  8
Layer_1
 62
7
100
AcDbSpline
 70
8
 71
3
 72
8
 73
4
 74
0
 40
0
 40
0
 40
0
 40
0
 40
1
 40
1
 40
1
 40
1
 10
53.019012
 20
29.559838
 30
0.0
 10
52.875696
 20
29.559838
 30
0.0
 10
52.747538
 20
29.540546
 30
0.0
 10
52.634540
 20
29.501960
 30
0.0
  0
SPLINE
  5
1d1
100
AcDbEntity
  8
Layer_1
 62
7
100
AcDbSpline
 70
8
 71
3
 72
8
 73
4
 74
0
 40
0
 40
0
 40
0
 40
0
 40
1
 40
1
 40
1
 40
1
 10
52.634540
 20
29.501960
 30
0.0
 10
52.524297
 20
29.463377
 30
0.0
 10
52.418188
 20
29.386207
 30
0.0
 10
52.316213
 20
29.270451
 30
0.0
  0
SPLINE
  5
1d2
100
AcDbEntity
  8
Layer_1
 62
7
100
AcDbSpline
 70
8
 71
3
 72
8
 73
4
 74
0
 40
0
 40
0
 40
0
 40
0
 40
1
 40
1
 40
1
 40
1
 10
52.316213
 20
29.270451
 30
0.0
 10
52.225263
 20
29.162963
 30
0.0
 10
52.152226
 20
29.015514
 30
0.0
 10
52.097105
 20
28.828101
 30
0.0
  0
SPLINE
  5
1d3
100
AcDbEntity
  8
Layer_1
 62
7
100
AcDbSpline
 70
8
 71
3
 72
8
 73
4
 74
0
 40
0
 40
0
 40
0
 40
0
 40
1
 40
1
 40
1
 40
1
 10
52.097105
 20
28.828101
 30
0.0
 10
52.044739
 20
28.640687
 30
0.0
 10
52.018557
 20
28.405042
 30
0.0
 10
52.018557
 20
28.121168
 30
0.0
  0
SPLINE
  5
1d4
100
AcDbEntity
  8
Layer_1
 62
7
100
AcDbSpline
 70
8
 71
3
 72
8
 73
4
 74
0
 40
0
 40
0
 40
0
 40
0
 40
1
 40
1
 40
1
 40
1
 10
52.018557
 20
28.121168
 30
0.0
 10
52.018557
 20
27.867609
 30
0.0
 10
52.041983
 20
27.647122
 30
0.0
 10
52.088836
 20
27.459710
 30
0.0
  0
SPLINE
  5
1d5
100
AcDbEntity
  8
Layer_1
 62
7
100
AcDbSpline
 70
8
 71
3
 72
8
 73
4
 74
0
 40
0
 40
0
 40
0
 40
0
 40
1
 40
1
 40
1
 40
1
 10
52.088836
 20
27.459710
 30
0.0
 10
52.135690
 20
27.275052
 30
0.0
 10
52.204592
 20
27.126223
 30
0.0
 10
52.295541
 20
27.013223
 30
0.0
  0
SPLINE
  5
1d6
100
AcDbEntity
  8
Layer_1
 62
7
100
AcDbSpline
 70
8
 71
3
 72
8
 73
4
 74
0
 40
0
 40
0
 40
0
 40
0
 40
1
 40
1
 40
1
 40
1
 10
52.295541
 20
27.013223
 30
0.0
 10
52.383735
 20
26.905738
 30
0.0
 10
52.488467
 20
26.827190
 30
0.0
 10
52.609736
 20
26.777579
 30
0.0
  0
SPLINE
  5
1d7
100
AcDbEntity
  8
Layer_1
 62
7
100
AcDbSpline
 70
8
 71
3
 72
8
 73
4
 74
0
 40
0
 40
0
 40
0
 40
0
 40
1
 40
1
 40
1
 40
1
 10
52.609736
 20
26.777579
 30
0.0
 10
52.733758
 20
26.727970
 30
0.0
 10
52.874317
 20
26.703165
 30
0.0
 10
53.031415
 20
26.703165
 30
0.0
  0
SPLINE
  5
1d8
100
AcDbEntity
  8
Layer_1
 62
7
100
AcDbSpline
 70
8
 71
3
 72
8
 73
4
 74
0
 40
0
 40
0
 40
0
 40
0
 40
1
 40
1
 40
1
 40
1
 10
53.031415
 20
26.703165
 30
0.0
 10
53.166462
 20
26.703165
 30
0.0
 10
53.294620
 20
26.725214
 30
0.0
 10
53.415887
 20
26.769313
 30
0.0
  0
SPLINE
  5
1d9
100
AcDbEntity
  8
Layer_1
 62
7
100
AcDbSpline
 70
8
 71
3
 72
8
 73
4
 74
0
 40
0
 40
0
 40
0
 40
0
 40
1
 40
1
 40
1
 40
1
 10
53.415887
 20
26.769313
 30
0.0
 10
53.539910
 20
26.816165
 30
0.0
 10
53.644641
 20
26.893335
 30
0.0
 10
53.730079
 20
27.000822
 30
0.0
  0
LINE
  5
1da
100
AcDbEntity
  8
Layer_1
 62
7
100
AcDbLine
 10
53.730079
 20
27.000822
 30
0.0
 11
53.730079
 21
27.000822
 31
0.0
  0
LINE
  5
1db
100
AcDbEntity
  8
Layer_1
 62
7
100
AcDbLine
 10
60.001531
 20
29.034806
 30
0.0
 11
59.869239
 21
29.034806
 31
0.0
  0
SPLINE
  5
1dc
100
AcDbEntity
  8
Layer_1
 62
7
100
AcDbSpline
 70
8
 71
3
 72
8
 73
4
 74
0
 40
0
 40
0
 40
0
 40
0
 40
1
 40
1
 40
1
 40
1
 10
59.869239
 20
29.034806
 30
0.0
 10
59.805850
 20
29.056855
 30
0.0
 10
59.703876
 20
29.073392
 30
0.0
 10
59.563316
 20
29.084415
 30
0.0
  0
SPLINE
  5
1dd
100
AcDbEntity
  8
Layer_1
 62
7
100
AcDbSpline
 70
8
 71
3
 72
8
 73
4
 74
0
 40
0
 40
0
 40
0
 40
0
 40
1
 40
1
 40
1
 40
1
 10
59.563316
 20
29.084415
 30
0.0
 10
59.422756
 20
29.095441
 30
0.0
 10
59.305623
 20
29.100953
 30
0.0
 10
59.211916
 20
29.100953
 30
0.0
  0
SPLINE
  5
1de
100
AcDbEntity
  8
Layer_1
 62
7
100
AcDbSpline
 70
8
 71
3
 72
8
 73
4
 74
0
 40
0
 40
0
 40
0
 40
0
 40
1
 40
1
 40
1
 40
1
 10
59.211916
 20
29.100953
 30
0.0
 10
58.999698
 20
29.100953
 30
0.0
 10
58.812284
 20
29.087173
 30
0.0
 10
58.649675
 20
29.059611
 30
0.0
  0
SPLINE
  5
1df
100
AcDbEntity
  8
Layer_1
 62
7
100
AcDbSpline
 70
8
 71
3
 72
8
 73
4
 74
0
 40
0
 40
0
 40
0
 40
0
 40
1
 40
1
 40
1
 40
1
 10
58.649675
 20
29.059611
 30
0.0
 10
58.487066
 20
29.032051
 30
0.0
 10
58.312056
 20
28.985197
 30
0.0
 10
58.124643
 20
28.919050
 30
0.0
  0
LINE
  5
1e0
100
AcDbEntity
  8
Layer_1
 62
7
100
AcDbLine
 10
58.124643
 20
28.919050
 30
0.0
 11
58.124643
 21
25.810197
 31
0.0
  0
LINE
  5
1e1
100
AcDbEntity
  8
Layer_1
 62
7
100
AcDbLine
 10
58.124643
 20
25.810197
 30
0.0
 11
56.636361
 21
25.810197
 31
0.0
  0
LINE
  5
1e2
100
AcDbEntity
  8
Layer_1
 62
7
100
AcDbLine
 10
56.636361
 20
25.810197
 30
0.0
 11
56.636361
 21
30.452806
 31
0.0
  0
LINE
  5
1e3
100
AcDbEntity
  8
Layer_1
 62
7
100
AcDbLine
 10
56.636361
 20
30.452806
 30
0.0
 11
58.124643
 21
30.452806
 31
0.0
  0
LINE
  5
1e4
100
AcDbEntity
  8
Layer_1
 62
7
100
AcDbLine
 10
58.124643
 20
30.452806
 30
0.0
 11
58.124643
 21
29.770678
 31
0.0
  0
SPLINE
  5
1e5
100
AcDbEntity
  8
Layer_1
 62
7
100
AcDbSpline
 70
8
 71
3
 72
8
 73
4
 74
0
 40
0
 40
0
 40
0
 40
0
 40
1
 40
1
 40
1
 40
1
 10
58.124643
 20
29.770678
 30
0.0
 10
58.452615
 20
30.051798
 30
0.0
 10
58.737870
 20
30.237833
 30
0.0
 10
58.980406
 20
30.328784
 30
0.0
  0
SPLINE
  5
1e6
100
AcDbEntity
  8
Layer_1
 62
7
100
AcDbSpline
 70
8
 71
3
 72
8
 73
4
 74
0
 40
0
 40
0
 40
0
 40
0
 40
1
 40
1
 40
1
 40
1
 10
58.980406
 20
30.328784
 30
0.0
 10
59.222940
 20
30.422491
 30
0.0
 10
59.446182
 20
30.469345
 30
0.0
 10
59.650130
 20
30.469345
 30
0.0
  0
SPLINE
  5
1e7
100
AcDbEntity
  8
Layer_1
 62
7
100
AcDbSpline
 70
8
 71
3
 72
8
 73
4
 74
0
 40
0
 40
0
 40
0
 40
0
 40
1
 40
1
 40
1
 40
1
 10
59.650130
 20
30.469345
 30
0.0
 10
59.702496
 20
30.469345
 30
0.0
 10
59.761752
 20
30.467962
 30
0.0
 10
59.827899
 20
30.465196
 30
0.0
  0
SPLINE
  5
1e8
100
AcDbEntity
  8
Layer_1
 62
7
100
AcDbSpline
 70
8
 71
3
 72
8
 73
4
 74
0
 40
0
 40
0
 40
0
 40
0
 40
1
 40
1
 40
1
 40
1
 10
59.827899
 20
30.465196
 30
0.0
 10
59.894045
 20
30.462449
 30
0.0
 10
59.951922
 20
30.458319
 30
0.0
 10
60.001531
 20
30.452806
 30
0.0
  0
LINE
  5
1e9
100
AcDbEntity
  8
Layer_1
 62
7
100
AcDbLine
 10
60.001531
 20
30.452806
 30
0.0
 11
60.001531
 21
29.034806
 31
0.0
  0
LINE
  5
1ea
100
AcDbEntity
  8
Layer_1
 62
7
100
AcDbLine
 10
60.001531
 20
29.034806
 30
0.0
 11
60.001531
 21
29.034806
 31
0.0
  0
LINE
  5
1eb
100
AcDbEntity
  8
Layer_1
 62
7
100
AcDbLine
 10
65.425489
 20
27.856585
 30
0.0
 11
62.018980
 21
27.856585
 31
0.0
  0
SPLINE
  5
1ec
100
AcDbEntity
  8
Layer_1
 62
7
100
AcDbSpline
 70
8
 71
3
 72
8
 73
4
 74
0
 40
0
 40
0
 40
0
 40
0
 40
1
 40
1
 40
1
 40
1
 10
62.018980
 20
27.856585
 30
0.0
 10
62.041029
 20
27.492782
 30
0.0
 10
62.178832
 20
27.214417
 30
0.0
 10
62.432390
 20
27.021492
 30
0.0
  0
SPLINE
  5
1ed
100
AcDbEntity
  8
Layer_1
 62
7
100
AcDbSpline
 70
8
 71
3
 72
8
 73
4
 74
0
 40
0
 40
0
 40
0
 40
0
 40
1
 40
1
 40
1
 40
1
 10
62.432390
 20
27.021492
 30
0.0
 10
62.688706
 20
26.828567
 30
0.0
 10
63.064911
 20
26.732104
 30
0.0
 10
63.561005
 20
26.732104
 30
0.0
  0
SPLINE
  5
1ee
100
AcDbEntity
  8
Layer_1
 62
7
100
AcDbSpline
 70
8
 71
3
 72
8
 73
4
 74
0
 40
0
 40
0
 40
0
 40
0
 40
1
 40
1
 40
1
 40
1
 10
63.561005
 20
26.732104
 30
0.0
 10
63.875198
 20
26.732104
 30
0.0
 10
64.179744
 20
26.788604
 30
0.0
 10
64.474643
 20
26.901604
 30
0.0
  0
SPLINE
  5
1ef
100
AcDbEntity
  8
Layer_1
 62
7
100
AcDbSpline
 70
8
 71
3
 72
8
 73
4
 74
0
 40
0
 40
0
 40
0
 40
0
 40
1
 40
1
 40
1
 40
1
 10
64.474643
 20
26.901604
 30
0.0
 10
64.769543
 20
27.014602
 30
0.0
 10
65.002432
 20
27.135869
 30
0.0
 10
65.173310
 20
27.265406
 30
0.0
  0
LINE
  5
1f0
100
AcDbEntity
  8
Layer_1
 62
7
100
AcDbLine
 10
65.173310
 20
27.265406
 30
0.0
 11
65.338672
 21
27.265406
 31
0.0
  0
LINE
  5
1f1
100
AcDbEntity
  8
Layer_1
 62
7
100
AcDbLine
 10
65.338672
 20
27.265406
 30
0.0
 11
65.338672
 21
26.070646
 31
0.0
  0
SPLINE
  5
1f2
100
AcDbEntity
  8
Layer_1
 62
7
100
AcDbSpline
 70
8
 71
3
 72
8
 73
4
 74
0
 40
0
 40
0
 40
0
 40
0
 40
1
 40
1
 40
1
 40
1
 10
65.338672
 20
26.070646
 30
0.0
 10
65.002431
 20
25.935599
 30
0.0
 10
64.685482
 20
25.837758
 30
0.0
 10
64.387826
 20
25.777124
 30
0.0
  0
SPLINE
  5
1f3
100
AcDbEntity
  8
Layer_1
 62
7
100
AcDbSpline
 70
8
 71
3
 72
8
 73
4
 74
0
 40
0
 40
0
 40
0
 40
0
 40
1
 40
1
 40
1
 40
1
 10
64.387826
 20
25.777124
 30
0.0
 10
64.090170
 20
25.716491
 30
0.0
 10
63.760819
 20
25.686175
 30
0.0
 10
63.399774
 20
25.686175
 30
0.0
  0
SPLINE
  5
1f4
100
AcDbEntity
  8
Layer_1
 62
7
100
AcDbSpline
 70
8
 71
3
 72
8
 73
4
 74
0
 40
0
 40
0
 40
0
 40
0
 40
1
 40
1
 40
1
 40
1
 10
63.399774
 20
25.686175
 30
0.0
 10
62.468221
 20
25.686175
 30
0.0
 10
61.754397
 20
25.895636
 30
0.0
 10
61.258303
 20
26.314559
 30
0.0
  0
SPLINE
  5
1f5
100
AcDbEntity
  8
Layer_1
 62
7
100
AcDbSpline
 70
8
 71
3
 72
8
 73
4
 74
0
 40
0
 40
0
 40
0
 40
0
 40
1
 40
1
 40
1
 40
1
 10
61.258303
 20
26.314559
 30
0.0
 10
60.762209
 20
26.733483
 30
0.0
 10
60.514162
 20
27.330173
 30
0.0
 10
60.514162
 20
28.104630
 30
0.0
  0
SPLINE
  5
1f6
100
AcDbEntity
  8
Layer_1
 62
7
100
AcDbSpline
 70
8
 71
3
 72
8
 73
4
 74
0
 40
0
 40
0
 40
0
 40
0
 40
1
 40
1
 40
1
 40
1
 10
60.514162
 20
28.104630
 30
0.0
 10
60.514162
 20
28.870820
 30
0.0
 10
60.748428
 20
29.477157
 30
0.0
 10
61.216961
 20
29.923640
 30
0.0
  0
SPLINE
  5
1f7
100
AcDbEntity
  8
Layer_1
 62
7
100
AcDbSpline
 70
8
 71
3
 72
8
 73
4
 74
0
 40
0
 40
0
 40
0
 40
0
 40
1
 40
1
 40
1
 40
1
 10
61.216961
 20
29.923640
 30
0.0
 10
61.688249
 20
30.372881
 30
0.0
 10
62.333171
 20
30.597502
 30
0.0
 10
63.151726
 20
30.597502
 30
0.0
  0
SPLINE
  5
1f8
100
AcDbEntity
  8
Layer_1
 62
7
100
AcDbSpline
 70
8
 71
3
 72
8
 73
4
 74
0
 40
0
 40
0
 40
0
 40
0
 40
1
 40
1
 40
1
 40
1
 10
63.151726
 20
30.597502
 30
0.0
 10
63.906891
 20
30.597502
 30
0.0
 10
64.474643
 20
30.405955
 30
0.0
 10
64.854983
 20
30.022861
 30
0.0
  0
SPLINE
  5
1f9
100
AcDbEntity
  8
Layer_1
 62
7
100
AcDbSpline
 70
8
 71
3
 72
8
 73
4
 74
0
 40
0
 40
0
 40
0
 40
0
 40
1
 40
1
 40
1
 40
1
 10
64.854983
 20
30.022861
 30
0.0
 10
65.235320
 20
29.642521
 30
0.0
 10
65.425489
 20
29.094062
 30
0.0
 10
65.425489
 20
28.377482
 30
0.0
  0
LINE
  5
1fa
100
AcDbEntity
  8
Layer_1
 62
7
100
AcDbLine
 10
65.425489
 20
28.377482
 30
0.0
 11
65.425489
 21
27.856585
 31
0.0
  0
LINE
  5
1fb
100
AcDbEntity
  8
Layer_1
 62
7
100
AcDbLine
 10
65.425489
 20
27.856585
 30
0.0
 11
65.425489
 21
27.856585
 31
0.0
  0
SPLINE
  5
1fc
100
AcDbEntity
  8
Layer_1
 62
7
100
AcDbSpline
 70
8
 71
3
 72
8
 73
4
 74
0
 40
0
 40
0
 40
0
 40
0
 40
1
 40
1
 40
1
 40
1
 10
63.945476
 20
28.728883
 30
0.0
 10
63.937217
 20
29.040319
 30
0.0
 10
63.860047
 20
29.274585
 30
0.0
 10
63.713967
 20
29.431681
 30
0.0
  0
SPLINE
  5
1fd
100
AcDbEntity
  8
Layer_1
 62
7
100
AcDbSpline
 70
8
 71
3
 72
8
 73
4
 74
0
 40
0
 40
0
 40
0
 40
0
 40
1
 40
1
 40
1
 40
1
 10
63.713967
 20
29.431681
 30
0.0
 10
63.567894
 20
29.588777
 30
0.0
 10
63.340518
 20
29.667326
 30
0.0
 10
63.031838
 20
29.667326
 30
0.0
  0
SPLINE
  5
1fe
100
AcDbEntity
  8
Layer_1
 62
7
100
AcDbSpline
 70
8
 71
3
 72
8
 73
4
 74
0
 40
0
 40
0
 40
0
 40
0
 40
1
 40
1
 40
1
 40
1
 10
63.031838
 20
29.667326
 30
0.0
 10
62.745206
 20
29.667326
 30
0.0
 10
62.509561
 20
29.592912
 30
0.0
 10
62.324903
 20
29.444085
 30
0.0
  0
SPLINE
  5
1ff
100
AcDbEntity
  8
Layer_1
 62
7
100
AcDbSpline
 70
8
 71
3
 72
8
 73
4
 74
0
 40
0
 40
0
 40
0
 40
0
 40
1
 40
1
 40
1
 40
1
 10
62.324903
 20
29.444085
 30
0.0
 10
62.140247
 20
29.295256
 30
0.0
 10
62.036894
 20
29.056855
 30
0.0
 10
62.014845
 20
28.728883
 30
0.0
  0
LINE
  5
200
100
AcDbEntity
  8
Layer_1
 62
7
100
AcDbLine
 10
62.014845
 20
28.728883
 30
0.0
 11
63.945476
 21
28.728883
 31
0.0
  0
LINE
  5
201
100
AcDbEntity
  8
Layer_1
 62
7
100
AcDbLine
 10
63.945476
 20
28.728883
 30
0.0
 11
63.945476
 21
28.728883
 31
0.0
  0
LINE
  5
202
100
AcDbEntity
  8
Layer_1
 62
7
100
AcDbLine
 10
70.990008
 20
25.810197
 30
0.0
 11
69.501726
 21
25.810197
 31
0.0
  0
LINE
  5
203
100
AcDbEntity
  8
Layer_1
 62
7
100
AcDbLine
 10
69.501726
 20
25.810197
 30
0.0
 11
69.501726
 21
26.293889
 31
0.0
  0
SPLINE
  5
204
100
AcDbEntity
  8
Layer_1
 62
7
100
AcDbSpline
 70
8
 71
3
 72
8
 73
4
 74
0
 40
0
 40
0
 40
0
 40
0
 40
1
 40
1
 40
1
 40
1
 10
69.501726
 20
26.293889
 30
0.0
 10
69.245412
 20
26.084426
 30
0.0
 10
69.005633
 20
25.930085
 30
0.0
 10
68.782390
 20
25.830867
 30
0.0
  0
SPLINE
  5
205
100
AcDbEntity
  8
Layer_1
 62
7
100
AcDbSpline
 70
8
 71
3
 72
8
 73
4
 74
0
 40
0
 40
0
 40
0
 40
0
 40
1
 40
1
 40
1
 40
1
 10
68.782390
 20
25.830867
 30
0.0
 10
68.559148
 20
25.731649
 30
0.0
 10
68.301455
 20
25.682040
 30
0.0
 10
68.009310
 20
25.682040
 30
0.0
  0
SPLINE
  5
206
100
AcDbEntity
  8
Layer_1
 62
7
100
AcDbSpline
 70
8
 71
3
 72
8
 73
4
 74
0
 40
0
 40
0
 40
0
 40
0
 40
1
 40
1
 40
1
 40
1
 10
68.009310
 20
25.682040
 30
0.0
 10
67.444316
 20
25.682040
 30
0.0
 10
66.992320
 20
25.899770
 30
0.0
 10
66.653323
 20
26.335229
 30
0.0
  0
SPLINE
  5
207
100
AcDbEntity
  8
Layer_1
 62
7
100
AcDbSpline
 70
8
 71
3
 72
8
 73
4
 74
0
 40
0
 40
0
 40
0
 40
0
 40
1
 40
1
 40
1
 40
1
 10
66.653323
 20
26.335229
 30
0.0
 10
66.314325
 20
26.770689
 30
0.0
 10
66.144826
 20
27.357733
 30
0.0
 10
66.144826
 20
28.096361
 30
0.0
  0
SPLINE
  5
208
100
AcDbEntity
  8
Layer_1
 62
7
100
AcDbSpline
 70
8
 71
3
 72
8
 73
4
 74
0
 40
0
 40
0
 40
0
 40
0
 40
1
 40
1
 40
1
 40
1
 10
66.144826
 20
28.096361
 30
0.0
 10
66.144826
 20
28.490480
 30
0.0
 10
66.201326
 20
28.839125
 30
0.0
 10
66.314326
 20
29.142293
 30
0.0
  0
SPLINE
  5
209
100
AcDbEntity
  8
Layer_1
 62
7
100
AcDbSpline
 70
8
 71
3
 72
8
 73
4
 74
0
 40
0
 40
0
 40
0
 40
0
 40
1
 40
1
 40
1
 40
1
 10
66.314326
 20
29.142293
 30
0.0
 10
66.430080
 20
29.448219
 30
0.0
 10
66.587176
 20
29.710045
 30
0.0
 10
66.785614
 20
29.927774
 30
0.0
  0
SPLINE
  5
20a
100
AcDbEntity
  8
Layer_1
 62
7
100
AcDbSpline
 70
8
 71
3
 72
8
 73
4
 74
0
 40
0
 40
0
 40
0
 40
0
 40
1
 40
1
 40
1
 40
1
 10
66.785614
 20
29.927774
 30
0.0
 10
66.973027
 20
30.134481
 30
0.0
 10
67.200403
 20
30.294334
 30
0.0
 10
67.467742
 20
30.407332
 30
0.0
  0
SPLINE
  5
20b
100
AcDbEntity
  8
Layer_1
 62
7
100
AcDbSpline
 70
8
 71
3
 72
8
 73
4
 74
0
 40
0
 40
0
 40
0
 40
0
 40
1
 40
1
 40
1
 40
1
 10
67.467742
 20
30.407332
 30
0.0
 10
67.735082
 20
30.523088
 30
0.0
 10
68.002422
 20
30.580966
 30
0.0
 10
68.269762
 20
30.580966
 30
0.0
  0
SPLINE
  5
20c
100
AcDbEntity
  8
Layer_1
 62
7
100
AcDbSpline
 70
8
 71
3
 72
8
 73
4
 74
0
 40
0
 40
0
 40
0
 40
0
 40
1
 40
1
 40
1
 40
1
 10
68.269762
 20
30.580966
 30
0.0
 10
68.548125
 20
30.580966
 30
0.0
 10
68.775501
 20
30.550649
 30
0.0
 10
68.951890
 20
30.490015
 30
0.0
  0
SPLINE
  5
20d
100
AcDbEntity
  8
Layer_1
 62
7
100
AcDbSpline
 70
8
 71
3
 72
8
 73
4
 74
0
 40
0
 40
0
 40
0
 40
0
 40
1
 40
1
 40
1
 40
1
 10
68.951890
 20
30.490015
 30
0.0
 10
69.131035
 20
30.432136
 30
0.0
 10
69.314314
 20
30.357722
 30
0.0
 10
69.501726
 20
30.266771
 30
0.0
  0
LINE
  5
20e
100
AcDbEntity
  8
Layer_1
 62
7
100
AcDbLine
 10
69.501726
 20
30.266771
 30
0.0
 11
69.501726
 21
32.242880
 31
0.0
  0
LINE
  5
20f
100
AcDbEntity
  8
Layer_1
 62
7
100
AcDbLine
 10
69.501726
 20
32.242880
 30
0.0
 11
70.990008
 21
32.242880
 31
0.0
  0
LINE
  5
210
100
AcDbEntity
  8
Layer_1
 62
7
100
AcDbLine
 10
70.990008
 20
32.242880
 30
0.0
 11
70.990008
 21
25.810197
 31
0.0
  0
LINE
  5
211
100
AcDbEntity
  8
Layer_1
 62
7
100
AcDbLine
 10
70.990008
 20
25.810197
 30
0.0
 11
70.990008
 21
25.810197
 31
0.0
  0
LINE
  5
212
100
AcDbEntity
  8
Layer_1
 62
7
100
AcDbLine
 10
69.501726
 20
27.091771
 30
0.0
 11
69.501726
 21
29.369669
 31
0.0
  0
SPLINE
  5
213
100
AcDbEntity
  8
Layer_1
 62
7
100
AcDbSpline
 70
8
 71
3
 72
8
 73
4
 74
0
 40
0
 40
0
 40
0
 40
0
 40
1
 40
1
 40
1
 40
1
 10
69.501726
 20
29.369669
 30
0.0
 10
69.396996
 20
29.413767
 30
0.0
 10
69.286753
 20
29.445462
 30
0.0
 10
69.170999
 20
29.464755
 30
0.0
  0
SPLINE
  5
214
100
AcDbEntity
  8
Layer_1
 62
7
100
AcDbSpline
 70
8
 71
3
 72
8
 73
4
 74
0
 40
0
 40
0
 40
0
 40
0
 40
1
 40
1
 40
1
 40
1
 10
69.170999
 20
29.464755
 30
0.0
 10
69.055242
 20
29.484048
 30
0.0
 10
68.949133
 20
29.493694
 30
0.0
 10
68.852672
 20
29.493694
 30
0.0
  0
SPLINE
  5
215
100
AcDbEntity
  8
Layer_1
 62
7
100
AcDbSpline
 70
8
 71
3
 72
8
 73
4
 74
0
 40
0
 40
0
 40
0
 40
0
 40
1
 40
1
 40
1
 40
1
 10
68.852672
 20
29.493694
 30
0.0
 10
68.461309
 20
29.493694
 30
0.0
 10
68.167786
 20
29.371049
 30
0.0
 10
67.972105
 20
29.125758
 30
0.0
  0
SPLINE
  5
216
100
AcDbEntity
  8
Layer_1
 62
7
100
AcDbSpline
 70
8
 71
3
 72
8
 73
4
 74
0
 40
0
 40
0
 40
0
 40
0
 40
1
 40
1
 40
1
 40
1
 10
67.972105
 20
29.125758
 30
0.0
 10
67.776423
 20
28.883222
 30
0.0
 10
67.678582
 20
28.545602
 30
0.0
 10
67.678582
 20
28.112899
 30
0.0
  0
SPLINE
  5
217
100
AcDbEntity
  8
Layer_1
 62
7
100
AcDbSpline
 70
8
 71
3
 72
8
 73
4
 74
0
 40
0
 40
0
 40
0
 40
0
 40
1
 40
1
 40
1
 40
1
 10
67.678582
 20
28.112899
 30
0.0
 10
67.678582
 20
27.658147
 30
0.0
 10
67.757130
 20
27.327417
 30
0.0
 10
67.914226
 20
27.120710
 30
0.0
  0
SPLINE
  5
218
100
AcDbEntity
  8
Layer_1
 62
7
100
AcDbSpline
 70
8
 71
3
 72
8
 73
4
 74
0
 40
0
 40
0
 40
0
 40
0
 40
1
 40
1
 40
1
 40
1
 10
67.914226
 20
27.120710
 30
0.0
 10
68.071323
 20
26.916761
 30
0.0
 10
68.323503
 20
26.814787
 30
0.0
 10
68.670768
 20
26.814787
 30
0.0
  0
SPLINE
  5
219
100
AcDbEntity
  8
Layer_1
 62
7
100
AcDbSpline
 70
8
 71
3
 72
8
 73
4
 74
0
 40
0
 40
0
 40
0
 40
0
 40
1
 40
1
 40
1
 40
1
 10
68.670768
 20
26.814787
 30
0.0
 10
68.805817
 20
26.814787
 30
0.0
 10
68.949133
 20
26.839591
 30
0.0
 10
69.100717
 20
26.889201
 30
0.0
  0
SPLINE
  5
21a
100
AcDbEntity
  8
Layer_1
 62
7
100
AcDbSpline
 70
8
 71
3
 72
8
 73
4
 74
0
 40
0
 40
0
 40
0
 40
0
 40
1
 40
1
 40
1
 40
1
 10
69.100717
 20
26.889201
 30
0.0
 10
69.252302
 20
26.941566
 30
0.0
 10
69.385972
 20
27.009089
 30
0.0
 10
69.501726
 20
27.091771
 30
0.0
  0
LINE
  5
21b
100
AcDbEntity
  8
Layer_1
 62
7
100
AcDbLine
 10
69.501726
 20
27.091771
 30
0.0
 11
69.501726
 21
27.091771
 31
0.0
  0
ENDSEC
  0
SECTION
  2
OBJECTS
  0
DICTIONARY
  5
C
330
0
100
AcDbDictionary
  3
ACAD_GROUP
350
D
  3
ACAD_MLINESTYLE
350
17
  0
DICTIONARY
  5
D
330
C
100
AcDbDictionary
  0
DICTIONARY
  5
1A
330
C
100
AcDbDictionary
  0
DICTIONARY
  5
17
330
C
100
AcDbDictionary
  3
STANDARD
350
18
  0
DICTIONARY
  5
19
330
C
100
AcDbDictionary
  0
ENDSEC
  0
EOF
